<ttFont>
          <CharString index="0">
            -105 callsubr
            -32 callgsubr
            -106 callsubr
            return
          </CharString>
          <CharString index="1">
            61 132 rlineto
            107 hlineto
            -6 callsubr
            return
          </CharString>
          <CharString index="2">
            14 -17 24 302 callgsubr
            return
          </CharString>
          <CharString index="3">
            hlineto
            -100 callgsubr
          </CharString>
          <CharString index="4">
            -106 callgsubr
            121 -99 callgsubr
            return
          </CharString>
          <CharString index="5">
            -103 callgsubr
            66 25 32 rlinecurve
            return
          </CharString>
          <CharString index="6">
            -100 callsubr
            42 50 61 return
          </CharString>
          <CharString index="7">
            -99 callsubr
            297 return
          </CharString>
          <CharString index="8">
            -105 callgsubr
            -319 hlineto
            -13 -8 -8 -14 -4 -13 12 -11 rcurveline
            321 -7 callsubr
            return
          </CharString>
          <CharString index="9">
            -10 -7 -9 -8 -7 -8 -2 -17 15 -12 19 -5 rrcurveto
            31 38 35 21 39 hhcurveto
            20 26 -12 -20 return
          </CharString>
          <CharString index="10">
            -96 callgsubr
            -19 -3 -18 1 -13 6 return
          </CharString>
          <CharString index="11">
            -95 callsubr
            -29 -11 -34 -18 -30 return
          </CharString>
          <CharString index="12">
            -3 48 -24 47 -39 23 -24 4 -50 -4 -22 -8 rrcurveto
            -53 -28 -71 -91 -62 vvcurveto
            -80 48 -102 98 -74 vhcurveto
            -83 callsubr
            return
          </CharString>
          <CharString index="13">
            196 callgsubr
            13 50 14 66 14 71 52 35 49 34 50 35 10 -5 -86 callgsubr
            -50 -36 -51 -36 -52 -35 8 46 8 47 7 44 rrcurveto
            338 -104 callsubr
          </CharString>
          <CharString index="14">
            -1 14 -96 callsubr
            return
          </CharString>
          <CharString index="15">
            66 -65 107 -127 -84 callgsubr
            return
          </CharString>
          <CharString index="16">
            vvcurveto
            -63 72 -67 96 -20 vhcurveto
            106 3 97 65 39 48 rrcurveto
            28 -5 -15 14 -27 hhcurveto
            -40 -51 -64 -51 -82 -9 -65 26 -35 38 -1 41 -1 29 31 29 43 29 62 42 89 47 56 47 8 11 10 16 2 26 -19 32 -26 24 -32 20 rrcurveto
            249 -104 callsubr
          </CharString>
          <CharString index="17">
            -108 -457 -105 callsubr
            65 400 49 107 -21 23 -29 11 -34 2 rlinecurve
            return
          </CharString>
          <CharString index="18">
            65 55 66 60 67 63 7 -7 rcurveline
            -18 -38 -66 -284 -77 callgsubr
            25 65 60 21 callgsubr
          </CharString>
          <CharString index="19">
            -11 -10 -10 -10 -6 -10 1 -16 14 -13 21 -4 rrcurveto
            return
          </CharString>
          <CharString index="20">
            hlineto
            166 callsubr
            return
          </CharString>
          <CharString index="21">
            -18 9 -21 12 -15 16 245 callsubr
            return
          </CharString>
          <CharString index="22">
            223 callsubr
            -21 -25 -76 -93 -48 -53 -51 14 -46 41 -16 44 243 callsubr
            79 -64 callsubr
          </CharString>
          <CharString index="23">
            -106 callgsubr
            94 hlineto
            -31 -120 -32 -118 -17 callsubr
            return
          </CharString>
          <CharString index="24">
            24 4 24 21 7 24 rrcurveto
            -84 58 -37 71 64 vvcurveto
            61 33 54 58 30 vhcurveto
            31 -12 15 -22 4 -25 5 return
          </CharString>
          <CharString index="25">
            -103 callsubr
            33 -1 return
          </CharString>
          <CharString index="26">
            hlineto
            -88 callsubr
            35 30 45 21 35 hhcurveto
            28 26 -41 -31 -82 -107 -74 -122 -13 hvcurveto
            return
          </CharString>
          <CharString index="27">
            rmoveto
            -50 -55 214 callsubr
            rrcurveto
            -38 callsubr
            26 146 callsubr
            return
          </CharString>
          <CharString index="28">
            -28 -22 -22 -28 -27 22 -22 28 27 22 22 27 28 -22 22 -27 hvcurveto
            return
          </CharString>
          <CharString index="29">
            rmoveto
            149 325 9 2 11 -319 rlineto
            62 12 rmoveto
            -16 211 15 174 -33 10 -47 4 -44 -28 rlinecurve
            -114 -272 -66 -123 -105 -5 -20 -22 -3 -27 16 -21 rlinecurve
            79 12 -122 -228 13 -22 25 -6 45 4 rlinecurve
            121 264 60 9 134 7 1 -255 15 -19 26 -11 45 5 rlinecurve
            -21 284 91 5 22 30 1 30 -16 11 rlinecurve
            return
          </CharString>
          <CharString index="30">
            26 -90 50 -59 76 -68 -35 callgsubr
            return
          </CharString>
          <CharString index="31">
            -85 callgsubr
            32 -1 36 8 36 15 rrcurveto
            -13 21 27 -20 16 hhcurveto
            47 127 49 58 75 hvcurveto
            9 -13 -30 -40 -69 -292 -107 callgsubr
          </CharString>
          <CharString index="32">
            hlineto
            -80 callgsubr
            return
          </CharString>
          <CharString index="33">
            rmoveto
            -53 -74 -54 -52 -52 -47 -44 13 -18 16 -8 19 47 209 18 107 10 88 -32 30 -20 6 -41 -5 2 -112 -10 -110 -5 -57 -51 -173 rcurveline
            14 -41 41 -38 108 -15 54 54 54 60 40 52 12 -10 rcurveline
            -49 -131 17 225 callsubr
            rlinecurve
            8 -25 callsubr
            -23 -89 -20 -91 -24 -128 rrcurveto
            endchar
          </CharString>
          <CharString index="34">
            -105 callgsubr
            -65 callgsubr
            109 168 callgsubr
            return
          </CharString>
          <CharString index="35">
            rmoveto
            29 139 13 103 25 108 309 callsubr
            -12 309 callgsubr
            -28 hvcurveto
            -213 vlineto
            -30 -182 -28 -149 -92 -90 rrcurveto
            -119 -61 -103 81 78 vvcurveto
            173 52 202 53 177 vhcurveto
            6 -13 -11 3 -12 hhcurveto
            -20 -21 301 callsubr
            -17 -200 -27 -135 -36 -209 rrcurveto
            -61 10 62 -105 130 hhcurveto
            190 50 145 231 48 hvcurveto
            return
          </CharString>
          <CharString index="36">
            hlineto
            -35 -150 -2 -1 rlineto
            40 -24 -23 42 -40 hhcurveto
            return
          </CharString>
          <CharString index="37">
            299 callsubr
            -93 callgsubr
            156 7 139 249 callsubr
            vvcurveto
            return
          </CharString>
          <CharString index="38">
            46 -104 callgsubr
            return
          </CharString>
          <CharString index="39">
            -42 -18 -23 -53 -7 -39 -77 callsubr
            return
          </CharString>
          <CharString index="40">
            rmoveto
            -117 1 102 -180 119 hhcurveto
            111 202 232 131 -2 hvcurveto
            176 -2 -98 196 -91 hhcurveto
            -161 -183 -218 -220 2 hvcurveto
            462 62 rmoveto
            -45 -131 -62 -98 -136 -78 -95 47 -46 113 -1 102 rrcurveto
            158 105 140 154 72 vhcurveto
            80 -78 30 -114 16 -133 rrcurveto
            return
          </CharString>
          <CharString index="41">
            243 callgsubr
            231 -11 callsubr
            -14 -2 -14 0 -11 2 3 56 -11 124 -138 -18 156 callsubr
            -72 -56 -94 callgsubr
            return
          </CharString>
          <CharString index="42">
            -75 callsubr
            312 60 58 58 60 41 37 rlinecurve
            return
          </CharString>
          <CharString index="43">
            71 65 50 callsubr
            -13 26 -29 184 callgsubr
            221 -104 callsubr
          </CharString>
          <CharString index="44">
            -105 callgsubr
            -107 -106 callgsubr
            109 168 callgsubr
            return
          </CharString>
          <CharString index="45">
            rmoveto
            -3 -1 rlineto
            40 -14 -20 27 -36 hhcurveto
            -105 -60 -150 59 callgsubr
            -31 -56 -90 -48 -41 -54 callsubr
            281 hlineto
            -56 -244 rmoveto
            -50 -21 -48 -50 -34 hhcurveto
            -26 -14 134 callsubr
            26 20 -49 -38 7 hvcurveto
            return
          </CharString>
          <CharString index="46">
            rmoveto
            136 10 53 -62 -69 vvcurveto
            -78 -26 -40 -69 -46 vhcurveto
            -56 -15 -44 -6 -57 -2 1 15 1 14 1 15 rrcurveto
            -24 253 rmoveto
            -29 -211 -23 -126 -22 -141 -47 -163 rlinecurve
            22 -23 47 -7 26 8 22 133 13 99 8 91 15 1 rcurveline
            21 -121 68 -123 130 -83 45 13 23 31 -13 29 -135 59 -61 66 -45 130 46 2 28 3 57 7 rrcurveto
            110 60 49 60 101 vvcurveto
            88 -74 88 -177 -63 -43 -6 -10 -43 vhcurveto
            -17 -7 -4 -26 15 -25 rrcurveto
            return
          </CharString>
          <CharString index="47">
            -61 callgsubr
            25 -12 return
          </CharString>
          <CharString index="48">
            -104 -43 -69 callgsubr
          </CharString>
          <CharString index="49">
            rmoveto
            -5 -61 27 -60 41 -44 22 4 15 12 -2 18 -41 50 -9 32 -4 70 rrcurveto
            20 -20 -18 7 -22 hhcurveto
            -57 -35 -49 -66 -43 -68 -1 -21 15 -26 49 3 19 72 33 59 45 37 rrcurveto
            return
          </CharString>
          <CharString index="50">
            -6 39 -22 28 -28 2 -32 -13 -56 -19 -42 -3 -10 6 -9 10 -1 12 2 6 3 6 3 6 61 -10 rcurveline
            return
          </CharString>
          <CharString index="51">
            -152 -124 -81 50 -40 77 -5 hvcurveto
            return
          </CharString>
          <CharString index="52">
            -24 callgsubr
            15 11 14 14 return
          </CharString>
          <CharString index="53">
            hhcurveto
            -56 -80 105 51 -41 hvcurveto
            5 8 rlineto
            119 176 121 105 22 -10 28 -19 23 hvcurveto
            return
          </CharString>
          <CharString index="54">
            -29 -35 -40 -47 -36 -44 -7 5 rcurveline
            83 201 rlineto
            return
          </CharString>
          <CharString index="55">
            445 rmoveto
            -58 -56 -107 -92 -73 -56 -9 5 rcurveline
            160 callsubr
            67 142 rcurveline
            176 hlineto
            return
          </CharString>
          <CharString index="56">
            59 callsubr
            -27 callgsubr
            return
          </CharString>
          <CharString index="57">
            128 rmoveto
            41 61 70 78 58 50 7 35 -17 28 -42 11 -46 -11 -50 -14 -40 -3 -8 14 rcurveline
            49 55 96 87 97 54 rrcurveto
            155 hlineto
            5 -22 -4 -24 -8 -22 -5 3 -4 2 -5 2 -40 -3 -37 -34 -12 -17 -13 -61 13 -58 15 -63 -76 -68 -106 -65 -82 -24 rrcurveto
            363 293 rmoveto
            -1 -24 -20 -32 -30 -34 -7 42 -5 39 4 25 3 14 6 10 10 3 20 -9 21 -21 -1 -13 rrcurveto
            return
          </CharString>
          <CharString index="58">
            181 callsubr
            -31 -29 21 -143 rcurveline
            -21 -105 -32 -126 -35 -117 16 -22 24 -6 46 4 18 100 17 99 17 110 62 78 66 55 62 27 19 -8 18 -16 5 -32 -26 -137 -21 -110 -21 -141 16 225 callsubr
            rrcurveto
            8 136 12 120 8 72 36 89 rcurveline
            -9 50 -40 65 -78 8 -72 -30 -67 -59 -51 -69 rrcurveto
            endchar
          </CharString>
          <CharString index="59">
            -49 -40 7 -87 41 -57 33 -26 77 -31 82 -7 76 123 rcurveline
            7 -4 -19 -59 -65 -150 -41 -69 rlinecurve
            11 -22 18 -11 44 2 38 105 52 162 27 69 -23 35 -20 12 -40 -3 -25 -39 -37 -63 -23 -29 -54 7 -35 17 -36 21 -18 49 -3 36 33 28 return
          </CharString>
          <CharString index="60">
            rmoveto
            -14 3 -9 9 -4 6 132 108 rcurveline
            3 -2 -6 -32 -8 -35 -7 -33 rlinecurve
            return
          </CharString>
          <CharString index="61">
            -22 7 21 -5 17 hhcurveto
            20 17 20 10 25 3 6 -9 6 -15 -4 -19 rrcurveto
            -32 -8 -27 -16 -39 hhcurveto
            -43 -36 20 34 -34 hvcurveto
            -12 -1 -9 -16 -1 -20 rrcurveto
            -44 35 61 -25 59 hhcurveto
            71 53 37 59 12 hvcurveto
            57 10 -30 36 -43 hhcurveto
            -27 -23 -11 -19 -20 hvcurveto
            return
          </CharString>
          <CharString index="62">
            18 -28 47 -19 27 2 return
          </CharString>
          <CharString index="63">
            110 callsubr
            -72 -54 -77 -1 -35 38 -30 39 -16 73 19 114 63 91 74 6 -25 4 -26 2 -27 -33 -52 -63 -36 -60 -33 -5 -12 4 -15 31 -18 65 32 108 80 3 55 rrcurveto
            1 27 -8 44 -9 46 58 55 40 57 3 48 1 21 -15 23 -20 19 15 32 11 33 -3 31 rrcurveto
            103 -104 callsubr
          </CharString>
          <CharString index="64">
            26 21 22 25 27 -21 20 -26 -27 -20 -20 -27 -25 20 -22 27 hvcurveto
            return
          </CharString>
          <CharString index="65">
            -57 callsubr
            91 26 124 86 26 85 -11 50 -31 30 -33 -3 return
          </CharString>
          <CharString index="66">
            14 60 14 61 14 60 67 142 rcurveline
            143 hlineto
            return
          </CharString>
          <CharString index="67">
            55 7 42 14 31 14 4 -5 rcurveline
            -60 -47 -57 -56 124 callsubr
            return
          </CharString>
          <CharString index="68">
            -105 callgsubr
            -107 -106 callgsubr
            109 hlineto
            -30 -127 -73 -43 -78 -41 -73 -37 rlinecurve
            -22 16 -27 13 -33 7 -2 4 rcurveline
            91 38 51 59 15 86 -6 43 -26 33 -55 10 rrcurveto
            -68 -72 -28 -58 -59 hvcurveto
            86 callgsubr
            -51 -47 107 callsubr
            11 10 -1 -1 10 hvcurveto
            10 -1 9 -2 8 -3 11 -4 10 -4 9 -5 rrcurveto
            -147 -73 -116 -60 -45 vvcurveto
            -34 57 -46 52 -4 vhcurveto
            86 182 103 108 14 -6 16 -13 17 hvcurveto
            64 35 66 38 61 37 10 -11 rcurveline
            -34 -42 -76 -325 -105 callsubr
            -32 callgsubr
            61 132 rlineto
            return
          </CharString>
          <CharString index="69">
            -26 callgsubr
            34 return
          </CharString>
          <CharString index="70">
            53 callsubr
            72 48 rcurveline
            6 -27 1 -26 -6 -30 rrcurveto
            return
          </CharString>
          <CharString index="71">
            26 -90 50 -59 76 -68 rrcurveto
            157 callsubr
          </CharString>
          <CharString index="72">
            -106 callgsubr
            122 hlineto
            -88 callsubr
            34 30 38 22 36 hhcurveto
            34 26 -37 -29 -94 -126 -73 -79 -3 hvcurveto
            -13 -1 -12 2 -10 4 -93 callgsubr
            return
          </CharString>
          <CharString index="73">
            -102 callgsubr
            -85 -106 callgsubr
            87 -2 callsubr
          </CharString>
          <CharString index="74">
            rmoveto
            -29 -30 -36 39 -35 43 -32 45 rlinecurve
            25 20 24 15 24 hhcurveto
            34 23 -44 -45 18 hvcurveto
            -171 -213 rmoveto
            -21 10 -14 29 38 vvcurveto
            52 14 52 22 41 vhcurveto
            30 -41 36 -43 188 callsubr
            return
          </CharString>
          <CharString index="75">
            rmoveto
            82 -18 -24 62 -53 hhcurveto
            -105 -60 -126 -74 -46 33 -39 45 hvcurveto
            3 -5 rlineto
            -28 -46 -95 -51 -46 -54 callsubr
            313 115 callgsubr
            rrcurveto
            -47 -23 rmoveto
            -31 -17 -50 -52 291 callsubr
            100 54 26 19 -50 -42 7 hvcurveto
            170 172 -46 callgsubr
            -859 136 rmoveto
            154 callsubr
            95 16 155 86 76 90 66 -69 92 -108 60 -63 -23 callgsubr
          </CharString>
          <CharString index="76">
            rmoveto
            -538 -106 callgsubr
            188 hlineto
            39 -22 38 -28 25 -34 -1 -3 rcurveline
            -45 -29 -137 -33 -40 -17 rrcurveto
            -22 -15 -12 -41 -29 vvcurveto
            75 -70 162 -6 27 -47 rrcurveto
            -8 vlineto
            -30 -16 -62 -50 -47 hhcurveto
            -36 -52 34 28 -27 hvcurveto
            -31 5 -26 -28 -20 -38 72 -70 65 -115 38 -72 rrcurveto
            24 3 25 13 18 vvcurveto
            -34 68 -70 97 -46 47 4 4 rcurveline
            -20 29 54 -32 27 hhcurveto
            73 122 80 62 14 -7 16 -10 13 hvcurveto
            -60 53 -153 19 -29 37 3 10 rcurveline
            38 21 129 26 58 36 56 callgsubr
            253 -104 callsubr
          </CharString>
          <CharString index="77">
            rmoveto
            -30 -78 -62 -93 rlineto
            -11 2 11 -6 20 hhcurveto
            159 156 -1 22 -55 22 -44 -12 rlinecurve
            return
          </CharString>
          <CharString index="78">
            rmoveto
            49 70 92 76 68 32 9 -2 5 -7 2 -10 -23 -61 -101 -76 -64 -15 rrcurveto
            return
          </CharString>
          <CharString index="79">
            hlineto
            24 -12 33 -19 13 -23 -2 -7 rcurveline
            -41 -29 -79 -23 -94 -3 -24 -10 -24 -57 15 -23 return
          </CharString>
          <CharString index="80">
            rmoveto
            -5 -73 -94 -84 -107 -12 -44 16 -36 26 -23 32 rrcurveto
            -14 19 -8 21 18 vvcurveto
            47 84 49 87 52 vhcurveto
            60 -28 70 -41 30 -42 rrcurveto
            return
          </CharString>
          <CharString index="81">
            -4 -20 5 -15 33 -21 return
          </CharString>
          <CharString index="82">
            136 11 126 16 105 75 147 rcurveline
            24 -18 -27 8 -50 hhcurveto
            return
          </CharString>
          <CharString index="83">
            -42 callsubr
            -44 -17 -43 -25 -38 -29 rrcurveto
            -459 -106 callgsubr
            417 hlineto
            -23 -22 -21 -23 -18 -22 -106 -75 -126 -69 -105 -65 -71 callgsubr
            46 -5 48 -16 43 44 28 45 28 44 30 -1 -3 rcurveline
            -36 callgsubr
            return
          </CharString>
          <CharString index="84">
            -64 145 -292 73 -5 94 -2 50 109 79 87 19 43 -32 34 -34 32 -83 41 -4 26 20 4 24 -36 74 -61 55 -76 32 -105 -9 -130 -78 -44 -109 25 -160 335 -77 2 -82 rrcurveto
            -78 -85 -70 -113 -28 vhcurveto
            -89 54 -27 33 -30 92 -39 13 -18 -6 -27 -37 return
          </CharString>
          <CharString index="85">
            392 -104 callgsubr
            return
          </CharString>
          <CharString index="86">
            41 callsubr
            19 57 rmoveto
            47 -21 -29 47 -50 hhcurveto
            -132 -132 -194 -171 3 hvcurveto
            1 -95 54 -65 105 -2 42 51 49 52 40 47 215 callgsubr
            -104 -17 -101 -8 -51 -29 -101 rlinecurve
            -8 -5 -9 -3 -10 1 -56 43 -31 57 -5 64 -25 16 -33 -16 -23 -35 9 -60 50 -80 98 -49 42 -1 62 19 19 23 26 162 37 265 34 138 83 178 307 callgsubr
            -7 -18 -7 -33 -2 -49 rrcurveto
            endchar
          </CharString>
          <CharString index="87">
            -30 121 -233 44 53 vvcurveto
            34 73 63 73 20 vhcurveto
            31 -40 14 -32 2 -45 51 -10 25 15 4 19 -16 80 -48 35 -56 24 -107 -8 -108 -70 -17 -100 rrcurveto
            29 -106 236 -42 -56 vvcurveto
            -46 -50 -60 -106 -21 vhcurveto
            -47 38 -22 45 -12 62 -32 6 -19 -8 -25 -37 9 return
          </CharString>
          <CharString index="88">
            -45 callsubr
            -18 callgsubr
          </CharString>
          <CharString index="89">
            149 callgsubr
            -75 -50 -74 -63 -42 -53 -2 -31 23 -37 34 -15 56 7 39 12 38 12 4 -5 rcurveline
            -60 -47 -52 -51 121 callsubr
            return
          </CharString>
          <CharString index="90">
            -31 -120 -45 callsubr
            return
          </CharString>
          <CharString index="91">
            78 callgsubr
            -572 -106 callgsubr
            216 -2 callgsubr
          </CharString>
          <CharString index="92">
            -47 40 27 30 102 44 67 27 hvcurveto
            2 19 -9 44 -13 4 -89 -5 -104 6 -94 16 return
          </CharString>
          <CharString index="93">
            -98 callgsubr
            -332 50 callgsubr
            -101 -354 59 callsubr
            40 callsubr
            return
          </CharString>
          <CharString index="94">
            -38 -57 -47 -38 -50 -38 -58 17 -18 16 -14 33 41 163 10 45 19 136 -31 30 -21 6 -41 -5 4 -50 -4 -133 -8 -67 -49 -143 rcurveline
            14 -48 42 -38 127 -21 51 47 30 26 32 39 12 -11 rcurveline
            -39 -71 -19 -120 -9 -52 -33 -107 rlinecurve
            -8 -7 -17 -2 -15 2 -57 43 -30 57 -5 64 -25 16 -34 -16 -22 -35 8 -60 51 -80 97 -49 50 -3 64 16 24 33 25 149 38 263 33 159 83 167 307 callgsubr
            -23 -64 -18 -87 -28 -157 rrcurveto
            endchar
          </CharString>
          <CharString index="95">
            22 callsubr
            131 135 rmoveto
            -36 39 -35 43 -32 45 rrcurveto
            25 20 24 15 24 hhcurveto
            28 22 -30 -38 17 hvcurveto
            -13 -24 -8 -24 -2 -19 rrcurveto
            -1 -8 0 -8 -8 vvcurveto
            707 325 -104 callgsubr
            -740 -106 callgsubr
            742 hlineto
            -27 -115 -42 -48 -42 -31 -58 -5 rlinecurve
            -18 9 -21 12 -15 16 205 callsubr
            -18 -10 -14 -14 -13 -14 rrcurveto
            44 -19 -26 42 -48 hhcurveto
            -115 -86 -56 callsubr
            42 49 42 49 42 49 rrcurveto
            -69 15 45 -62 57 -75 callgsubr
          </CharString>
          <CharString index="96">
            hlineto
            -96 callgsubr
            return
          </CharString>
          <CharString index="97">
            -8 callsubr
            endchar
          </CharString>
          <CharString index="98">
            89 11 169 99 49 65 10 -9 rcurveline
            -27 -39 -36 -152 -105 callsubr
            -32 callgsubr
            61 132 rlineto
            115 -104 callsubr
          </CharString>
          <CharString index="99">
            rmoveto
            34 8 36 21 31 vhcurveto
            67 -15 55 -10 83 2 6 -8 rcurveline
            -122 -205 -248 -97 1 -89 rrcurveto
            -17 2 -18 10 -19 vhcurveto
            46 -4 19 7 9 16 -7 17 rcurveline
            4 5 63 4 124 -7 74 -38 rlinecurve
            48 31 34 47 10 45 -3 30 -25 9 -47 -10 -3 -27 -6 -19 -16 -31 -87 15 -81 -5 -66 2 -5 9 rcurveline
            121 101 246 198 8 109 -13 23 -13 10 -49 3 -17 -42 rcurveline
            -84 -2 -77 21 -74 23 -61 -27 -24 -65 -9 -51 12 -23 23 -9 43 10 rrcurveto
            return
          </CharString>
          <CharString index="100">
            -71 callsubr
            -100 -89 -56 callsubr
            -91 callgsubr
            return
          </CharString>
          <CharString index="101">
            13 8 8 14 4 13 return
          </CharString>
          <CharString index="102">
            rmoveto
            -43 callsubr
            162 94 rmoveto
            -27 -20 -20 -27 -25 20 -22 27 26 21 22 25 27 -21 20 -26 hvcurveto
            return
          </CharString>
          <CharString index="103">
            hlineto
            -13 -8 -8 -14 -4 -13 12 -11 rcurveline
            93 48 callgsubr
            return
          </CharString>
          <CharString index="104">
            181 callsubr
            -30 -29 20 -143 rcurveline
            -20 -105 -33 -126 -34 -117 15 -22 25 -6 45 4 20 102 17 102 17 114 51 66 25 31 39 45 13 -5 8 -21 -2 -29 28 -15 27 6 35 26 rrcurveto
            60 -38 50 -55 8 vhcurveto
            -38 -44 -51 -61 -42 -55 rrcurveto
            endchar
          </CharString>
          <CharString index="105">
            168 callgsubr
            rrcurveto
            endchar
          </CharString>
          <CharString index="106">
            170 callsubr
            -9 -29 -20 -58 -23 -66 -92 -57 -104 -67 -92 -72 -2 -20 6 -15 39 -13 63 61 89 64 65 39 -24 -67 -23 -66 -15 -49 14 callsubr
          </CharString>
          <CharString index="107">
            hlineto
            -28 -119 -67 -82 -79 -77 -59 -42 rlinecurve
            -4 3 7 16 6 23 3 17 rlinecurve
            -5 55 -23 48 -42 27 -15 4 -48 -3 -20 -6 return
          </CharString>
          <CharString index="108">
            rrcurveto
            127 61 callgsubr
            return
          </CharString>
          <CharString index="109">
            -262 -94 callgsubr
            return
          </CharString>
          <CharString index="110">
            rrcurveto
            33 6 10 15 16 vvcurveto
            -64 65 -42 65 -12 74 3 15 6 14 12 14 return
          </CharString>
          <CharString index="111">
            619 -104 callgsubr
            return
          </CharString>
          <CharString index="112">
            -42 -18 -23 -53 -7 -39 44 callsubr
            return
          </CharString>
          <CharString index="113">
            rmoveto
            -22 -112 -24 -119 -31 -106 130 callsubr
            14 151 12 123 14 120 37 130 rcurveline
            -24 27 -34 -10 -40 -17 rrcurveto
            return
          </CharString>
          <CharString index="114">
            112 callsubr
            45 1 45 -4 40 -5 rrcurveto
            -5 -23 -3 -22 -23 70 callgsubr
            43 53 43 54 43 53 215 callgsubr
            -57 -40 -173 -107 callgsubr
          </CharString>
          <CharString index="115">
            -75 callsubr
            315 52 50 54 51 52 50 rlinecurve
            36 -11 return
          </CharString>
          <CharString index="116" raw="1">
            f7521d2f 0a0b  
          </CharString>
          <CharString index="117">
            94 callgsubr
            77 22 100 64 45 71 rrcurveto
            return
          </CharString>
          <CharString index="118">
            rmoveto
            -54 -83 7 -11 14 -4 11 1 rlinecurve
            42 38 55 71 7 66 -16 44 -47 24 -42 -34 rrcurveto
            return
          </CharString>
          <CharString index="119">
            rlineto
            -114 -106 callgsubr
            return
          </CharString>
          <CharString index="120">
            rmoveto
            -31 -45 -76 -32 -77 -46 -42 46 -60 67 -46 59 16 35 177 callsubr
            -501 -16 119 callgsubr
            29 62 rcurveline
            42 -52 50 -56 39 -42 -3 -2 rcurveline
            -61 -35 -77 -45 -44 -19 rrcurveto
            687 378 rmoveto
            -773 -84 callsubr
            23 12 34 21 37 24 rrcurveto
            -3 vlineto
            -42 callgsubr
          </CharString>
          <CharString index="121">
            rrcurveto
            -14 callgsubr
          </CharString>
          <CharString index="122">
            41 59 62 60 64 54 -6 39 -22 28 -28 2 -46 -15 -40 -11 -44 -4 -6 9 rcurveline
            51 59 86 71 88 54 rrcurveto
            return
          </CharString>
          <CharString index="123">
            -52 callgsubr
            8 36 16 35 -24 36 -17 32 -12 rrcurveto
            return
          </CharString>
          <CharString index="124">
            rmoveto
            -68 -65 -69 -60 -70 -52 -9 5 rcurveline
            -41 callsubr
            394 46 rmoveto
            -289 -14 callsubr
            315 52 50 54 51 52 50 rlinecurve
            36 -11 14 -28 -41 vvcurveto
            -86 -53 -70 -92 -76 vhcurveto
            31 -30 rlineto
            104 84 84 76 116 vvcurveto
            67 -41 53 -91 -1 vhcurveto
            -49 -50 -50 -49 -49 -50 -6 6 rcurveline
            24 65 61 21 callgsubr
          </CharString>
          <CharString index="125">
            rmoveto
            -470 -106 callgsubr
            248 104 callsubr
            -122 5 -122 -78 -78 vvcurveto
            -81 95 -99 106 -4 vhcurveto
            68 9 86 53 26 27 -3 28 -14 17 -21 1 -33 -36 -58 -50 -51 1 -80 5 -40 62 -16 67 rrcurveto
            65 27 89 48 57 hhcurveto
            20 13 -6 -11 7 hvcurveto
            -62 -45 -71 -22 -33 -10 -26 callsubr
            51 29 36 19 50 42 -2 -18 -6 -20 -13 -21 -1 -14 21 -16 35 10 rrcurveto
            27 42 7 75 34 vvcurveto
            49 -97 33 -70 34 vhcurveto
            2 8 83 9 68 16 55 30 rlinecurve
            20 16 12 20 -1 26 -7 20 -13 16 -18 14 rrcurveto
            141 -104 callsubr
          </CharString>
          <CharString index="126">
            -106 callgsubr
            215 99 callgsubr
            return
          </CharString>
          <CharString index="127">
            45 callgsubr
            329 254 rmoveto
            -175 88 callgsubr
            46 19 -54 -47 -12 hvcurveto
            71 46 -3 51 -28 64 -106 -12 rlinecurve
            -53 callsubr
            181 -104 callsubr
          </CharString>
          <CharString index="128">
            454 rmoveto
            -67 -82 -79 -77 -59 -42 -4 3 rcurveline
            7 16 6 23 3 17 -5 55 -23 48 -42 27 -15 4 -48 -3 -20 -6 return
          </CharString>
          <CharString index="129">
            rmoveto
            79 callgsubr
            -34 -34 -33 -35 -33 -34 rrcurveto
            return
          </CharString>
          <CharString index="130">
            hhcurveto
            -95 -61 -128 -56 -48 32 -34 284 callsubr
            -48 -132 -51 -45 hhcurveto
            -39 -67 71 45 -41 hvcurveto
            5 8 rlineto
            119 176 121 105 22 -10 28 -19 23 hvcurveto
            return
          </CharString>
          <CharString index="131">
            40 116 713 rmoveto
            59 -136 58 -128 51 -146 -9 -71 -19 -122 -32 -91 30 -22 43 -5 22 8 6 113 13 136 25 78 66 83 65 85 65 83 rrcurveto
            33 41 12 43 52 vvcurveto
            -31 23 -31 8 -64 -28 34 -119 rcurveline
            -164 -221 -21 -39 rlineto
            -3 hlineto
            -86 220 -36 170 -22 16 -43 -13 -21 -18 rlinecurve
            return
          </CharString>
          <CharString index="132">
            22 -25 hhcurveto
            -61 -221 -126 -113 -101 hvcurveto
            -26 15 -12 29 -5 vhcurveto
            132 130 85 49 109 34 -47 callgsubr
            return
          </CharString>
          <CharString index="133">
            231 callsubr
            19 15 8 10 1 hvcurveto
            85 -35 -76 158 -56 hhcurveto
            -32 124 callgsubr
            return
          </CharString>
          <CharString index="134">
            rrcurveto
            -11 266 -47 callsubr
            return
          </CharString>
          <CharString index="135">
            0 callgsubr
            718 564 rmoveto
            -852 -106 callgsubr
            603 hlineto
            5 -40 -11 -48 -14 -46 -66 -9 -66 -102 -100 -106 53 callgsubr
            rrcurveto
            131 27 93 138 120 vvcurveto
            46 -21 62 -29 29 vhcurveto
            18 52 14 53 -3 46 rrcurveto
            195 -104 callsubr
          </CharString>
          <CharString index="136">
            -22 callsubr
            -416 -106 callgsubr
            73 -92 callgsubr
            -65 -126 -61 -78 -59 hvcurveto
            -40 7 -47 3 -45 170 callgsubr
            return
          </CharString>
          <CharString index="137">
            rmoveto
            -25 -5 -12 -17 1 -34 122 -37 69 -38 97 -73 15 5 6 8 -2 10 -68 77 -110 71 -93 33 rrcurveto
            return
          </CharString>
          <CharString index="138">
            -6 callsubr
            -12 11 rcurveline
            return
          </CharString>
          <CharString index="139">
            rmoveto
            -113 -24 -88 -94 -48 -80 -11 -31 -6 -32 -2 -32 -6 -107 50 -105 139 -35 65 11 103 54 39 43 2 25 -3 17 -30 -1 -34 -36 -75 -37 -57 -19 -99 41 -22 66 6 100 rrcurveto
            3 71 67 103 97 47 18 2 rcurveline
            37 -29 16 -24 3 -60 22 -13 37 6 26 21 -5 68 -54 72 -77 12 rrcurveto
            endchar
          </CharString>
          <CharString index="140">
            39 -12 17 -18 27 -30 20 2 14 10 4 13 -25 72 -2 35 -3 51 12 10 rcurveline
            37 -9 13 -17 247 callgsubr
            -42 25 -55 8 -30 -5 -17 -19 -20 -26 12 -23 9 -23 10 -27 return
          </CharString>
          <CharString index="141">
            -33 -18 -25 -18 hvcurveto
            1 -35 25 -19 47 -12 return
          </CharString>
          <CharString index="142">
            -49 callgsubr
            25 -12 return
          </CharString>
          <CharString index="143">
            -92 callgsubr
            hvcurveto
            -94 -262 -84 -84 vvcurveto
            return
          </CharString>
          <CharString index="144">
            -101 callgsubr
            -564 213 callsubr
            136 -92 callgsubr
            -48 -68 -45 -67 -44 hvcurveto
            -5 49 -31 56 -100 -11 156 callsubr
            -72 -56 -94 callgsubr
            820 4 callgsubr
            -473 -98 callgsubr
            return
          </CharString>
          <CharString index="145">
            rmoveto
            42 38 55 71 7 66 -16 44 -47 24 -42 -34 23 -112 rcurveline
            -54 -83 7 -11 14 -4 11 1 rlinecurve
            return
          </CharString>
          <CharString index="146">
            261 callgsubr
            95 74 88 76 vhcurveto
            14 -11 -39 -72 -49 -206 -107 callgsubr
          </CharString>
          <CharString index="147">
            -28 callgsubr
            -16 -69 -85 -89 -108 -70 -104 -43 rlinecurve
            65 callgsubr
            51 return
          </CharString>
          <CharString index="148">
            rmoveto
            -56 -53 -57 -55 -63 -62 rrcurveto
            -44 26 -12 34 49 vvcurveto
            138 69 313 callsubr
            47 vhcurveto
            44 -30 15 -30 21 -43 rrcurveto
            return
          </CharString>
          <CharString index="149">
            -18 9 -21 12 -15 16 -27 2 -30 -35 -8 -38 18 -6 27 -13 -3 -22 -4 -41 -58 -68 -64 -17 rrcurveto
            71 callsubr
            -31 callgsubr
            return
          </CharString>
          <CharString index="150">
            44 102 -22 36 -32 14 -29 -3 -21 -25 return
          </CharString>
          <CharString index="151">
            25 -91 55 -79 68 -67 3 callsubr
            return
          </CharString>
          <CharString index="152">
            25 32 rlinecurve
            33 -3 17 -25 -38 vvcurveto
            -84 -36 -81 -90 -83 vhcurveto
            return
          </CharString>
          <CharString index="153">
            91 189 355 rmoveto
            2 1 vlineto
            192 2 23 19 -13 29 -19 8 rlinecurve
            -175 -17 16 75 22 96 21 97 rlinecurve
            170 14 90 -123 4 -155 2 -127 -47 -98 -119 -85 rrcurveto
            -19 -76 -60 -2 -71 hhcurveto
            11 591 rmoveto
            -2 -163 -6 -37 -7 -33 -7 -32 rlinecurve
            -109 8 -19 -11 1 -31 27 -18 rlinecurve
            91 7 -22 -95 -24 -83 -34 -112 43 callgsubr
          </CharString>
          <CharString index="154">
            -98 -58 -125 -98 107 callgsubr
            return
          </CharString>
          <CharString index="155">
            rmoveto
            -1 22 -55 22 -44 -12 -30 -78 rcurveline
            -62 -93 rlineto
            -11 2 11 -6 20 hhcurveto
            return
          </CharString>
          <CharString index="156">
            rmoveto
            -138 -15 -152 5 -21 -26 -4 -19 14 -14 rlinecurve
            286 8 26 29 5 23 -16 9 rlinecurve
            return
          </CharString>
          <CharString index="157">
            19 27 8 24 -5 19 return
          </CharString>
          <CharString index="158">
            -84 callsubr
            24 return
          </CharString>
          <CharString index="159">
            285 callsubr
            22 callgsubr
            return
          </CharString>
          <CharString index="160">
            76 callsubr
            22 return
          </CharString>
          <CharString index="161">
            -106 callgsubr
            434 26 callgsubr
            14 -107 -7 -94 -18 -68 callsubr
            62 22 85 9 77 -3 -4 -9 -3 -9 -3 -9 -92 callsubr
            return
          </CharString>
          <CharString index="162">
            109 -22 -9 callsubr
          </CharString>
          <CharString index="163">
            -106 callgsubr
            501 -95 callgsubr
            -16 -1 -12 -6 -10 -8 -117 21 -169 -26 -71 -50 142 callgsubr
            rrcurveto
            58 11 61 0 55 -6 -4 -8 -3 -8 -2 -8 -92 callsubr
            return
          </CharString>
          <CharString index="164">
            -94 callgsubr
            450 200 callsubr
            return
          </CharString>
          <CharString index="165">
            rmoveto
            -267 -439 14 -19 23 -5 31 6 rlinecurve
            502 889 -12 19 -29 7 -35 -4 rlinecurve
            return
          </CharString>
          <CharString index="166">
            -45 callsubr
            rlinecurve
            return
          </CharString>
          <CharString index="167">
            -52 -33 -79 callgsubr
            return
          </CharString>
          <CharString index="168">
            -96 callsubr
            10 -18 46 -22 24 3 return
          </CharString>
          <CharString index="169">
            162 callsubr
            220 callsubr
            hvcurveto
            return
          </CharString>
          <CharString index="170">
            39 -12 17 -18 27 -30 rrcurveto
            21 14 7 18 3 hvcurveto
            71 -23 -80 165 -66 hhcurveto
            -36 34 callsubr
            return
          </CharString>
          <CharString index="171">
            rmoveto
            -7 -165 -31 -184 -27 -115 -46 -176 rlinecurve
            18 -28 36 -6 41 4 17 147 18 129 12 113 65 286 rcurveline
            201 -12 25 23 4 27 -14 12 rlinecurve
            -221 3 -137 -4 -142 -9 -13 -17 -3 -17 24 -24 rrcurveto
            endchar
          </CharString>
          <CharString index="172">
            303 callsubr
            -50 -31 -51 -31 -52 -33 -16 -11 126 callsubr
            233 callgsubr
            13 callgsubr
            -46 -38 -49 -34 -49 -33 14 70 15 71 18 81 -11 16 -40 14 -23 -2 return
          </CharString>
          <CharString index="173">
            -80 callsubr
            253 254 -38 callgsubr
            return
          </CharString>
          <CharString index="174">
            220 -67 callgsubr
            return
          </CharString>
          <CharString index="175">
            192 callgsubr
            193 hlineto
            37 -16 47 -21 24 -33 -2 -4 rcurveline
            -59 -37 -90 -21 -81 -24 -26 -12 -8 -37 4 -34 70 -57 129 -7 73 -49 -1 -5 rcurveline
            -81 -58 -132 -22 -101 -8 -17 -17 10 -27 26 -20 108 12 160 40 63 49 15 12 16 59 -16 23 -68 47 -119 15 -66 40 1 6 rcurveline
            62 29 102 16 67 42 21 18 6 30 -3 16 -17 23 -22 17 -24 15 rrcurveto
            232 -104 callsubr
          </CharString>
          <CharString index="176">
            291 callsubr
            124 54 33 13 -69 -47 -3 hvcurveto
            return
          </CharString>
          <CharString index="177">
            49 717 4 callsubr
            -490 288 callsubr
            -30 -125 -28 -33 -61 -38 -53 -25 rlinecurve
            -6 68 -43 71 -79 74 callgsubr
            249 callgsubr
            248 callgsubr
            rrcurveto
            95 callsubr
            51 23 53 29 39 28 7 -12 rcurveline
            -31 -37 return
          </CharString>
          <CharString index="178">
            -49 23 -18 56 7 62 return
          </CharString>
          <CharString index="179">
            -8 25 -16 12 -21 -4 return
          </CharString>
          <CharString index="180">
            29 41 25 30 20 hvcurveto
            32 -7 -32 37 -24 hhcurveto
            -33 -4 -37 -42 -3 -36 rrcurveto
            -25 4 20 -17 22 hhcurveto
            return
          </CharString>
          <CharString index="181">
            rmoveto
            -289 -98 callgsubr
            return
          </CharString>
          <CharString index="182">
            142 callsubr
            276 callsubr
            return
          </CharString>
          <CharString index="183">
            rmoveto
            -27 7 -20 13 -17 return
          </CharString>
          <CharString index="184">
            -105 callsubr
            -32 callgsubr
            61 132 rlineto
            105 -104 callsubr
          </CharString>
          <CharString index="185">
            rmoveto
            -19 -25 14 16 18 101 55 125 69 hvcurveto
            5 -10 3 -10 -8 vvcurveto
            -71 -143 -73 -47 vhcurveto
            return
          </CharString>
          <CharString index="186">
            -4 callgsubr
            -3 return
          </CharString>
          <CharString index="187">
            rmoveto
            -27 -183 -26 -127 -51 -199 130 callsubr
            25 212 19 162 23 206 58 224 rcurveline
            -33 18 -27 -8 -44 -27 rrcurveto
            endchar
          </CharString>
          <CharString index="188">
            hlineto
            84 callsubr
            return
          </CharString>
          <CharString index="189">
            200 callgsubr
            43 -28 26 -34 -1 -4 rcurveline
            -41 -29 -141 -33 -41 -17 263 callgsubr
            178 0 19 -51 rrcurveto
            -8 vlineto
            -28 -14 -62 -48 -48 279 callsubr
            -98 46 -78 rrcurveto
            24 3 25 13 18 vvcurveto
            -52 77 -68 81 -47 52 5 5 rcurveline
            -32 34 51 -17 45 hhcurveto
            78 110 80 62 10 -3 15 -7 13 hvcurveto
            return
          </CharString>
          <CharString index="190">
            27 49 13 68 2 23 -4 18 rlinecurve
            -42 6 -26 -8 return
          </CharString>
          <CharString index="191">
            -98 callsubr
            -76 -172 -70 -65 -68 hvcurveto
            -84 37 -102 15 -86 -30 return
          </CharString>
          <CharString index="192">
            -106 callgsubr
            160 hlineto
            14 -90 -4 -51 -7 -61 -11 -58 rlinecurve
            -49 -10 -46 -11 -40 -10 -16 -11 126 callsubr
            29 -53 54 -36 55 274 callgsubr
            30 7 39 7 43 return
          </CharString>
          <CharString index="193">
            123 -18 -37 -62 -75 -48 -66 -5 rlinecurve
            return
          </CharString>
          <CharString index="194">
            rmoveto
            -43 9 -37 -13 -10 -36 86 -88 rcurveline
            51 -73 19 -2 12 5 3 11 rlinecurve
            return
          </CharString>
          <CharString index="195">
            -37 callgsubr
            260 182 callsubr
            return
          </CharString>
          <CharString index="196">
            -106 callgsubr
            433 -81 callsubr
            -11 10 -103 9 -107 -7 -95 217 callgsubr
            77 19 68 9 78 -1 257 callgsubr
            -9 72 return
          </CharString>
          <CharString index="197">
            135 callgsubr
            -91 callgsubr
            297 42 50 61 66 25 32 rlinecurve
            32 19 -26 -32 5 hvcurveto
            -23 -42 -13 -49 -48 70 callgsubr
            43 53 43 54 43 53 215 callgsubr
            -57 -40 -173 -107 callgsubr
          </CharString>
          <CharString index="198">
            143 callsubr
            -54 -54 -92 -44 -67 -43 return
          </CharString>
          <CharString index="199">
            rmoveto
            -134 -92 1 9 75 325 rlineto
            6 -13 -11 3 -12 hhcurveto
            -20 -21 301 callsubr
            -15 -213 -31 -195 -23 -85 -45 -186 rlinecurve
            130 callsubr
            13 127 19 122 11 95 20 16 rcurveline
            62 -150 99 -147 114 -63 39 15 19 25 -13 36 -151 62 -82 125 -46 249 callsubr
            81 164 151 63 75 -8 28 -12 15 -36 5 rrcurveto
            endchar
          </CharString>
          <CharString index="200">
            rmoveto
            -12 -53 -74 -58 -76 -9 -25 8 -23 14 -16 16 rrcurveto
            -17 16 -10 13 19 vvcurveto
            37 71 34 72 41 vhcurveto
            43 -21 46 -28 21 -29 rrcurveto
            return
          </CharString>
          <CharString index="201">
            -15 callsubr
            -12 -11 3 -46 12 -19 220 callgsubr
            return
          </CharString>
          <CharString index="202">
            -13 7 -18 -2 -24 -15 14 -75 46 -62 36 -3 92 -5 95 85 22 100 return
          </CharString>
          <CharString index="203">
            -106 callgsubr
            294 -28 callsubr
            34 -9 76 -31 18 266 callsubr
            -153 -107 -87 -96 -81 89 -100 123 -11 hvcurveto
            84 8 62 32 46 36 -3 28 -14 17 -21 1 -49 -35 -35 -28 -70 -14 -74 9 -67 81 -6 60 13 72 92 61 110 12 7 -5 7 -7 5 -9 return
          </CharString>
          <CharString index="204">
            482 rmoveto
            -54 -54 -92 -44 -67 -43 -4 -2 rcurveline
            -62 143 callgsubr
            229 125 callsubr
            rrcurveto
            return
          </CharString>
          <CharString index="205">
            -32 -61 -41 -37 -63 -10 -44 33 -27 64 -11 71 -27 10 -22 -10 -20 -29 rrcurveto
            -76 23 69 -102 53 hhcurveto
            return
          </CharString>
          <CharString index="206">
            rmoveto
            111 callgsubr
            220 -19 callgsubr
            return
          </CharString>
          <CharString index="207">
            259 571 rmoveto
            39 20 15 14 1 22 rrcurveto
            63 1 -62 54 -53 hhcurveto
            -52 -44 -37 -50 -25 hvcurveto
            12 -19 25 -27 15 -11 9 2 10 3 6 10 -19 36 rcurveline
            19 16 21 13 28 hhcurveto
            26 20 -17 -36 6 hvcurveto
            -93 -72 -8 -36 65 -25 27 -16 11 -28 rlinecurve
            -46 -43 -59 -22 -99 -23 -3 -10 5 -20 11 -9 128 14 116 49 6 62 6 52 -55 28 -56 16 rrcurveto
            return
          </CharString>
          <CharString index="208">
            41 59 67 65 64 54 -42 callsubr
            return
          </CharString>
          <CharString index="209">
            rmoveto
            -636 -106 callgsubr
            303 -28 callsubr
            26 -9 76 -33 34 266 callsubr
            -177 -23 -95 -138 -82 vvcurveto
            -79 100 -147 119 -28 vhcurveto
            101 16 121 47 57 55 -3 28 -14 17 -21 1 -34 -41 -131 -68 -76 -5 -80 33 -59 89 -15 82 return
          </CharString>
          <CharString index="210">
            1 -23 6 -25 11 -23 15 rrcurveto
            77 46 63 72 61 vvcurveto
            22 -10 28 -19 23 vhcurveto
            return
          </CharString>
          <CharString index="211">
            -28 callsubr
            262 callsubr
            return
          </CharString>
          <CharString index="212">
            1 30 -51 45 -53 4 -61 -42 -43 -30 -62 -47 -18 17 -12 20 -2 19 1 47 201 70 55 67 15 19 2 14 -5 14 return
          </CharString>
          <CharString index="213">
            rmoveto
            -40 -43 -41 -41 -40 -42 -24 12 -12 27 -1 31 rrcurveto
            77 52 76 50 26 22 -32 -36 15 vhcurveto
            return
          </CharString>
          <CharString index="214">
            -77 -34 -14 -6 -15 -6 -15 -5 -9 -29 13 -29 22 -11 rrcurveto
            return
          </CharString>
          <CharString index="215">
            217 callsubr
            -48 -46 -8 hvcurveto
            -34 -26 -25 -25 -26 vvcurveto
            -49 89 -74 53 65 112 82 89 75 vhcurveto
            11 -9 -39 -72 -52 -218 -107 callgsubr
          </CharString>
          <CharString index="216">
            rmoveto
            25 35 35 210 20 122 1 80 rlinecurve
            -42 5 -26 -7 -29 -27 10 -190 rcurveline
            -27 -175 -36 -206 -55 -187 15 -22 25 -6 46 4 15 89 13 74 14 74 66 -96 96 -91 88 -50 39 16 21 26 -14 25 -132 60 -92 86 -52 100 87 73 107 48 90 36 rrcurveto
            14 32 -11 32 -33 6 -106 -55 -77 -52 -91 -77 rrcurveto
            endchar
          </CharString>
          <CharString index="217">
            48 3 53 17 37 11 4 -5 rcurveline
            -60 -42 -59 return
          </CharString>
          <CharString index="218">
            25 65 60 132 rlineto
            return
          </CharString>
          <CharString index="219">
            276 callsubr
            -3 -16 -8 -35 -9 -40 rlinecurve
            -59 -6 -54 -14 34 callgsubr
            33 10 45 11 49 return
          </CharString>
          <CharString index="220">
            508 -46 callgsubr
            return
          </CharString>
          <CharString index="221">
            -21 6 25 -8 30 hhcurveto
            42 return
          </CharString>
          <CharString index="222">
            rmoveto
            52 45 29 36 46 vvcurveto
            62 -46 78 -54 -45 -46 -37 -50 -24 vhcurveto
            12 -19 27 -33 15 -11 9 1 8 2 5 10 -17 39 rcurveline
            23 19 21 12 23 hhcurveto
            25 15 -15 -43 9 hvcurveto
            -22 -41 -28 -32 -37 -33 -142 -126 rcurveline
            -1 -23 20 -34 16 -9 37 10 rcurveline
            150 -11 15 11 6 38 -5 14 rlinecurve
            -157 -7 -3 3 rlineto
            return
          </CharString>
          <CharString index="223">
            82 callgsubr
            67 143 rcurveline
            return
          </CharString>
          <CharString index="224">
            -92 callgsubr
            -55 -90 -52 -74 -50 hvcurveto
            -55 -35 -56 -13 -49 13 -18 9 -21 12 -15 16 227 callgsubr
            rrcurveto
            72 callsubr
            return
          </CharString>
          <CharString index="225">
            -37 callsubr
            488 392 rmoveto
            return
          </CharString>
          <CharString index="226">
            rmoveto
            -31 -62 -46 -38 -64 -8 -44 33 -39 64 -5 71 -27 10 -22 -10 -20 -29 rrcurveto
            -81 19 79 -97 58 hhcurveto
            72 87 53 60 273 callsubr
          </CharString>
          <CharString index="227">
            rmoveto
            27 22 22 27 28 -22 22 -27 -28 -22 -22 -28 -27 22 -22 28 hvcurveto
            return
          </CharString>
          <CharString index="228">
            -58 -73 rrcurveto
            -34 35 -30 return
          </CharString>
          <CharString index="229">
            -56 8 rlinecurve
            -22 16 -18 12 -17 17 152 callgsubr
            32 -12 22 -2 return
          </CharString>
          <CharString index="230">
            -533 -106 callgsubr
            return
          </CharString>
          <CharString index="231">
            121 callsubr
            40 -14 vhcurveto
            return
          </CharString>
          <CharString index="232">
            hlineto
            45 -27 44 -26 17 -31 return
          </CharString>
          <CharString index="233">
            -7 -22 -1 -19 return
          </CharString>
          <CharString index="234">
            rmoveto
            -296 -98 callgsubr
            return
          </CharString>
          <CharString index="235">
            hlineto
            125 callgsubr
            return
          </CharString>
          <CharString index="236">
            rmoveto
            25 -10 11 -8 6 -18 -24 -33 -59 -37 -56 -12 -13 4 -13 5 -12 7 50 39 48 36 37 27 rrcurveto
            return
          </CharString>
          <CharString index="237">
            17 -29 37 -6 41 4 return
          </CharString>
          <CharString index="238">
            191 callgsubr
            -42 -36 -45 -61 -37 vhcurveto
            -33 34 -23 43 39 vvcurveto
            522 88 -104 callgsubr
            -130 hlineto
            38 -21 -36 32 -48 hhcurveto
            -72 -97 -88 -67 -51 33 -54 44 -44 hvcurveto
            -52 -23 -62 -20 -68 -12 -14 -18 4 -19 34 -21 return
          </CharString>
          <CharString index="239">
            -25 callgsubr
            rlineto
            return
          </CharString>
          <CharString index="240">
            -105 callsubr
            65 400 49 107 -21 23 -29 11 -34 2 rlinecurve
            -46 -38 -49 -34 -49 -33 14 70 15 71 18 81 151 callgsubr
            return
          </CharString>
          <CharString index="241">
            19 28 52 44 124 54 return
          </CharString>
          <CharString index="242">
            -38 callgsubr
            -293 -106 callgsubr
            296 hlineto
            -32 -150 -6 callgsubr
            -68 -59 -47 -65 -37 hvcurveto
            -85 -61 -110 -96 -65 31 callgsubr
            53 -3 -48 65 -56 hhcurveto
            return
          </CharString>
          <CharString index="243">
            67 -74 175 1 22 -52 -13 callgsubr
            return
          </CharString>
          <CharString index="244">
            47 42 62 81 8 74 -18 50 -53 27 -47 -39 26 -126 rcurveline
            -61 -94 8 -12 15 -4 13 1 rlinecurve
            return
          </CharString>
          <CharString index="245">
            683 rmoveto
            191 callsubr
            138 callgsubr
            10 -101 rmoveto
            55 51 52 49 19 hvcurveto
            56 19 -26 44 -55 hhcurveto
            -56 -50 -52 -48 -19 hvcurveto
            -57 -19 26 -44 55 hhcurveto
            return
          </CharString>
          <CharString index="246">
            hlineto
            39 -22 35 -24 18 -29 -2 -9 rcurveline
            -33 -47 -82 -33 -81 -50 return
          </CharString>
          <CharString index="247">
            -19 2 -16 5 -17 9 rrcurveto
            78 46 64 72 62 vvcurveto
            22 -10 28 -19 23 vhcurveto
            return
          </CharString>
          <CharString index="248">
            rmoveto
            -56 -50 -52 -48 -19 hvcurveto
            -57 -19 26 -44 55 hhcurveto
            55 51 52 49 19 hvcurveto
            56 19 -26 44 -55 hhcurveto
            -17 -30 rmoveto
            138 callgsubr
            191 callsubr
            return
          </CharString>
          <CharString index="249">
            151 callgsubr
            -43 -45 -87 -69 -46 -28 76 callgsubr
            return
          </CharString>
          <CharString index="250">
            125 callsubr
            -1 -7 rcurveline
            return
          </CharString>
          <CharString index="251">
            75 callgsubr
            -82 -69 -68 -85 -32 hvcurveto
            -41 7 -46 3 -46 170 callgsubr
            return
          </CharString>
          <CharString index="252">
            -57 callgsubr
            endchar
          </CharString>
          <CharString index="253">
            -41 -47 18 vhcurveto
            return
          </CharString>
          <CharString index="254">
            vvcurveto
            -17 5 -17 8 -16 vhcurveto
            -12 4 rlineto
            -81 -29 -50 -57 -64 vvcurveto
            -81 94 -64 114 19 vhcurveto
            return
          </CharString>
          <CharString index="255">
            262 callgsubr
            111 callsubr
            return
          </CharString>
          <CharString index="256">
            274 callgsubr
            32 8 38 8 43 return
          </CharString>
          <CharString index="257">
            -34 -34 -33 -35 -33 -34 rrcurveto
            return
          </CharString>
          <CharString index="258">
            -96 callsubr
            5 -18 45 -22 30 3 return
          </CharString>
          <CharString index="259">
            -40 callsubr
            92 29 141 94 85 85 10 -11 rcurveline
            -34 -42 -54 -233 -107 callgsubr
          </CharString>
          <CharString index="260">
            458 -29 callsubr
            return
          </CharString>
          <CharString index="261">
            166 callsubr
            -82 72 -110 109 -22 return
          </CharString>
          <CharString index="262">
            51 callsubr
            17 28 21 return
          </CharString>
          <CharString index="263">
            -29 -35 -40 -47 -36 -44 rrcurveto
            return
          </CharString>
          <CharString index="264">
            -66 callgsubr
            64 17 130 47 85 48 6 -8 rcurveline
            -23 -28 -74 -314 -107 callgsubr
          </CharString>
          <CharString index="265">
            256 callsubr
            39 12 39 19 33 vhcurveto
            32 -43 40 -47 33 -34 -29 -28 -29 -28 -29 -28 rrcurveto
            118 114 rmoveto
            -38 41 -36 45 -34 47 rrcurveto
            22 20 22 13 20 hhcurveto
            31 37 -78 -50 20 hvcurveto
            -6 -4 -5 -5 -4 -5 rrcurveto
            return
          </CharString>
          <CharString index="266">
            rmoveto
            26 29 5 23 -16 9 -138 -15 rcurveline
            -152 5 -21 -26 -4 -19 14 -14 rlinecurve
            return
          </CharString>
          <CharString index="267">
            11 62 12 61 11 62 return
          </CharString>
          <CharString index="268">
            2 -14 20 -14 31 9 rrcurveto
            53 86 26 121 39 vvcurveto
            72 -123 34 -153 79 vhcurveto
            2 8 83 9 68 16 55 30 rlinecurve
            20 16 12 20 -1 26 -7 20 -13 16 -18 14 rrcurveto
            252 -104 callsubr
          </CharString>
          <CharString index="269">
            -104 callgsubr
            -51 -106 callgsubr
            53 hlineto
            -36 -155 rlineto
            -90 -55 -128 -117 -71 31 callgsubr
            53 -3 -48 65 -56 hhcurveto
            return
          </CharString>
          <CharString index="270">
            -94 callgsubr
            734 254 -38 callgsubr
            -388 -98 callgsubr
            return
          </CharString>
          <CharString index="271">
            rmoveto
            -23 -19 -19 -23 -23 19 -19 23 23 19 19 23 23 -19 19 -23 hvcurveto
            173 return
          </CharString>
          <CharString index="272">
            15 10 18 50 -15 21 -63 39 -111 11 -59 35 1 4 rcurveline
            59 24 98 13 64 36 20 15 9 26 -3 13 return
          </CharString>
          <CharString index="273">
            -13 -8 -8 -14 -4 -13 12 -11 rcurveline
            140 -81 callsubr
            -11 10 -40 -3 -19 -33 -11 -37 rlinecurve
            72 return
          </CharString>
          <CharString index="274">
            16 -25 195 callgsubr
            -61 68 -52 90 -19 vhcurveto
            97 7 124 64 4 103 -16 40 -59 37 -50 21 218 callsubr
            21 return
          </CharString>
          <CharString index="275">
            -54 -94 callgsubr
            return
          </CharString>
          <CharString index="276">
            -15 9 -22 16 -18 18 rrcurveto
            75 46 63 71 61 vvcurveto
            22 -10 28 -19 23 vhcurveto
            return
          </CharString>
          <CharString index="277">
            -79 97 -75 105 -17 vhcurveto
            234 callsubr
            return
          </CharString>
          <CharString index="278">
            -52 -46 -60 -50 -47 -36 rrcurveto
            return
          </CharString>
          <CharString index="279">
            316 -80 callsubr
            -586 93 -29 callsubr
            return
          </CharString>
          <CharString index="280">
            rmoveto
            23 -53 25 -67 23 -77 rrcurveto
            24 8 5 13 4 hvcurveto
            -25 61 -16 54 -5 59 12 10 rcurveline
            35 -7 30 -24 18 -26 37 9 16 18 -2 22 -23 30 -49 29 -47 8 -53 -8 -15 -21 -20 -35 rrcurveto
            endchar
          </CharString>
          <CharString index="281">
            -104 callgsubr
            -436 210 callsubr
            return
          </CharString>
          <CharString index="282">
            154 270 callgsubr
            33 10 33 15 29 vhcurveto
            30 -40 36 -42 30 -31 rrcurveto
            return
          </CharString>
          <CharString index="283">
            192 callsubr
            47 -5 49 -17 43 return
          </CharString>
          <CharString index="284">
            rcurveline
            226 hlineto
            39 -22 35 -24 18 -29 rrcurveto
            82 -236 -27 callsubr
            return
          </CharString>
          <CharString index="285">
            856 rmoveto
            245 callgsubr
            268 callgsubr
            rrcurveto
            return
          </CharString>
          <CharString index="286">
            171 190 callsubr
            return
          </CharString>
          <CharString index="287">
            250 83 callgsubr
            return
          </CharString>
          <CharString index="288">
            rmoveto
            83 callsubr
            return
          </CharString>
          <CharString index="289">
            254 295 callsubr
            return
          </CharString>
          <CharString index="290">
            hhcurveto
            -114 -88 -132 -124 102 callgsubr
            hvcurveto
            return
          </CharString>
          <CharString index="291">
            26 47 rcurveline
            57 -36 54 -37 57 -64 -88 -81 -117 -80 -140 -54 247 callsubr
            125 61 136 96 236 callsubr
            -36 -153 -105 callsubr
            return
          </CharString>
          <CharString index="292">
            117 153 callsubr
            return
          </CharString>
          <CharString index="293">
            138 190 103 callgsubr
            return
          </CharString>
          <CharString index="294">
            hlineto
            49 -31 34 -21 19 -35 -4 -11 rcurveline
            return
          </CharString>
          <CharString index="295">
            33 -35 150 callsubr
            return
          </CharString>
          <CharString index="296">
            229 callgsubr
            18 164 17 130 13 126 rrcurveto
            endchar
          </CharString>
          <CharString index="297">
            523 -15 callgsubr
            return
          </CharString>
          <CharString index="298">
            7 22 10 22 11 15 rrcurveto
            5 10 9 6 9 hhcurveto
            return
          </CharString>
          <CharString index="299">
            -62 callgsubr
            2 return
          </CharString>
          <CharString index="300">
            -81 -65 188 callgsubr
            return
          </CharString>
          <CharString index="301">
            hhcurveto
            -36 158 callgsubr
            return
          </CharString>
          <CharString index="302" raw="1">
            e10af7bf 0a0b  
          </CharString>
          <CharString index="303">
            -300 113 368 6 callsubr
            return
          </CharString>
          <CharString index="304">
            -294 rmoveto
            -22 10 -18 15 -17 21 27 8 28 8 28 7 -5 -22 -6 -21 -6 -19 rrcurveto
            return
          </CharString>
          <CharString index="305">
            -5 25 8 23 11 14 14 15 67 13 61 13 60 50 34 48 33 47 35 8 -4 rcurveline
            return
          </CharString>
          <CharString index="306">
            -79 -80 7 -13 14 -7 13 -3 rlinecurve
            54 33 76 67 23 71 return
          </CharString>
          <CharString index="307">
            254 127 callsubr
            return
          </CharString>
          <CharString index="308">
            -42 -43 -53 -54 -48 -49 return
          </CharString>
          <CharString index="309">
            163 callgsubr
            36 -16 36 -24 14 -23 -1 -6 rcurveline
            -43 -43 -81 -36 -57 -34 -48 -28 -38 -30 1 -43 1 return
          </CharString>
          <CharString index="310">
            -72 -54 -122 -62 -82 -34 -37 5 -90 30 -19 24 2 6 rcurveline
            27 21 140 26 61 38 56 callgsubr
            return
          </CharString>
          <CharString index="311">
            242 -17 callgsubr
            130 125 rmoveto
            return
          </CharString>
          <CharString index="312">
            227 callgsubr
            72 callsubr
            rrcurveto
            return
          </CharString>
          <CharString index="313">
            rmoveto
            -27 7 -19 12 -16 22 25 13 24 12 23 12 4 -23 0 -22 -5 -26 rrcurveto
            return
          </CharString>
          <CharString index="314" raw="1">
            2f0aac8a b093af9b ae73af7a ab7f080b
          </CharString>
          <CharString index="315">
            -67 callgsubr
            478 392 rmoveto
            -97 -98 callgsubr
            return
          </CharString>
          <CharString index="316">
            46 74 callsubr
            return
          </CharString>
          <CharString index="317">
            hlineto
            -13 -8 -8 -14 -4 -13 12 -11 rcurveline
            93 -92 callgsubr
            return
          </CharString>
          <CharString index="318" raw="1">
            2f0aaa8a af93ae99 a677b77e a1870b
          </CharString>
          <CharString index="319">
            285 callgsubr
            11 -15 12 -15 22 102 65 rcurveline
            -11 -36 -11 -36 -12 -33 rrcurveto
            return
          </CharString>
          <CharString index="320">
            -201 243 callgsubr
            return
          </CharString>
          <CharString index="321">
            -50 -55 -50 -55 return
          </CharString>
          <CharString index="322">
            vvcurveto
            -51 -100 -91 -40 -49 -78 108 87 -25 vhcurveto
            -22 11 -27 -13 -15 -32 35 -95 91 -115 80 -4 rrcurveto
            81 139 121 88 38 -65 return
          </CharString>
          <CharString index="323">
            230 callgsubr
            -56 -108 vvcurveto
            return
          </CharString>
          <CharString index="324">
            221 callsubr
            19 return
          </CharString>
          <CharString index="325">
            17 11 16 12 15 12 11 12 6 14 2 20 -11 return
          </CharString>
          <CharString index="326">
            -2 -1 rlineto
            44 -17 -28 40 -46 hhcurveto
            return
          </CharString>
          <CharString index="327">
            -46 -48 -34 -36 -32 return
          </CharString>
          <CharString index="328">
            -91 callgsubr
            297 42 50 61 66 25 32 rlinecurve
            44 return
          </CharString>
          <CharString index="329">
            hlineto
            8 -100 -3 return
          </CharString>
          <CharString index="330">
            308 callsubr
            -59 -153 -38 -107 121 callgsubr
            139 40 138 44 102 -22 36 -32 14 -29 -3 return
          </CharString>
          <CharString index="331">
            99 577 367 rmoveto
            -247 -15 -249 4 -21 264 callgsubr
            492 7 194 callgsubr
            endchar
          </CharString>
          <CharString index="332">
            -19 26 -11 46 5 return
          </CharString>
          <CharString index="333">
            -46 vvcurveto
            -45 44 -36 69 48 44 18 43 34 256 callgsubr
            -41 -44 -76 -4 -43 32 16 70 48 40 69 18 return
          </CharString>
          <CharString index="334">
            -85 callgsubr
            156 7 139 249 callsubr
            vvcurveto
            82 -50 82 -67 return
          </CharString>
          <CharString index="335">
            31 -11 20 -13 27 -15 22 -15 26 -11 27 -7 return
          </CharString>
          <CharString index="336">
            423 rmoveto
            -2 -1 rlineto
            40 -24 -23 42 -40 hhcurveto
            return
          </CharString>
          <CharString index="337">
            4 -171 78 -167 220 -45 260 24 117 174 31 174 -12 201 -49 149 -250 42 return
          </CharString>
          <CharString index="338">
            rmoveto
            255 callsubr
            return
          </CharString>
          <CharString index="339" raw="1">
            2f0aac8a b1940b  
          </CharString>
          <CharString index="340">
            36 rrcurveto
            -151 -56 -76 -138 -124 vvcurveto
            -106 57 -89 118 -23 vhcurveto
            152 73 55 170 165 vvcurveto
            return
          </CharString>
          <CharString index="341">
            51 63 56 74 29 272 callsubr
            return
          </CharString>
          <CharString index="342">
            8 -100 275 callgsubr
            rlinecurve
            return
          </CharString>
          <CharString index="343">
            61 66 9 -9 rcurveline
            -28 -38 return
          </CharString>
          <CharString index="344">
            -24 23 -30 29 -20 return
          </CharString>
          <CharString index="345">
            -165 56 -65 104 -20 180 24 152 105 155 208 33 212 -57 33 -120 13 -174 return
          </CharString>
          <CharString index="346">
            hmoveto
            73 callsubr
            return
          </CharString>
          <CharString index="347">
            -5 -29 17 -33 47 -10 57 -1 66 18 41 33 rrcurveto
            15 3 -9 31 -24 hhcurveto
            -42 -35 -49 -18 -37 -1 return
          </CharString>
          <CharString index="348">
            rmoveto
            -121 -106 callgsubr
            121 -104 callsubr
          </CharString>
          <CharString index="349">
            540 -104 callgsubr
            return
          </CharString>
          <CharString index="350">
            27 80 199 return
          </CharString>
          <CharString index="351">
            -71 202 55 rmoveto
            -65 28 -34 56 78 vvcurveto
            102 43 97 101 58 vhcurveto
            58 -31 23 -40 28 -53 -10 return
          </CharString>
          <CharString index="352">
            -27 2 -30 -35 -8 -38 18 -6 27 -13 -3 -22 -4 -41 -58 -68 -64 -17 71 callsubr
            return
          </CharString>
          <CharString index="353">
            rmoveto
            -13 -8 -8 -14 -4 -13 12 -11 rcurveline
            return
          </CharString>
          <CharString index="354">
            -11 -21 13 -19 32 -16 return
          </CharString>
          <CharString index="355">
            56 -24 14 -38 -4 -58 return
          </CharString>
          <CharString index="356">
            117 129 return
          </CharString>
          <CharString index="357">
            -36 -1 -36 hhcurveto
            -15 5 -15 6 -15 8 rrcurveto
            76 47 63 71 61 vvcurveto
            22 -10 28 -19 23 vhcurveto
            return
          </CharString>
          <CharString index="358">
            1 -7 rcurveline
            92 callgsubr
            return
          </CharString>
          <CharString index="359">
            hlineto
            46 -29 34 -22 15 -31 rrcurveto
            225 128 rmoveto
            return
          </CharString>
          <CharString index="360">
            -106 callgsubr
            536 hlineto
            return
          </CharString>
          <CharString index="361">
            -25 -19 -19 -25 271 callsubr
            return
          </CharString>
          <CharString index="362">
            46 -55 25 -45 38 -82 rrcurveto
            return
          </CharString>
          <CharString index="363">
            rmoveto
            -33 16 -16 39 42 vvcurveto
            return
          </CharString>
          <CharString index="364">
            6 -7 -13 -27 return
          </CharString>
          <CharString index="365">
            -4 1 -21 32 -29 19 -58 24 rlinecurve
            160 callgsubr
            return
          </CharString>
          <CharString index="366">
            -104 callgsubr
            -435 hlineto
            38 -19 -35 32 -40 hhcurveto
            return
          </CharString>
          <CharString index="367">
            hhcurveto
            -94 -88 -102 -114 -86 51 -45 90 -5 hvcurveto
            return
          </CharString>
          <CharString index="368">
            -563 -106 callgsubr
            return
          </CharString>
          <CharString index="369">
            36 -9 70 -33 16 266 callsubr
            return
          </CharString>
          <CharString index="370">
            151 256 callsubr
            return
          </CharString>
          <CharString index="371">
            39 192 278 callgsubr
            return
          </CharString>
          <CharString index="372">
            rmoveto
            -22 11 -19 13 -14 22 39 12 36 14 29 14 -12 -32 -13 -27 -14 -22 rrcurveto
            return
          </CharString>
          <CharString index="373">
            -11 -3 -6 rcurveline
            return
          </CharString>
          <CharString index="374">
            rmoveto
            29 54 24 129 57 228 -34 18 -27 -8 -44 -27 rlinecurve
            -18 -247 return
          </CharString>
          <CharString index="375">
            -32 3 28 -37 24 hhcurveto
            34 4 41 42 7 36 rrcurveto
            25 -2 -17 17 -23 hhcurveto
            return
          </CharString>
          <CharString index="376">
            32 -3 -28 37 -24 hhcurveto
            -34 -4 -41 -42 -7 -36 rrcurveto
            -25 2 17 -17 23 hhcurveto
            return
          </CharString>
          <CharString index="377">
            -97 -53 -118 -39 -90 -13 return
          </CharString>
          <CharString index="378">
            -23 19 -20 25 return
          </CharString>
          <CharString index="379">
            36 5 -3 rcurveline
            return
          </CharString>
          <CharString index="380">
            35 hvcurveto
            237 callgsubr
            rrcurveto
            endchar
          </CharString>
          <CharString index="381">
            119 callgsubr
            28 return
          </CharString>
          <CharString index="382">
            -25 -47 -29 -39 -16 hvcurveto
            return
          </CharString>
          <CharString index="383">
            78 34 257 callsubr
            return
          </CharString>
          <CharString index="384">
            1 callsubr
            -131 hlineto
            52 return
          </CharString>
          <CharString index="385">
            hlineto
            33 -21 46 -29 22 -34 -2 -4 rcurveline
            -47 -28 -134 -34 -39 -16 return
          </CharString>
          <CharString index="386">
            hhcurveto
            -52 -42 25 34 -25 hvcurveto
            -35 10 -37 -42 -17 -36 66 -71 79 return
          </CharString>
          <CharString index="387">
            rmoveto
            -45 -17 -46 -51 291 callsubr
            124 54 return
          </CharString>
          <CharString index="388">
            499 380 rmoveto
            -20 -29 -33 -8 -36 hhcurveto
            -25 -27 10 16 return
          </CharString>
          <CharString index="389">
            473 rmoveto
            154 callgsubr
            return
          </CharString>
          <CharString index="390" raw="1">
            196e6863 5c675f0b  
          </CharString>
          <CharString index="391">
            308 callgsubr
            -31 return
          </CharString>
          <CharString index="392">
            -85 -89 -110 return
          </CharString>
          <CharString index="393">
            -1 14 -3 48 -24 47 -39 23 -24 4 -50 -4 -22 -8 return
          </CharString>
          <CharString index="394">
            -3 -8 -2 -7 -6 vvcurveto
            237 callsubr
            vhcurveto
            80 -17 return
          </CharString>
          <CharString index="395">
            -106 callgsubr
            492 hlineto
            return
          </CharString>
          <CharString index="396">
            104 -104 callgsubr
            return
          </CharString>
          <CharString index="397">
            rrcurveto
            199 -104 callsubr
          </CharString>
          <CharString index="398">
            -36 hhcurveto
            300 callgsubr
            return
          </CharString>
          <CharString index="399">
            18 17 20 11 20 hhcurveto
            34 29 return
          </CharString>
          <CharString index="400">
            -106 callgsubr
            123 return
          </CharString>
          <CharString index="401">
            -24 106 -31 66 -116 42 -46 -43 -52 -55 -47 return
          </CharString>
          <CharString index="402">
            rmoveto
            -107 -98 callgsubr
            return
          </CharString>
          <CharString index="403">
            136 246 callsubr
            return
          </CharString>
          <CharString index="404">
            -933 -106 callgsubr
            return
          </CharString>
          <CharString index="405">
            -48 23 -52 33 -51 34 10 10 13 9 15 10 return
          </CharString>
          <CharString index="406">
            -17 -2 -16 2 -15 4 return
          </CharString>
          <CharString index="407">
            -39 38 -41 48 -37 49 return
          </CharString>
          <CharString index="408">
            -8 -17 -28 hvcurveto
            return
          </CharString>
          <CharString index="409">
            rmoveto
            -21 9 -23 12 -18 32 63 22 rcurveline
            8 return
          </CharString>
          <CharString index="410">
            257 callsubr
            -4 -18 -4 -20 -5 -20 rlinecurve
            return
          </CharString>
          <CharString index="411">
            -39 -16 263 callgsubr
            return
          </CharString>
          <CharString index="412">
            12 81 10 89 10 77 rrcurveto
            return
          </CharString>
          <CharString index="413">
            3 15 6 14 12 14 64 return
          </CharString>
          <CharString index="414">
            vhcurveto
            7 23 -15 15 -31 6 return
          </CharString>
          <CharString index="415">
            5 -3 rcurveline
            -21 -68 return
          </CharString>
          <CharString index="416">
            rrcurveto
            6 -13 -11 3 return
          </CharString>
          <CharString index="417">
            hlineto
            235 callsubr
            return
          </CharString>
          <CharString index="418">
            58 219 -24 23 -46 -5 -34 -20 rlinecurve
            return
          </CharString>
          <CharString index="419">
            25 26 -18 19 -26 -25 -19 -19 -26 vhcurveto
            return
          </CharString>
          <CharString index="420">
            126 117 return
          </CharString>
        <CharString name=".notdef">
          223 180 hmoveto
          390 701 -390 hlineto
          54 -50 rmoveto
          282 -601 -282 hlineto
          endchar
        </CharString>
        <CharString name="A">
          96 callgsubr
          endchar
        </CharString>
        <CharString name="AE">
          230 617 731 rmoveto
          -108 -101 -6 -20 -81 hvcurveto
          -119 -277 -43 -67 -114 1 -20 -22 -4 -27 15 -21 rlinecurve
          88 6 -154 -274 12 -22 25 -6 45 4 rlinecurve
          148 303 160 6 -54 -259 rlineto
          -32 28 9 -18 56 hhcurveto
          83 109 13 16 82 hvcurveto
          12 26 8 45 -35 13 -62 -22 -120 -26 -80 -2 rrcurveto
          61 vlineto
          30 181 96 9 28 0 93 -8 rlinecurve
          18 30 2 34 -11 19 -95 -15 -33 -1 -88 -4 15 208 rcurveline
          30 86 61 7 52 3 58 -9 rlinecurve
          55 -49 42 29 16 64 -27 20 rlinecurve
          2 -33 -45 1 -49 hhcurveto
          -247 -87 rmoveto
          8 2 -10 -284 -136 -3 rlineto
          endchar
        </CharString>
        <CharString name="Aacute">
          40 612 940 48 callsubr
          -235 -465 -78 callsubr
          endchar
        </CharString>
        <CharString name="Abreve">
          40 436 799 rmoveto
          69 callgsubr
          -74 21 46 -42 69 hhcurveto
          -218 -480 -78 callsubr
          endchar
        </CharString>
        <CharString name="Acircumflex">
          40 455 903 100 callgsubr
          -111 -473 -78 callsubr
          endchar
        </CharString>
        <CharString name="Adieresis">
          40 502 811 rmoveto
          -43 callsubr
          -162 hmoveto
          -43 callsubr
          -122 -492 -78 callsubr
          endchar
        </CharString>
        <CharString name="Agrave">
          40 417 788 164 callgsubr
          -148 -542 -78 callsubr
          endchar
        </CharString>
        <CharString name="Amacron">
          40 548 821 159 callsubr
          -44 -494 -78 callsubr
          endchar
        </CharString>
        <CharString name="Aogonek">
          40 218 319 rmoveto
          149 325 9 2 11 -319 rlineto
          75 -328 rmoveto
          12 1 -21 284 91 5 22 30 1 30 -16 11 rlinecurve
          -102 -21 -16 211 15 174 -33 10 -47 4 -44 -28 rlinecurve
          -114 -272 -66 -123 -105 -5 -20 -22 -3 -27 16 -21 rlinecurve
          79 12 -122 -228 13 -22 25 -6 45 4 rlinecurve
          121 264 60 9 134 7 1 -255 4 -5 5 -4 5 -4 rlinecurve
          -52 -25 -57 -48 -57 vvcurveto
          -42 60 -38 61 54 45 27 34 32 256 callgsubr
          rrcurveto
          -23 -27 -36 -12 -35 hhcurveto
          -37 -27 15 22 -11 hvcurveto
          11 45 44 51 62 -34 callgsubr
        </CharString>
        <CharString name="Aring">
          96 callgsubr
          -37 525 rmoveto
          -5 -23 -9 -20 -11 -16 rrcurveto
          -6 -9 -8 -6 -15 hhcurveto
          -36 -1 34 37 12 hvcurveto
          191 callsubr
          37 0 -34 -36 -11 hvcurveto
          -9 100 rmoveto
          -56 -50 -52 -48 -19 hvcurveto
          -57 -19 26 -44 55 hhcurveto
          55 51 52 49 19 hvcurveto
          56 19 -26 44 -55 hhcurveto
          endchar
        </CharString>
        <CharString name="Atilde">
          96 callgsubr
          -53 479 175 callgsubr
        </CharString>
        <CharString name="B">
          58 473 546 rmoveto
          -1 -82 -16 -4 -47 -40 -61 -27 -60 -7 -81 1 50 286 rcurveline
          145 12 71 -65 -74 vvcurveto
          -316 -491 rmoveto
          46 282 131 13 60 -16 59 -52 rlinecurve
          5 -16 2 -17 -16 vvcurveto
          -1 -55 -13 -41 -44 -51 -66 -23 -96 -9 -83 1 rrcurveto
          273 313 rmoveto
          88 50 37 37 1 96 rrcurveto
          93 -95 91 -177 -57 -44 -4 -11 -52 vhcurveto
          -12 -18 -1 -28 30 -20 36 8 rcurveline
          -35 -227 -22 -120 -21 -91 -41 -154 rlinecurve
          5 -35 25 -20 52 -15 100 -5 101 6 113 40 rrcurveto
          62 68 18 68 61 vvcurveto
          24 -5 25 -11 23 vhcurveto
          -27 22 -34 19 -35 10 rrcurveto
          endchar
        </CharString>
        <CharString name="C">
          53 416 679 24 callgsubr
        </CharString>
        <CharString name="CR">
          -95 endchar
        </CharString>
        <CharString name="Cacute">
          53 467 972 -30 callsubr
          -51 -293 24 callgsubr
        </CharString>
        <CharString name="Ccaron">
          53 400 792 rmoveto
          125 116 -6 28 -24 9 -34 -10 rlinecurve
          -102 -108 -12 callgsubr
          16 -113 24 callgsubr
        </CharString>
        <CharString name="Ccedilla">
          53 416 679 rmoveto
          37 -42 9 -41 6 -60 30 -11 33 6 33 26 -5 69 -45 87 -83 31 -167 -28 -100 -111 -56 -70 rrcurveto
          -43 -79 -23 -69 -69 vvcurveto
          2 -145 60 -109 170 -55 -51 -109 rcurveline
          -46 callsubr
          50 96 74 36 78 52 34 44 rlinecurve
          2 21 -17 29 -33 -8 -35 -42 -75 -55 -72 -30 rrcurveto
          -122 46 -58 70 141 vvcurveto
          154 130 166 155 39 vhcurveto
          endchar
        </CharString>
        <CharString name="D">
          91 189 355 rmoveto
          16 79 26 115 26 117 170 14 90 -123 4 -155 2 -127 -47 -98 -119 -85 rrcurveto
          -19 -76 -60 -2 -71 hhcurveto
          11 591 rmoveto
          -2 -163 -30 -170 -29 -102 -50 -165 43 callgsubr
        </CharString>
        <CharString name="Dcaron">
          91 465 908 rmoveto
          -6 28 -24 9 -34 -10 -102 -108 rcurveline
          -12 callgsubr
          -151 -437 rmoveto
          16 79 26 115 26 117 170 14 90 -123 4 -155 2 -127 -47 -98 -119 -85 rrcurveto
          -19 -76 -60 -2 -71 hhcurveto
          11 591 rmoveto
          -2 -163 -30 -170 -29 -102 -50 -165 43 callgsubr
        </CharString>
        <CharString name="Dcroat">
          46 callsubr
        </CharString>
        <CharString name="E">
          2 callgsubr
          endchar
        </CharString>
        <CharString name="Eacute">
          -30 443 972 -30 callsubr
          -5 -316 -78 callgsubr
          endchar
        </CharString>
        <CharString name="Ecaron">
          -30 376 792 rmoveto
          125 116 -6 28 -24 9 -34 -10 rlinecurve
          -102 -108 -12 callgsubr
          62 -136 -78 callgsubr
          endchar
        </CharString>
        <CharString name="Ecircumflex">
          -30 230 818 17 callgsubr
          67 -292 -78 callgsubr
          endchar
        </CharString>
        <CharString name="Edieresis">
          -30 271 811 -5 callsubr
          5 -249 -78 callgsubr
          endchar
        </CharString>
        <CharString name="Edotaccent">
          2 callgsubr
          -70 155 rmoveto
          -43 callsubr
          endchar
        </CharString>
        <CharString name="Egrave">
          2 callgsubr
          -137 333 87 callsubr
          endchar
        </CharString>
        <CharString name="Emacron">
          2 callgsubr
          56 226 49 callsubr
          endchar
        </CharString>
        <CharString name="Eogonek">
          -37 162 492 rmoveto
          -28 -158 -40 -129 -53 -139 1 -33 29 -20 47 -13 191 19 rcurveline
          -54 -32 -52 -44 -49 vvcurveto
          -54 63 -38 70 58 46 27 34 27 vhcurveto
          -2 19 -7 7 -18 -1 rrcurveto
          -23 -29 -35 -15 -35 hhcurveto
          -42 -29 15 22 -14 hvcurveto
          4 53 91 70 58 19 18 28 8 46 -30 10 -81 -16 -94 -17 -103 -13 70 265 rcurveline
          71 3 71 -5 72 -5 20 30 2 35 -11 18 -58 -7 -76 -4 -82 -8 29 163 rcurveline
          29 109 73 8 57 -6 44 -7 rlinecurve
          63 -41 35 29 17 64 -27 20 rlinecurve
          -174 2 -103 -4 -114 -11 -11 -11 0 -20 11 -20 17 -1 18 -3 11 -7 rrcurveto
          endchar
        </CharString>
        <CharString name="Eth">
          46 callsubr
        </CharString>
        <CharString name="Euro">
          131 424 265 rmoveto
          24 31 3 23 -15 8 -231 -32 rcurveline
          -1 8 0 8 8 vvcurveto
          23 3 23 5 23 vhcurveto
          226 18 24 31 3 23 -16 9 rlinecurve
          -221 -31 40 99 83 90 95 51 rlinecurve
          15 1 37 -42 14 -21 16 -53 rlinecurve
          36 -9 22 7 27 23 -16 70 -57 60 -75 30 -114 -36 -104 -91 -58 -77 -17 -39 -13 -35 -10 -34 -89 2 rcurveline
          -18 -27 -3 -18 14 -13 84 7 rcurveline
          -4 -22 -2 -22 -21 vvcurveto
          -9 0 -10 1 -9 vhcurveto
          -84 3 -20 -27 -3 -19 15 -13 rlinecurve
          98 8 22 -115 74 -85 161 -42 rlinecurve
          83 35 98 62 39 50 2 21 -18 29 -32 -8 -49 -52 -75 -55 -59 -20 -99 37 -57 54 -18 95 rrcurveto
          endchar
        </CharString>
        <CharString name="F">
          -27 264 662 rmoveto
          73 8 57 -6 44 -7 63 -41 rcurveline
          35 29 17 65 -27 19 -174 2 -103 -4 -114 -11 -11 -11 0 -20 11 -20 17 -1 18 -3 11 -7 -8 -136 rcurveline
          -30 -164 -23 -132 -52 -194 21 -26 47 -7 26 8 13 124 12 94 13 93 71 4 71 -5 73 -5 20 30 2 35 -9 18 -59 -9 -75 -2 -83 -8 24 181 rcurveline
          endchar
        </CharString>
        <CharString name="G">
          89 519 247 -5 callgsubr
          endchar
        </CharString>
        <CharString name="Gbreve">
          89 519 247 -5 callgsubr
          -181 666 rmoveto
          -74 21 46 -42 69 hhcurveto
          69 callgsubr
          endchar
        </CharString>
        <CharString name="H">
          142 561 420 rmoveto
          71 306 rlineto
          6 -13 -11 3 -12 hhcurveto
          -20 -21 301 callsubr
          -15 -213 -5 -32 -5 -28 -5 -27 rlinecurve
          -123 -20 -172 -6 2 17 75 325 rlineto
          6 -13 -11 3 -12 309 callgsubr
          -28 hvcurveto
          -15 -213 -7 -43 -7 -38 -6 -35 rlinecurve
          -61 -2 -21 -22 -4 -27 15 -21 rlinecurve
          58 9 -18 -91 -20 -78 -29 -118 rlinecurve
          18 -29 36 -6 41 4 13 120 17 115 12 93 11 2 rcurveline
          280 21 -21 -106 -21 -81 -32 -133 rlinecurve
          130 callsubr
          14 133 20 126 10 97 74 6 rcurveline
          23 29 2 30 -16 11 rrcurveto
          endchar
        </CharString>
        <CharString name="I">
          -21 callgsubr
          endchar
        </CharString>
        <CharString name="Iacute">
          -21 callgsubr
          141 262 242 callgsubr
        </CharString>
        <CharString name="Icircumflex">
          -21 callgsubr
          -72 108 17 callgsubr
          endchar
        </CharString>
        <CharString name="Idieresis">
          -21 callgsubr
          -31 101 -5 callsubr
          endchar
        </CharString>
        <CharString name="Idotaccent">
          -21 callgsubr
          66 101 rmoveto
          -43 callsubr
          endchar
        </CharString>
        <CharString name="Igrave">
          -21 callgsubr
          -1 279 87 callsubr
          endchar
        </CharString>
        <CharString name="Imacron">
          -21 callgsubr
          192 172 49 callsubr
          endchar
        </CharString>
        <CharString name="Iogonek">
          -302 242 726 rmoveto
          6 -13 -11 3 -12 hhcurveto
          -20 -21 301 callsubr
          -15 -213 -31 -195 -23 -85 -45 -186 rlinecurve
          6 -11 10 -8 11 -5 rrcurveto
          -59 -30 -31 -47 -42 vvcurveto
          -46 39 -40 82 54 45 27 34 32 256 callgsubr
          rrcurveto
          -25 -26 -39 -14 -37 hhcurveto
          -27 -27 8 18 -18 hvcurveto
          1 60 52 43 54 22 16 154 24 145 9 102 rrcurveto
          endchar
        </CharString>
        <CharString name="J">
          5 308 672 rmoveto
          -9 -167 -30 -172 -27 -112 -34 -154 rlinecurve
          -14 -7 -47 43 -33 57 -6 64 rlinecurve
          -26 16 -32 -16 -22 -35 10 -60 53 -80 85 -49 rrcurveto
          45 55 19 41 19 hvcurveto
          14 123 16 109 11 97 67 283 rcurveline
          185 -12 25 23 4 27 -14 11 rlinecurve
          -188 7 -117 -4 -174 -9 -13 -17 -2 -17 24 -24 rrcurveto
          endchar
        </CharString>
        <CharString name="K">
          61 314 484 92 callsubr
        </CharString>
        <CharString name="L">
          -81 137 710 33 callgsubr
        </CharString>
        <CharString name="Lacute">
          -81 257 972 -30 callsubr
          -120 -262 33 callgsubr
        </CharString>
        <CharString name="Lcaron">
          -81 337 602 38 callsubr
          -200 108 33 callgsubr
        </CharString>
        <CharString name="Lslash">
          -26 216 359 rmoveto
          136 32 17 23 -18 27 -19 3 rlinecurve
          -105 -35 70 317 -34 18 -27 -7 -44 -27 rlinecurve
          -13 -213 -7 -38 -7 -37 -8 -36 rlinecurve
          -4 -1 -109 -9 -18 -15 8 -29 30 -13 rlinecurve
          84 23 -22 -97 -24 -89 -35 -93 rlinecurve
          1 -32 29 -19 47 -12 302 31 rcurveline
          17 26 8 43 -29 11 -81 -16 -105 -19 -103 -12 rrcurveto
          endchar
        </CharString>
        <CharString name="M">
          157 501 494 rmoveto
          -147 -232 -56 78 -36 97 -27 170 -9 112 rlinecurve
          11 -9 -15 4 -17 hhcurveto
          -19 -20 -4 -10 -19 hvcurveto
          -15 -223 -31 -195 -23 -85 -45 -186 rlinecurve
          130 callsubr
          16 154 24 145 10 102 30 154 rcurveline
          18 -105 29 -113 62 -112 32 -23 17 -5 43 9 204 351 rcurveline
          -1 -60 -35 -203 -21 -87 -44 -176 rlinecurve
          18 -29 36 -6 42 4 16 154 23 145 10 102 75 325 rcurveline
          7 -12 -13 2 -13 hhcurveto
          -22 -20 -7 -5 -14 hvcurveto
          endchar
        </CharString>
        <CharString name="N">
          99 537 497 -55 callgsubr
        </CharString>
        <CharString name="NULL">
          endchar
        </CharString>
        <CharString name="Nacute">
          99 595 940 48 callsubr
          101 -287 -55 callgsubr
        </CharString>
        <CharString name="Ncaron">
          99 553 908 rmoveto
          -6 28 -24 9 -34 -10 -102 -108 rcurveline
          -12 callgsubr
          109 -295 -55 callgsubr
        </CharString>
        <CharString name="Ntilde">
          99 344 862 rmoveto
          58 callgsubr
          -65 -20 -33 -44 -22 -31 -1 -16 19 -14 25 1 rrcurveto
          245 -294 -55 callgsubr
        </CharString>
        <CharString name="O">
          116 callgsubr
          endchar
        </CharString>
        <CharString name="OE">
          333 507 656 rmoveto
          40 -33 -40 39 -37 hhcurveto
          -160 -184 -218 -220 2 hvcurveto
          -117 1 102 -180 120 hhcurveto
          37 49 27 46 46 hvcurveto
          17 -43 26 -17 42 -13 283 29 rcurveline
          17 28 9 46 -32 10 -94 -17 -93 -17 -88 -6 68 259 rcurveline
          84 2 63 -5 63 -4 19 30 2 35 -12 18 -54 -6 -68 -3 -93 -10 -21 208 rcurveline
          32 49 73 20 65 -3 46 -7 rlinecurve
          63 -41 34 29 17 64 -28 20 rlinecurve
          -184 -83 -10 -62 -76 hvcurveto
          -375 -342 rmoveto
          158 106 140 153 72 vhcurveto
          95 -94 15 -76 8 -141 -18 -126 -68 -122 -142 -73 -105 47 -46 113 2 102 rrcurveto
          endchar
        </CharString>
        <CharString name="Oacute">
          80 500 974 -30 callsubr
          -447 -677 -67 callsubr
          endchar
        </CharString>
        <CharString name="Ocircumflex">
          80 287 820 17 callgsubr
          -375 -653 -67 callsubr
          endchar
        </CharString>
        <CharString name="Odieresis">
          80 328 813 -5 callsubr
          -437 -610 -67 callsubr
          endchar
        </CharString>
        <CharString name="Ograve">
          116 callgsubr
          -157 632 87 callsubr
          endchar
        </CharString>
        <CharString name="Ohungarumlaut">
          80 320 798 113 callgsubr
          -472 -654 -67 callsubr
          endchar
        </CharString>
        <CharString name="Omacron">
          80 551 884 49 callsubr
          -498 -587 -67 callsubr
          endchar
        </CharString>
        <CharString name="Oslash">
          178 530 475 rmoveto
          9 -37 6 -38 5 -41 -46 -131 -61 -98 -136 -78 -51 25 -37 45 -24 51 rrcurveto
          -18 51 rmoveto
          -9 30 -4 30 30 vvcurveto
          158 106 140 153 72 vhcurveto
          44 -43 29 -53 20 -61 rrcurveto
          225 138 rmoveto
          -2 34 -34 25 -46 9 -88 -143 rcurveline
          84 -38 -52 61 -51 hhcurveto
          -161 -184 -218 -220 2 hvcurveto
          1 -38 11 -45 19 -43 -112 -99 rcurveline
          -43 29 -19 46 -10 vhcurveto
          70 110 rlineto
          -62 41 56 -48 62 hhcurveto
          110 202 232 131 -1 hvcurveto
          -1 56 -10 59 -17 53 rrcurveto
          endchar
        </CharString>
        <CharString name="Otilde">
          116 callgsubr
          -141 558 rmoveto
          160 callgsubr
          52 71 rcurveline
          58 callgsubr
          endchar
        </CharString>
        <CharString name="P">
          5 259 673 rmoveto
          147 11 61 -62 2 -87 1 -71 -37 -65 -58 -35 -55 -26 -56 -12 -69 -10 3 30 2 30 2 31 rrcurveto
          -27 260 rmoveto
          -26 -218 -22 -125 -21 -136 -44 -163 rlinecurve
          21 -23 48 -7 26 8 13 91 12 87 9 89 58 3 80 14 73 25 99 54 43 85 -1 88 rrcurveto
          105 -2 -82 91 -177 hhcurveto
          -63 -43 -5 -10 -43 hvcurveto
          -16 -7 -5 -26 15 -25 rrcurveto
          endchar
        </CharString>
        <CharString name="Q">
          103 272 52 rmoveto
          -95 47 -46 113 -1 102 rrcurveto
          158 105 140 154 72 vhcurveto
          80 -78 30 -114 16 -133 -45 -131 -62 -98 -136 -78 rrcurveto
          90 -94 rmoveto
          -33 56 112 52 147 185 -2 112 rlinecurve
          176 -2 -98 196 -91 hhcurveto
          -161 -183 -218 -220 2 hvcurveto
          -117 1 102 -180 119 hhcurveto
          8 hlineto
          101 -161 56 10 20 21 -5 31 rlinecurve
          endchar
        </CharString>
        <CharString name="R">
          41 260 677 -61 callsubr
          endchar
        </CharString>
        <CharString name="Racute">
          41 507 940 48 callsubr
          -88 -107 -61 callsubr
          endchar
        </CharString>
        <CharString name="Rcaron">
          41 465 908 rmoveto
          -6 28 -24 9 -34 -10 -102 -108 rcurveline
          -12 callgsubr
          -80 -115 -61 callsubr
          endchar
        </CharString>
        <CharString name="S">
          38 526 232 rmoveto
          -23 callsubr
          14 -71 102 -98 104 -33 179 33 89 89 17 110 rrcurveto
          endchar
        </CharString>
        <CharString name="Sacute">
          38 466 972 -30 callsubr
          60 -740 rmoveto
          -23 callsubr
          14 -71 102 -98 104 -33 179 33 89 89 17 110 rrcurveto
          endchar
        </CharString>
        <CharString name="Scaron">
          38 399 792 rmoveto
          125 116 -6 28 -24 9 -34 -10 rlinecurve
          -102 -108 -12 callgsubr
          127 -560 rmoveto
          -23 callsubr
          14 -71 102 -98 104 -33 179 33 89 89 17 110 rrcurveto
          endchar
        </CharString>
        <CharString name="T">
          10 291 670 64 callsubr
        </CharString>
        <CharString name="Tcaron">
          10 505 908 rmoveto
          -6 28 -24 9 -34 -10 -102 -108 rcurveline
          -12 callgsubr
          -89 -122 64 callsubr
        </CharString>
        <CharString name="Thorn">
          5 379 278 rmoveto
          -76 -18 -42 -5 -71 10 10 86 12 91 13 81 37 17 52 16 37 -4 70 -20 43 -50 3 -63 1 -57 -36 -38 -53 -46 rrcurveto
          -90 526 rmoveto
          -33 18 -27 -8 -44 -27 -11 -247 rcurveline
          -47 -216 -21 -136 -44 -163 21 -23 48 -7 26 8 8 59 10 80 10 86 66 -23 68 2 89 18 93 67 42 51 -2 80 -2 81 -61 73 -101 28 -45 3 -54 -10 -44 -19 rrcurveto
          endchar
        </CharString>
        <CharString name="U">
          15 callgsubr
          endchar
        </CharString>
        <CharString name="Uacute">
          43 444 972 -30 callsubr
          92 -596 -72 callsubr
          endchar
        </CharString>
        <CharString name="Ucircumflex">
          43 231 818 17 callgsubr
          164 -572 -72 callsubr
          endchar
        </CharString>
        <CharString name="Udieresis">
          43 272 811 -5 callsubr
          102 -529 -72 callsubr
          endchar
        </CharString>
        <CharString name="Ugrave">
          15 callgsubr
          -234 613 87 callsubr
          endchar
        </CharString>
        <CharString name="Uhungarumlaut">
          15 callgsubr
          -272 420 113 callgsubr
          endchar
        </CharString>
        <CharString name="Umacron">
          15 callgsubr
          -41 506 49 callsubr
          endchar
        </CharString>
        <CharString name="Uogonek">
          43 498 497 rmoveto
          -30 -182 -28 -149 -92 -90 rrcurveto
          -119 -61 -103 81 78 vvcurveto
          173 52 202 53 177 vhcurveto
          6 -13 -11 3 -12 hhcurveto
          -20 -21 301 callsubr
          -17 -200 -27 -135 -36 -209 9 -54 49 -88 101 -20 rrcurveto
          -56 -32 -27 -43 -38 vvcurveto
          -49 43 -40 82 54 45 27 34 32 256 callgsubr
          rrcurveto
          -25 -30 -36 -14 -34 hhcurveto
          -30 -27 10 22 -22 hvcurveto
          11 56 42 41 59 24 161 17 46 141 45 216 29 139 13 103 25 108 309 callsubr
          -12 309 callgsubr
          -28 hvcurveto
          endchar
        </CharString>
        <CharString name="Uring">
          43 437 985 141 callsubr
          116 -579 -72 callsubr
          endchar
        </CharString>
        <CharString name="V">
          9 484 552 rmoveto
          -242 -485 -26 180 -19 466 -21 17 -44 -9 -24 -16 rlinecurve
          69 -683 27 -24 43 -3 33 8 rlinecurve
          57 158 69 130 70 112 70 129 rlinecurve
          24 52 20 55 -6 67 -25 19 -31 5 -57 -24 rrcurveto
          endchar
        </CharString>
        <CharString name="W">
          264 746 555 rmoveto
          -202 -486 -31 203 -13 386 -30 13 -29 -8 -28 -23 rlinecurve
          21 -203 -189 -352 -25 162 -22 471 -22 17 -44 -8 -23 -16 rlinecurve
          75 -689 27 -24 43 -3 32 8 rlinecurve
          62 158 97 184 35 -323 27 -24 47 -4 31 10 rlinecurve
          47 160 177 372 25 52 18 57 -5 67 rlinecurve
          -25 18 -31 5 -58 -23 rrcurveto
          endchar
        </CharString>
        <CharString name="X">
          68 327 403 rmoveto
          -29 127 -63 128 -77 75 -45 -8 -24 -28 4 -39 66 -58 79 -105 61 -128 -83 -92 -124 -140 -83 -71 rrcurveto
          -32 15 -23 52 -9 vhcurveto
          232 322 24 -103 77 -157 54 -62 rlinecurve
          48 8 28 28 -2 33 -71 61 -85 156 -40 81 110 123 95 105 86 81 -12 44 -20 17 -38 -3 rrcurveto
          endchar
        </CharString>
        <CharString name="Y">
          24 callsubr
          endchar
        </CharString>
        <CharString name="Yacute">
          24 callsubr
          344 258 242 callgsubr
        </CharString>
        <CharString name="Ydieresis">
          24 callsubr
          172 97 -5 callsubr
          endchar
        </CharString>
        <CharString name="Z">
          44 90 41 -43 callgsubr
          endchar
        </CharString>
        <CharString name="Zacute">
          44 449 972 -30 callsubr
          -359 -931 -43 callgsubr
          endchar
        </CharString>
        <CharString name="Zcaron">
          44 382 792 rmoveto
          125 116 -6 28 -24 9 -34 -10 rlinecurve
          -102 -108 -12 callgsubr
          -292 -751 -43 callgsubr
          endchar
        </CharString>
        <CharString name="Zdotaccent">
          44 90 41 -43 callgsubr
          289 775 rmoveto
          -43 callsubr
          endchar
        </CharString>
        <CharString name="a">
          -26 338 242 -82 callgsubr
          endchar
        </CharString>
        <CharString name="aacute">
          -26 537 738 48 callsubr
          -40 -340 -82 callgsubr
          endchar
        </CharString>
        <CharString name="abreve">
          -26 361 597 rmoveto
          69 callgsubr
          -74 21 46 -42 69 hhcurveto
          -23 -355 -82 callgsubr
          endchar
        </CharString>
        <CharString name="acircumflex">
          -26 380 701 100 callgsubr
          84 -348 -82 callgsubr
          endchar
        </CharString>
        <CharString name="acute">
          -356 162 770 242 callgsubr
        </CharString>
        <CharString name="adieresis">
          -26 427 609 rmoveto
          -43 callsubr
          -162 hmoveto
          -43 callsubr
          73 -367 -82 callgsubr
          endchar
        </CharString>
        <CharString name="ae">
          261 531 58 rmoveto
          -81 29 -32 52 -9 71 109 22 104 35 113 54 7 102 -36 93 -114 32 -49 -13 -60 -40 -32 -36 31 65 rcurveline
          -14 22 -27 3 -34 -3 -8 -20 -6 -29 -3 -53 -24 42 -37 38 -38 16 rrcurveto
          -132 -132 -194 -171 3 hvcurveto
          1 -95 54 -65 105 -2 43 51 48 52 40 47 11 -9 rcurveline
          -45 -125 21 -23 14 302 callgsubr
          16 106 25 -47 50 -40 66 -19 rlinecurve
          68 11 104 58 36 40 rrcurveto
          30 2 -4 12 -28 hhcurveto
          -36 -39 -69 -30 -64 -24 rrcurveto
          59 436 rmoveto
          61 -36 10 -44 1 -66 -80 -38 -81 -27 -93 -23 2 89 75 97 91 45 rrcurveto
          -289 -4 rmoveto
          45 -30 19 -25 21 -43 -11 -32 -20 -65 -3 -50 -56 -53 -57 -55 -63 -62 rrcurveto
          -44 26 -12 34 49 vvcurveto
          138 65 121 116 47 vhcurveto
          endchar
        </CharString>
        <CharString name="agrave">
          -26 342 586 164 callgsubr
          47 -417 -82 callgsubr
          endchar
        </CharString>
        <CharString name="amacron">
          -26 473 619 159 callsubr
          151 -369 -82 callgsubr
          endchar
        </CharString>
        <CharString name="ampersand">
          76 552 199 rmoveto
          10 33 -22 30 -41 -11 -40 -49 -70 -42 -89 -27 -58 15 -50 39 -15 53 57 86 77 24 111 14 7 29 0 20 -27 16 -23 -7 -20 -7 -38 -7 -61 18 -33 20 -27 42 rrcurveto
          48 60 64 56 112 3 61 -82 rcurveline
          52 9 13 18 23 vvcurveto
          40 -26 -50 35 -63 hhcurveto
          -111 -108 -53 -109 -78 hvcurveto
          10 -48 62 -47 83 -17 -80 -25 -51 -29 -46 -93 18 -52 67 -73 121 -23 110 27 77 38 67 53 rrcurveto
          -139 506 rmoveto
          37 154 -26 19 -17 -2 -38 -21 rlinecurve
          1 -147 10 -7 12 -1 21 5 rlinecurve
          -135 -691 rmoveto
          -38 -153 27 -19 18 2 36 20 rlinecurve
          -1 147 -10 7 -12 1 -20 -5 rlinecurve
          endchar
        </CharString>
        <CharString name="aogonek">
          -31 338 204 callsubr
          24 -18 -27 8 -50 hhcurveto
          -7 -18 -7 -33 -2 -49 -1 -3 rcurveline
          -24 43 -36 37 -39 17 rrcurveto
          -132 -132 -194 -171 3 hvcurveto
          1 -95 54 -65 105 -2 42 51 49 52 40 47 11 -9 rcurveline
          -45 -125 6 -7 7 -5 9 -5 rlinecurve
          -62 -30 -43 -53 226 callsubr
          11 136 11 126 16 105 rrcurveto
          endchar
        </CharString>
        <CharString name="apostrophemod">
          -230 194 644 rmoveto
          137 callsubr
          endchar
        </CharString>
        <CharString name="approxequal">
          73 208 491 176 callgsubr
          -24 -157 176 callgsubr
          endchar
        </CharString>
        <CharString name="aring">
          -26 357 138 callsubr
          -29 -340 -82 callgsubr
          endchar
        </CharString>
        <CharString name="asciicircum">
          -84 53 415 rmoveto
          3 -13 14 -10 16 2 192 307 rcurveline
          94 -299 14 -10 32 -4 23 21 rlinecurve
          -108 329 -15 12 -27 3 -29 -7 rlinecurve
          endchar
        </CharString>
        <CharString name="asciitilde">
          121 201 408 rmoveto
          -57 -18 -49 -44 -26 -33 -1 -16 27 -14 38 1 70 72 rcurveline
          7 3 50 -40 54 -19 109 -19 rlinecurve
          61 24 48 27 29 41 -2 20 -25 15 -36 -6 -85 -69 rcurveline
          -7 1 -67 40 -23 15 -115 19 rlinecurve
          endchar
        </CharString>
        <CharString name="asterisk">
          -174 294 789 rmoveto
          97 70 -5 16 -10 12 -15 6 rlinecurve
          -80 -87 27 110 -16 5 -17 0 -16 -5 rlinecurve
          -1 -109 -59 87 -18 -7 -11 -11 -10 -16 rlinecurve
          82 -71 -111 13 -9 -16 -2 -16 4 -16 rlinecurve
          112 13 -95 -69 7 -17 10 -11 14 -7 rlinecurve
          79 87 -26 -110 16 -6 16 0 16 6 rlinecurve
          1 112 60 -90 18 7 12 10 9 18 rlinecurve
          -79 70 108 -13 8 15 3 16 -5 17 rlinecurve
          endchar
        </CharString>
        <CharString name="at">
          373 554 204 callsubr
          -21 25 -19 9 -55 -2 -8 -20 -6 -30 -2 -49 -1 -4 rcurveline
          -24 43 -36 37 -39 17 rrcurveto
          -132 -132 -194 -171 3 hvcurveto
          1 -95 54 -65 105 -2 42 51 49 52 40 47 11 -9 rcurveline
          -16 -48 7 -33 40 -41 rrcurveto
          154 48 150 133 150 vvcurveto
          188 -141 186 -196 -253 -270 -227 -267 -219 172 -144 211 -42 vhcurveto
          81 24 81 34 43 49 rrcurveto
          29 -7 16 -38 -1 vhcurveto
          -36 -38 -63 -41 -65 -24 rrcurveto
          -147 41 -157 104 202 vvcurveto
          227 200 213 270 21 vhcurveto
          189 -73 59 -96 16 -184 -29 -111 -93 -92 -114 -59 15 95 15 96 16 95 rrcurveto
          endchar
        </CharString>
        <CharString name="atilde">
          -26 338 242 -82 callgsubr
          32 191 175 callgsubr
        </CharString>
        <CharString name="b">
          -36 110 59 rmoveto
          20 86 12 77 14 87 52 68 51 51 43 41 62 -27 26 -41 12 -73 -23 -121 -98 -115 -171 -33 rrcurveto
          35 334 267 callsubr
          -29 -165 -31 -153 -35 -145 rlinecurve
          4 -37 29 -23 49 -17 189 36 125 124 40 166 294 callsubr
          -62 rrcurveto
          endchar
        </CharString>
        <CharString name="backslash">
          -70 64 839 rmoveto
          279 -957 17 -8 26 -7 22 23 rlinecurve
          -154 472 -131 512 -19 9 -33 -14 -7 -30 rlinecurve
          endchar
        </CharString>
        <CharString name="bar">
          -313 106 497 rmoveto
          -31 -195 -45 -271 -45 -185 17 -30 37 -6 41 4 16 155 45 330 10 102 129 567 rcurveline
          6 -13 -11 3 -12 hhcurveto
          -20 -21 -8 -18 -28 hvcurveto
          endchar
        </CharString>
        <CharString name="braceleft">
          121 511 744 rmoveto
          19 7 11 15 1 21 rrcurveto
          34 -41 -53 35 -52 hhcurveto
          -44 -52 -29 -38 -29 hvcurveto
          -155 116 -109 -169 -112 hhcurveto
          -22 -78 51 -23 51 -55 -2 -72 rlinecurve
          -2 -85 -40 -72 -80 -50 19 -62 38 -41 54 -17 58 4 46 13 45 14 7 17 -10 20 -16 12 -137 -28 rcurveline
          -31 40 66 58 55 79 2 90 rlinecurve
          1 76 -37 56 -67 44 2 12 rcurveline
          78 6 64 51 23 75 21 64 -9 86 -43 87 43 25 rcurveline
          endchar
        </CharString>
        <CharString name="braceright">
          122 420 535 rmoveto
          2 84 40 72 80 50 -19 63 -42 58 -61 -1 -46 -1 -51 -12 -41 -17 -7 -18 10 -20 16 -12 137 28 rcurveline
          31 -40 -66 -58 -55 -79 -1 -90 rlinecurve
          -1 -75 36 -57 67 -44 -2 -12 rcurveline
          -78 -6 -63 -51 -24 -75 -21 -64 9 -86 43 -87 -43 -25 rcurveline
          -117 67 -19 -6 -11 -16 -1 -21 rlinecurve
          45 -30 46 -27 55 -17 55 7 44 24 26 41 rrcurveto
          155 -115 109 169 111 hhcurveto
          23 78 -52 23 -51 55 2 73 rlinecurve
          endchar
        </CharString>
        <CharString name="bracketleft">
          -22 417 787 rmoveto
          95 -6 17 30 6 12 -5 23 rlinecurve
          -251 -6 -69 -424 -102 -426 6 -17 18 -19 25 -13 rlinecurve
          202 40 17 18 5 19 -8 13 rlinecurve
          -176 -26 35 238 73 382 47 158 rlineto
          endchar
        </CharString>
        <CharString name="bracketright">
          4 340 237 rmoveto
          127 527 -3 30 -10 22 -18 16 rlinecurve
          -249 14 -12 -13 6 -28 18 -23 rlinecurve
          189 5 -73 -371 -70 -397 -210 -4 -14 -25 5 -28 15 -24 rlinecurve
          284 44 rlineto
          endchar
        </CharString>
        <CharString name="breve">
          -241 90 713 rmoveto
          -74 21 46 -42 69 hhcurveto
          69 callgsubr
          endchar
        </CharString>
        <CharString name="brokenbar">
          -303 161 743 rmoveto
          -14 -85 -18 -56 -27 -111 19 -11 39 -9 40 6 5 72 12 104 3 48 73 265 rcurveline
          5 -14 -12 3 -12 hhcurveto
          -21 -19 -4 -10 -27 hvcurveto
          -152 -877 rmoveto
          -14 -85 -19 -61 -27 -110 21 -15 38 -17 40 20 5 72 12 107 3 47 71 259 rcurveline
          7 -9 -13 4 -14 hhcurveto
          -21 -24 -3 -11 -22 hvcurveto
          endchar
        </CharString>
        <CharString name="bullet">
          -191 145 271 rmoveto
          54 76 45 57 36 hvcurveto
          60 -12 -60 68 -45 hhcurveto
          -61 -7 -69 -79 -6 -66 rrcurveto
          -47 8 37 -31 42 hhcurveto
          endchar
        </CharString>
        <CharString name="c">
          -44 306 540 32 callsubr
        </CharString>
        <CharString name="cacute">
          -44 407 770 -30 callsubr
          -101 -230 32 callsubr
        </CharString>
        <CharString name="caron">
          -248 220 590 rmoveto
          125 116 -6 28 -24 9 -34 -10 rlinecurve
          -102 -108 -12 callgsubr
          endchar
        </CharString>
        <CharString name="ccaron">
          -44 340 590 rmoveto
          125 116 -6 28 -24 9 -34 -10 rlinecurve
          -102 -108 -12 callgsubr
          -34 -50 32 callsubr
        </CharString>
        <CharString name="ccedilla">
          -44 301 487 rmoveto
          37 -29 16 -24 3 -60 22 -13 37 6 26 21 -5 68 -54 72 -77 12 -113 -24 -88 -94 -48 -80 -11 -31 -6 -32 -2 -32 -6 -105 48 -102 132 -38 -48 -102 rcurveline
          -46 callsubr
          52 99 56 23 61 36 28 31 rlinecurve
          2 25 -3 17 -30 -1 -34 -36 -75 -37 -57 -19 -99 41 -22 66 6 100 3 71 67 103 97 47 rrcurveto
          endchar
        </CharString>
        <CharString name="cedilla">
          -216 81 19 rmoveto
          -56 -119 rlineto
          -46 callsubr
          52 100 rlineto
          endchar
        </CharString>
        <CharString name="cent">
          -44 194 76 rmoveto
          -68 41 -15 61 5 86 3 66 58 94 87 51 rrcurveto
          45 5 rmoveto
          31 -26 14 -25 3 -55 22 -13 37 6 26 21 -5 62 -45 65 -65 20 41 99 rcurveline
          -14 30 -24 11 -33 -11 -23 -133 rcurveline
          -98 -33 -76 -84 -43 -72 -11 -31 -6 -32 -2 -32 -5 -94 38 -92 103 -45 -47 -108 rcurveline
          16 -31 27 -14 32 8 23 130 rcurveline
          65 12 100 53 38 42 2 25 -3 17 -30 -1 -33 -35 -73 -36 -56 -20 rrcurveto
          endchar
        </CharString>
        <CharString name="circumflex">
          -226 69 616 17 callgsubr
          endchar
        </CharString>
        <CharString name="colon">
          -286 65 hmoveto
          180 callgsubr
          54 362 rmoveto
          180 callgsubr
          endchar
        </CharString>
        <CharString name="comma">
          -322 134 42 rmoveto
          271 callgsubr
          -129 vlineto
          199 callsubr
          rrcurveto
          endchar
        </CharString>
        <CharString name="copyright">
          228 41 378 rmoveto
          230 callsubr
          311 callgsubr
          rrcurveto
          652 -12 rmoveto
          -27 -146 -89 -158 -229 -25 238 callsubr
          rrcurveto
          -135 110 rmoveto
          -4 60 -46 62 -67 10 -98 -20 -75 -81 -41 -70 -10 -27 -5 -28 -2 -27 -5 -91 42 -92 121 -29 56 8 89 47 33 37 2 22 -3 15 -26 -1 -29 -31 -64 -33 -49 -16 rrcurveto
          -86 36 -19 57 4 85 4 62 57 90 84 40 16 2 rcurveline
          32 -25 14 -21 3 -53 18 -10 32 5 22 17 rrcurveto
          endchar
        </CharString>
        <CharString name="currency">
          110 293 156 rmoveto
          -61 48 -28 53 -5 84 21 94 46 76 113 58 59 -50 43 -77 10 -63 -21 -107 -57 -68 -120 -48 rrcurveto
          176 414 rmoveto
          30 -27 -29 21 -25 hhcurveto
          -46 -57 -35 -49 -47 hvcurveto
          -95 125 rlineto
          -51 -11 -20 -32 4 hvcurveto
          123 -107 rlineto
          -44 -56 -32 -67 -57 vvcurveto
          -52 19 -47 27 -37 vhcurveto
          -123 -87 -7 -31 8 -21 51 -5 rlinecurve
          103 110 rlineto
          -27 28 32 -15 24 hhcurveto
          38 47 23 34 43 hvcurveto
          107 -114 51 4 9 22 -8 31 rlinecurve
          -124 88 56 55 43 71 -1 59 rlinecurve
          -1 41 -24 58 -32 48 118 82 rcurveline
          7 32 -8 21 -51 5 rrcurveto
          endchar
        </CharString>
        <CharString name="d">
          -65 80 callgsubr
          endchar
        </CharString>
        <CharString name="dagger">
          -95 304 574 rmoveto
          311 callsubr
          -28 -223 -130 18 -20 -25 -4 -32 14 -14 rlinecurve
          135 10 -8 -61 -114 -723 20 -13 15 1 12 10 rlinecurve
          136 765 6 23 138 -4 26 29 4 36 -15 9 rlinecurve
          endchar
        </CharString>
        <CharString name="daggerdbl">
          -95 293 527 rmoveto
          137 -4 26 29 4 36 -15 9 rlinecurve
          -141 -23 311 callsubr
          -26 -224 -132 19 -20 -25 -4 -32 14 -14 rlinecurve
          137 10 -34 -270 -55 -246 -141 4 -26 -29 -4 -36 15 -10 rlinecurve
          144 24 -61 -219 24 -24 46 6 33 20 rlinecurve
          26 223 132 -19 21 26 4 31 -14 15 rlinecurve
          -137 -10 33 259 rlineto
          endchar
        </CharString>
        <CharString name="danda">
          -174 239 429 137 callgsubr
          endchar
        </CharString>
        <CharString name="dcaron">
          48 80 callgsubr
          185 -8 11 callsubr
          endchar
        </CharString>
        <CharString name="dcroat">
          -65 146 callgsubr
          111 278 rmoveto
          35 137 -33 18 -27 -8 -48 -27 rlinecurve
          -2 -120 -100 3 -21 -26 -4 -19 14 -14 rlinecurve
          109 3 -1 -74 -6 -30 -6 -28 -6 -28 rlinecurve
          45 -21 -28 41 -47 hhcurveto
          -132 -132 -194 -171 3 hvcurveto
          1 -95 54 -65 105 -2 43 51 49 53 40 47 11 -10 rcurveline
          -45 -130 15 -22 25 -6 46 4 rlinecurve
          23 141 40 267 23 172 9 36 rcurveline
          114 3 26 29 5 23 -16 9 rlinecurve
          endchar
        </CharString>
        <CharString name="degree">
          -122 289 757 rmoveto
          -73 -108 -110 -80 -76 73 -59 41 74 114 102 72 -1 hvcurveto
          54 -2 -69 97 -49 hhcurveto
          -11 -38 rmoveto
          32 -30 23 -47 5 -39 -12 -66 -30 -42 -65 -31 -32 31 -15 32 -4 52 12 58 25 47 61 35 rrcurveto
          endchar
        </CharString>
        <CharString name="dieresis">
          -247 127 609 -5 callsubr
          endchar
        </CharString>
        <CharString name="divide">
          153 652 367 rmoveto
          -300 -15 -293 4 -20 264 callgsubr
          588 7 194 callgsubr
          -349 -270 rmoveto
          30 41 25 30 19 hvcurveto
          33 -6 -33 36 -24 hhcurveto
          -33 -4 -37 -42 -3 -36 rrcurveto
          -25 4 20 -17 22 hhcurveto
          54 335 rmoveto
          30 41 25 30 19 hvcurveto
          32 -6 -33 37 -24 hhcurveto
          -33 -4 -37 -42 -3 -36 rrcurveto
          -25 4 20 -17 22 hhcurveto
          endchar
        </CharString>
        <CharString name="dollar">
          38 293 425 rmoveto
          -69 41 -57 37 -2 41 -2 47 95 71 83 25 rrcurveto
          -22 -352 rmoveto
          70 -38 59 -34 1 -34 rrcurveto
          -73 -74 -66 -102 -31 vhcurveto
          111 613 rmoveto
          32 -28 27 -35 25 -66 41 -4 26 20 4 24 -30 61 -46 48 -59 33 40 106 rcurveline
          -14 30 -24 11 -33 -11 -22 -119 rcurveline
          -102 -14 -120 -76 -42 -104 13 -81 92 -60 88 -50 -43 -235 rcurveline
          -16 -50 -66 44 -24 35 -26 81 rlinecurve
          -39 13 -18 -6 -27 -37 12 -62 80 -83 89 -41 -36 -108 rcurveline
          15 -31 27 -14 33 8 22 134 rcurveline
          164 36 83 86 16 105 -31 70 -85 54 -79 47 38 228 rcurveline
          endchar
        </CharString>
        <CharString name="dotaccent">
          -409 127 609 rmoveto
          -43 callsubr
          endchar
        </CharString>
        <CharString name="dotlessi">
          196 callsubr
          endchar
        </CharString>
        <CharString name="dottedcircle">
          133 139 517 rmoveto
          -26 18 -19 26 26 18 19 26 25 -18 19 -26 -26 -18 -19 -25 vhcurveto
          -82 -110 rmoveto
          -25 20 -19 26 24 20 19 25 25 -20 19 -24 -26 -20 -19 -25 vhcurveto
          -13 -126 rmoveto
          -25 19 -18 25 26 18 18 312 callsubr
          52 -116 rmoveto
          -26 18 -18 26 25 19 18 26 25 -19 19 -25 -26 -18 -19 -25 vhcurveto
          101 -75 rmoveto
          -26 19 -20 26 25 19 20 26 24 -19 20 -25 -26 -19 -20 -24 vhcurveto
          127 -16 rmoveto
          -26 18 -18 26 26 19 18 26 26 -19 18 -26 -26 -18 -18 -26 vhcurveto
          121 53 rmoveto
          -26 19 -18 25 25 20 18 26 25 -20 19 -25 -25 -19 -19 -25 vhcurveto
          73 98 rmoveto
          -25 19 -19 26 24 19 19 25 26 -19 19 -24 -26 -19 -19 -26 vhcurveto
          10 134 rmoveto
          -26 18 -18 26 25 19 18 26 26 -19 18 -25 -26 -18 -18 -26 vhcurveto
          -50 118 rmoveto
          -25 19 -19 25 26 18 19 312 callsubr
          -95 68 rmoveto
          -24 19 -20 26 25 18 20 24 26 -18 19 -25 -26 -19 -19 -26 vhcurveto
          -126 15 rmoveto
          -26 18 -18 26 26 18 18 26 26 -18 18 -26 -26 -18 -18 -26 vhcurveto
          endchar
        </CharString>
        <CharString name="doubledanda">
          19 432 429 137 callgsubr
          -220 -275 137 callgsubr
          endchar
        </CharString>
        <CharString name="dvA">
          113 169 callgsubr
          665 533 rmoveto
          -65 callgsubr
          107 hlineto
          13 8 8 14 4 13 rrcurveto
          endchar
        </CharString>
        <CharString name="dvAA">
          306 169 callgsubr
          858 533 rmoveto
          -99 hlineto
          -73 callsubr
          rrcurveto
          endchar
        </CharString>
        <CharString name="dvAI">
          -71 303 836 26 callsubr
          327 -187 -7 callgsubr
        </CharString>
        <CharString name="dvAU">
          306 696 866 rmoveto
          47 -24 32 -57 22 -41 293 callgsubr
          -39 29 -26 hhcurveto
          -32 141 callgsubr
          30 36 rcurveline
          63 callsubr
          rrcurveto
          -547 -750 78 callsubr
          858 533 rmoveto
          -99 hlineto
          -73 callsubr
          rrcurveto
          endchar
        </CharString>
        <CharString name="dvAbbreviationsign">
          -243 170 407 rmoveto
          -48 -70 -72 -52 -50 47 -38 27 48 75 66 47 -1 hvcurveto
          35 -1 -45 64 -32 hhcurveto
          -7 -25 rmoveto
          20 -20 15 -30 4 -26 -8 -43 -20 -27 -42 -20 -21 20 -10 21 -2 34 7 37 17 31 40 23 rrcurveto
          endchar
        </CharString>
        <CharString name="dvAcandra">
          113 169 callgsubr
          566 533 rmoveto
          -39 callsubr
          107 61 callgsubr
          10 212 rmoveto
          98 callsubr
          77 82 59 54 273 callsubr
        </CharString>
        <CharString name="dvAnusvara">
          24 704 42 callgsubr
          endchar
        </CharString>
        <CharString name="dvAnusvara.amI">
          21 684 42 callgsubr
          endchar
        </CharString>
        <CharString name="dvAvagraha">
          5 267 540 rmoveto
          121 21 128 7 132 -6 28 15 4 33 -17 9 -135 5 -163 -9 -122 -28 -66 -37 -55 -102 -1 -36 -2 -76 283 -48 -2 -55 -1 -60 -90 -101 -88 -25 -59 14 -66 40 -43 44 rrcurveto
          -19 -13 -16 -22 3 hvcurveto
          -39 31 90 -68 72 hhcurveto
          83 165 133 105 3 hvcurveto
          2 82 -178 25 -103 70 9 44 24 48 45 33 rrcurveto
          endchar
        </CharString>
        <CharString name="dvB">
          -316 221 254 rmoveto
          150 callsubr
          79 callgsubr
          rrcurveto
          100 129 rmoveto
          54 -22 -25 67 -61 hhcurveto
          -115 -86 -56 callsubr
          57 66 56 66 57 66 -28 16 rcurveline
          -29 -30 -36 39 -35 43 -32 45 rlinecurve
          25 20 24 15 24 hhcurveto
          34 24 -43 -48 18 hvcurveto
          105 257 rmoveto
          -364 -106 callgsubr
          364 -104 callsubr
        </CharString>
        <CharString name="dvBA">
          -123 281 316 -33 callsubr
          424 468 -104 callgsubr
          -318 -106 callgsubr
          320 253 callgsubr
          -115 -86 -56 callsubr
          47 55 47 54 47 55 9 -7 rcurveline
          -36 -63 -41 -173 -107 callgsubr
        </CharString>
        <CharString name="dvBH">
          -201 40 callgsubr
          48 104 241 callsubr
        </CharString>
        <CharString name="dvBHA">
          -25 148 3 callgsubr
          -6 -34 rmoveto
          97 callgsubr
          -43 -45 -87 -69 -46 -28 rrcurveto
          -8 -8 -11 -21 -12 vvcurveto
          -21 47 -37 41 vhcurveto
          454 172 rmoveto
          -197 -106 callgsubr
          197 -104 callsubr
        </CharString>
        <CharString name="dvBH_LA">
          420 157 220 -30 callgsubr
          855 289 callsubr
          -509 -106 callgsubr
          511 0 callsubr
          -29 -15 -35 -35 -26 -39 -46 9 -54 4 -53 122 callgsubr
          48 1 49 -5 43 -6 rrcurveto
          -12 -23 -8 -23 -19 vvcurveto
          -75 43 -100 103 -74 vhcurveto
          -89 callgsubr
        </CharString>
        <CharString name="dvBH_NA">
          306 477 220 -37 callsubr
          -336 -27 rmoveto
          -31 10 -22 21 -17 27 32 23 39 12 41 6 -9 -37 -11 -35 -9 -20 rrcurveto
          -17 284 -47 callsubr
          -6 -34 rmoveto
          257 callsubr
          -1 -21 -8 -42 -9 -43 rlinecurve
          -64 -7 -58 -18 34 callgsubr
          32 10 45 11 50 43 1 43 -4 39 -5 -14 -14 -7 -18 -3 -22 rrcurveto
          30 -50 53 -23 52 -5 -56 callgsubr
          -102 -79 -118 -73 -111 -67 -45 16 -57 7 -57 -2 25 116 28 131 15 68 142 callsubr
          825 172 rmoveto
          -601 -106 callgsubr
          601 -104 callsubr
        </CharString>
        <CharString name="dvBH_R">
          -200 40 callgsubr
          -100 -265 83 callgsubr
          endchar
        </CharString>
        <CharString name="dvBH_RA">
          -25 148 3 callgsubr
          -6 -34 rmoveto
          65 callsubr
          -43 -45 -87 -69 -46 -28 rrcurveto
          -8 -8 -11 -21 -12 vvcurveto
          -21 47 -37 41 vhcurveto
          454 172 rmoveto
          -197 -106 callgsubr
          197 -104 callsubr
        </CharString>
        <CharString name="dvBH_R_YA">
          320 747 -101 callgsubr
          -633 -342 rmoveto
          -29 11 -13 16 -15 23 29 16 31 10 32 6 -8 -26 -9 -26 -9 -25 rrcurveto
          -14 255 -47 callsubr
          755 104 174 callsubr
          -66 -128 -61 -77 -59 hvcurveto
          -45 6 -44 3 -42 1 20 95 17 90 26 115 75 callsubr
          -6 -29 -7 -31 -9 -30 rlinecurve
          -54 -6 -48 -13 -37 -27 -16 -11 126 callsubr
          29 -53 52 -29 55 -5 25 8 23 11 14 14 10 41 8 38 8 37 33 1 34 -1 36 -4 rrcurveto
          -13 -14 -8 -15 -14 vvcurveto
          -14 7 -15 11 -16 vhcurveto
          -82 -81 -110 -73 -98 -39 -26 callsubr
          98 52 103 72 83 95 rrcurveto
          -27 30 38 -21 28 hhcurveto
          65 112 82 89 75 hvcurveto
          11 -9 -39 -72 -52 -218 -107 callgsubr
        </CharString>
        <CharString name="dvBH_VA">
          250 654 316 -80 callsubr
          -508 -145 -30 callgsubr
          685 104 rmoveto
          -99 hlineto
          22 -16 -25 8 -46 hhcurveto
          -6 -30 rlineto
          -331 hlineto
          -13 -8 -8 -14 -4 -13 12 -11 rcurveline
          334 hlineto
          -32 -150 -6 -3 rlineto
          44 -20 -27 40 -48 hhcurveto
          -82 -69 -68 -85 -32 hvcurveto
          -41 7 -46 3 -46 -1 23 110 25 122 15 68 -11 16 -40 14 -23 -2 -43 -45 -87 -69 -46 -28 rrcurveto
          -8 -8 -11 -21 -12 vvcurveto
          -21 47 -37 41 vhcurveto
          7 callsubr
        </CharString>
        <CharString name="dvBH_YA">
          320 747 -101 callgsubr
          -627 -353 -30 callgsubr
          755 289 callsubr
          -416 -106 callgsubr
          73 -92 callgsubr
          -65 -126 -61 -78 -59 hvcurveto
          -40 7 -47 3 -45 -1 23 110 25 122 15 68 -11 16 -40 14 -23 -2 -43 -45 -87 -69 -46 -28 rrcurveto
          -8 -8 -11 -21 -12 vvcurveto
          -21 47 -37 41 vhcurveto
          9 callgsubr
        </CharString>
        <CharString name="dvB_BA">
          88 492 316 rmoveto
          -29 -30 -36 39 -35 43 -32 45 rlinecurve
          25 20 24 15 24 hhcurveto
          34 23 -44 -45 18 hvcurveto
          -194 -64 rmoveto
          -3 2 6 25 10 25 11 21 rlinecurve
          30 -41 36 -43 188 callsubr
          -21 10 -14 29 38 vvcurveto
          22 3 23 5 22 vhcurveto
          -184 -144 22 callsubr
          96 302 rmoveto
          24 18 -21 -28 16 hvcurveto
          -19 -30 -14 -34 -9 -34 -29 34 -29 36 -26 37 rrcurveto
          25 20 24 15 24 hhcurveto
          539 166 -104 callgsubr
          -529 -106 callgsubr
          531 253 callgsubr
          -49 -43 -27 -41 -34 hvcurveto
          37 -19 -24 31 -42 hhcurveto
          -115 -86 -56 callsubr
          29 33 28 34 29 33 10 -64 47 -32 68 -4 47 55 47 54 47 55 9 -7 rcurveline
          -36 -63 -41 -173 -107 callgsubr
        </CharString>
        <CharString name="dvB_BHA">
          196 389 212 callsubr
          -246 -37 91 callgsubr
          104 194 -47 callsubr
          -76 104 rmoveto
          -364 -106 callgsubr
          340 222 callgsubr
          -42 -26 -42 -26 -44 -27 rrcurveto
          77 -10 -25 104 -74 260 callsubr
          34 35 33 35 34 35 rrcurveto
          -2 vlineto
          -22 callgsubr
          -22 -23 -33 -29 -33 -27 rrcurveto
          435 10 rmoveto
          -197 -106 callgsubr
          197 -104 callsubr
        </CharString>
        <CharString name="dvB_BH_RA">
          163 376 212 callsubr
          -233 -37 91 callgsubr
          91 194 -47 callsubr
          -63 104 rmoveto
          -364 -106 callgsubr
          327 222 callgsubr
          -38 -24 -39 -23 -39 -25 rrcurveto
          77 -10 -26 97 -72 260 callsubr
          31 32 31 32 30 32 30 -48 52 -21 52 198 callsubr
          13 callgsubr
          -46 -38 -49 -34 -49 -33 14 70 15 71 18 81 -11 16 -40 14 -23 -2 -20 -21 -31 -27 -31 -25 rrcurveto
          429 4 rmoveto
          -197 -106 callgsubr
          197 -104 callsubr
        </CharString>
        <CharString name="dvB_DA">
          175 callsubr
          56 61 rmoveto
          -8 -9 -4 -4 -5 -5 -3 -4 rlinecurve
          -6 -7 -34 37 -33 41 -31 42 rlinecurve
          292 callsubr
          -52 -53 23 hvcurveto
          -6 -5 -7 -5 -5 -5 rrcurveto
          505 328 rmoveto
          -743 -106 callgsubr
          436 -19 callgsubr
          -38 -54 -112 -49 -82 -55 rrcurveto
          61 -26 -31 75 -61 234 callgsubr
          29 23 28 18 -69 87 -62 94 -15 51 63 56 74 29 36 -85 callsubr
        </CharString>
        <CharString name="dvB_DA_mU">
          175 callsubr
          30 32 rmoveto
          -34 37 -33 41 -31 42 rrcurveto
          292 callsubr
          -51 -52 22 hvcurveto
          -13 -11 -12 -12 -9 -12 rrcurveto
          522 346 rmoveto
          -743 -106 callgsubr
          436 -19 callgsubr
          -33 -46 -116 -49 -84 -60 rrcurveto
          60 -26 -31 73 -60 234 callgsubr
          28 22 28 16 -69 96 -67 88 -9 -90 callgsubr
        </CharString>
        <CharString name="dvB_DA_mUU">
          175 callsubr
          30 32 rmoveto
          -34 37 -33 41 -31 42 rrcurveto
          292 callsubr
          -51 -52 22 hvcurveto
          -13 -11 -12 -12 -9 -12 rrcurveto
          522 346 rmoveto
          -743 -106 callgsubr
          436 -19 callgsubr
          -33 -46 -116 -49 -84 -60 rrcurveto
          60 -26 -31 73 -60 234 callgsubr
          28 22 28 16 -69 96 -67 88 -9 -88 callgsubr
        </CharString>
        <CharString name="dvB_DHA">
          270 153 201 rmoveto
          -33 16 -16 32 42 vvcurveto
          31 11 32 17 26 vhcurveto
          28 -36 33 -39 29 -30 rrcurveto
          30 33 rmoveto
          -31 34 -31 37 -28 38 rrcurveto
          17 17 20 10 17 hhcurveto
          30 16 -56 -39 29 hvcurveto
          57 109 -29 callsubr
          553 154 108 callgsubr
          -53 -20 -51 -33 -45 -37 1 3 1 3 1 2 -12 11 rcurveline
          -364 -106 callgsubr
          355 hlineto
          -45 -43 -36 -45 -20 -36 rrcurveto
          26 -16 -19 20 -28 hhcurveto
          -98 -84 -118 -86 -86 51 -48 90 -5 hvcurveto
          49 60 50 60 50 61 4 -3 5 -3 4 -2 152 callsubr
        </CharString>
        <CharString name="dvB_DH_VA">
          519 923 316 -80 callsubr
          -781 -164 rmoveto
          -33 16 -16 32 42 vvcurveto
          31 11 32 17 26 vhcurveto
          28 -36 33 -39 29 -30 rrcurveto
          30 33 rmoveto
          -31 34 -31 37 -28 38 rrcurveto
          17 17 20 10 17 hhcurveto
          30 16 -56 -39 29 hvcurveto
          57 109 -29 callsubr
          802 154 84 callgsubr
          -53 -20 -51 -33 -45 -37 1 3 1 3 1 2 -12 11 rcurveline
          -364 -106 callgsubr
          355 hlineto
          -45 -43 -36 -45 -20 -36 rrcurveto
          26 -16 -19 20 -28 hhcurveto
          -98 -84 -118 -86 -86 51 -48 90 -5 hvcurveto
          49 60 50 60 50 61 4 -3 5 -3 4 -2 -40 callsubr
          81 26 120 76 86 76 rrcurveto
          -1 -10 -1 -11 -10 70 callgsubr
          43 53 43 54 43 53 215 callgsubr
          -57 -40 -173 -107 callgsubr
        </CharString>
        <CharString name="dvB_JA">
          299 121 151 -12 callsubr
        </CharString>
        <CharString name="dvB_JHA">
          335 768 440 rmoveto
          85 callgsubr
          270 hlineto
          -547 -287 rmoveto
          -36 39 -35 43 -32 45 rrcurveto
          25 20 24 15 24 hhcurveto
          31 22 -35 -43 18 hvcurveto
          -8 -18 -4 -21 -16 vvcurveto
          4 -5 rlineto
          -159 -164 22 callsubr
          882 468 -104 callgsubr
          -776 -106 callgsubr
          411 278 callsubr
          rrcurveto
          48 -20 -26 49 -52 hhcurveto
          -115 -86 -56 callsubr
          56 65 55 64 55 65 79 -51 137 -4 19 -46 1 callgsubr
        </CharString>
        <CharString name="dvB_J_YA">
          630 1057 -101 callgsubr
          -973 -422 22 callsubr
          131 135 rmoveto
          -36 39 -35 43 -32 45 rrcurveto
          25 20 24 15 24 hhcurveto
          32 23 -37 -44 17 hvcurveto
          -19 -28 -10 -30 -4 -24 rrcurveto
          1042 329 -104 callgsubr
          -1071 -106 callgsubr
          728 117 callsubr
          -12 -7 -11 -9 -9 -9 rrcurveto
          50 -21 -26 53 -54 hhcurveto
          -115 -86 -56 callsubr
          40 46 39 46 39 45 rrcurveto
          -77 10 47 -74 63 136 callgsubr
        </CharString>
        <CharString name="dvB_JxA">
          299 299 79 rmoveto
          -79 callsubr
          -178 72 -12 callsubr
        </CharString>
        <CharString name="dvB_LA">
          279 121 151 22 callsubr
          96 302 rmoveto
          33 24 -41 -46 18 hvcurveto
          -19 -25 -16 -26 -10 -25 -34 39 -33 41 -31 43 rrcurveto
          25 20 24 15 24 hhcurveto
          730 166 -104 callgsubr
          -720 -106 callgsubr
          722 0 callsubr
          -16 -8 -19 -16 -18 -19 rrcurveto
          52 -21 -25 58 -57 hhcurveto
          -115 -86 -56 callsubr
          34 39 33 40 34 39 10 -71 44 -84 90 -65 -89 callgsubr
        </CharString>
        <CharString name="dvB_L_YA">
          571 998 -101 callgsubr
          -914 -422 22 callsubr
          96 302 rmoveto
          33 24 -41 -47 18 hvcurveto
          -19 -24 -16 -27 -8 -26 -35 39 -34 42 -31 44 rrcurveto
          25 20 24 15 24 hhcurveto
          1022 166 -104 callgsubr
          -1012 -106 callgsubr
          669 66 callgsubr
          -16 -8 -18 -15 -16 -17 rrcurveto
          52 -21 -26 58 -57 hhcurveto
          -115 -86 -56 callsubr
          35 41 36 41 35 41 9 -75 48 -87 87 -66 19 callgsubr
        </CharString>
        <CharString name="dvB_NA">
          212 383 220 -37 callsubr
          -240 -39 91 callgsubr
          372 183 rmoveto
          -90 callsubr
          -104 -81 -122 -74 -113 -69 rrcurveto
          76 -11 -25 96 -72 260 callsubr
          31 32 31 32 31 32 31 -45 50 -21 50 -5 172 callgsubr
          2 47 -5 49 -17 43 70 46 69 47 72 52 rrcurveto
          234 135 rmoveto
          -846 -106 callgsubr
          846 -104 callsubr
        </CharString>
        <CharString name="dvB_R">
          -314 208 272 rmoveto
          -33 -27 -31 -25 -23 -18 rrcurveto
          -23 17 -9 26 29 vvcurveto
          33 12 37 18 32 vhcurveto
          27 -35 33 -38 29 -31 rrcurveto
          113 111 rmoveto
          54 -22 -25 67 -61 hhcurveto
          -102 -95 -134 -106 -58 28 -50 68 -17 hvcurveto
          67 59 51 43 43 37 11 -13 rcurveline
          -69 -91 -139 -94 -111 -44 -26 callsubr
          166 97 120 98 28 106 -9 24 rcurveline
          0 vlineto
          -11 35 -52 -42 -33 36 -31 40 -29 41 rlinecurve
          23 21 25 15 23 hhcurveto
          34 24 -43 -48 18 hvcurveto
          105 257 rmoveto
          -364 -106 callgsubr
          364 -104 callsubr
        </CharString>
        <CharString name="dvB_RA">
          -123 285 334 185 callgsubr
          338 348 -104 callgsubr
          -318 46 callgsubr
          -152 -2 -1 rlineto
          42 -19 -28 42 -45 hhcurveto
          -103 -94 -137 -106 -57 30 -48 66 -17 hvcurveto
          177 153 11 -8 -72 -100 -139 -97 -124 -51 -69 callgsubr
        </CharString>
        <CharString name="dvB_SA">
          345 778 440 rmoveto
          -72 -63 -149 -56 -39 -68 callgsubr
          190 hlineto
          -666 -402 158 callsubr
          725 308 -104 callgsubr
          -786 -106 callgsubr
          380 -11 callsubr
          -15 -2 -15 0 -12 3 rrcurveto
          57 -22 -39 115 -67 hhcurveto
          -106 -88 -132 -104 102 callgsubr
          hvcurveto
          38 43 38 43 39 42 66 -67 99 -117 63 -66 -76 callsubr
        </CharString>
        <CharString name="dvB_SHA">
          309 143 171 158 callsubr
          176 197 -46 callgsubr
          -543 296 callsubr
          355 251 callgsubr
          -14 -2 -14 1 -12 3 rrcurveto
          58 -23 -38 113 -67 hhcurveto
          -106 -88 -132 -104 102 callgsubr
          hvcurveto
          38 43 38 43 39 42 66 -67 99 -117 63 -66 -23 callgsubr
        </CharString>
        <CharString name="dvB_TA">
          183 143 171 256 callsubr
          38 12 39 18 32 vhcurveto
          32 -43 39 -47 33 -34 -28 -27 -29 -28 -28 -27 rrcurveto
          117 113 rmoveto
          -38 41 -37 45 -34 46 rrcurveto
          23 21 22 14 21 hhcurveto
          31 38 -80 -51 20 hvcurveto
          -13 -6 -11 -10 -9 -11 rrcurveto
          580 324 -104 callgsubr
          -624 -106 callgsubr
          626 hlineto
          -34 -144 -85 -46 -101 -36 -84 -17 rlinecurve
          56 -22 -39 118 -68 hhcurveto
          -106 -88 -132 -104 102 callgsubr
          hvcurveto
          77 86 26 -87 50 -58 74 -66 rlinecurve
          157 callsubr
        </CharString>
        <CharString name="dvB_VA">
          100 504 316 -80 callsubr
          -394 -214 22 callsubr
          96 302 rmoveto
          24 19 -21 -30 15 hvcurveto
          -18 -30 -14 -34 -7 -35 -30 34 -30 38 -27 38 rrcurveto
          25 20 24 15 24 hhcurveto
          551 166 -38 callgsubr
          -542 -106 callgsubr
          545 hlineto
          -32 -150 -6 callgsubr
          -52 -47 -28 -42 -35 hvcurveto
          38 -19 -25 32 -42 hhcurveto
          -115 -86 -56 callsubr
          32 37 32 37 31 37 12 -66 49 -41 77 -4 43 53 43 54 43 53 215 callgsubr
          -57 -40 -173 -107 callgsubr
        </CharString>
        <CharString name="dvB_YA">
          202 629 -101 callgsubr
          -523 -422 256 callsubr
          45 11 43 18 34 vhcurveto
          31 -41 38 -45 32 -34 -29 -38 -30 -37 -22 -24 rrcurveto
          83 302 rmoveto
          295 callgsubr
          288 callgsubr
          644 166 -104 callgsubr
          -643 -106 callgsubr
          300 -92 callgsubr
          -53 -84 -50 -72 -49 hvcurveto
          64 -18 -38 56 -51 183 callsubr
          87 119 rlineto
          -37 30 51 -33 36 hhcurveto
          65 112 82 89 75 hvcurveto
          11 -9 -39 -72 -52 -218 -107 callgsubr
        </CharString>
        <CharString name="dvC">
          -123 569 573 rmoveto
          31 callsubr
          -548 -106 callgsubr
          23 -183 rmoveto
          220 callgsubr
          251 callsubr
          62 92 313 callsubr
          114 80 vhcurveto
          -36 31 rlineto
          211 callgsubr
          rrcurveto
          endchar
        </CharString>
        <CharString name="dvCA">
          70 738 4 callsubr
          -511 -106 callgsubr
          513 hlineto
          -38 -163 rlineto
          -98 -58 -125 -98 -51 hhcurveto
          -36 -47 40 27 30 102 44 67 27 hvcurveto
          2 19 -9 44 -13 4 -89 -5 -104 6 -94 16 -12 -11 3 -46 12 -19 75 -5 92 11 66 8 87 callgsubr
        </CharString>
        <CharString name="dvCH">
          53 419 422 28 callgsubr
        </CharString>
        <CharString name="dvCHA">
          53 129 -50 callsubr
          167 207 rmoveto
          -631 hlineto
          -13 -8 -8 -14 -4 -13 12 -11 rcurveline
          215 hlineto
          -80 -54 -81 -75 -42 -52 -4 -32 28 -38 33 -18 -44 callsubr
        </CharString>
        <CharString name="dvCH_R">
          53 293 -19 -58 callsubr
          131 438 28 callgsubr
        </CharString>
        <CharString name="dvCH_RA">
          53 463 455 rmoveto
          20 -9 21 -21 -1 -13 -1 -24 -19 -31 -30 -34 rrcurveto
          -13 36 -9 37 33 vvcurveto
          6 9 12 12 14 5 rrcurveto
          207 164 rmoveto
          -631 19 callsubr
          -72 -54 -77 -1 -35 38 -30 39 -16 77 26 113 72 50 44 5 -6 rcurveline
          -53 -67 -99 -87 -80 -51 rrcurveto
          -23 6 -15 42 -14 vhcurveto
          63 65 111 101 72 116 8 -17 8 -19 7 -20 -20 -80 -42 -52 -56 -50 rrcurveto
          -20 -1 13 -16 35 hhcurveto
          53 57 54 97 14 65 -10 29 -17 35 -17 38 51 51 36 52 2 45 2 37 -50 45 -39 16 -40 1 -43 -44 -12 -21 -7 -67 17 -47 22 -48 -77 -71 -112 -71 -86 -25 -11 9 rcurveline
          41 61 70 78 58 50 7 35 -17 28 -42 11 -46 -11 -50 -14 -40 -3 -8 14 rcurveline
          49 55 96 87 97 54 rrcurveto
          313 -104 callsubr
        </CharString>
        <CharString name="dvCH_R_YA">
          513 293 -19 -58 callsubr
          643 393 -20 callgsubr
        </CharString>
        <CharString name="dvCH_YA">
          513 931 377 -20 callgsubr
        </CharString>
        <CharString name="dvC_CA">
          509 1177 4 callsubr
          -950 -106 callgsubr
          952 hlineto
          -38 -163 rlineto
          47 callsubr
          -11 -10 2 -42 10 -21 rrcurveto
          -88 -62 -89 -91 -62 hhcurveto
          -42 18 callgsubr
          68 115 107 137 102 68 vhcurveto
          64 69 9 6 52 hvcurveto
          1 -7 rlineto
          39 callsubr
        </CharString>
        <CharString name="dvC_CHA">
          485 561 -50 callsubr
          167 207 rmoveto
          -1068 -106 callgsubr
          652 hlineto
          -80 -54 -81 -75 -42 -52 -1 -6 1 -7 1 -6 rrcurveto
          -84 -63 -102 -75 -44 38 callgsubr
          78 103 85 95 78 vhcurveto
          10 -10 11 -9 12 -7 -44 callsubr
        </CharString>
        <CharString name="dvC_CH_VA">
          506 551 162 rmoveto
          41 55 69 69 57 45 9 32 -15 27 -41 10 -44 -10 -47 -12 -38 -3 -6 11 rcurveline
          53 52 87 83 99 51 -1 1 rcurveline
          93 hlineto
          -27 -12 -21 -21 -9 -12 -13 -51 11 -67 14 -69 -76 -80 -108 -83 -80 -22 rrcurveto
          358 327 rmoveto
          -2 -22 -19 -32 -28 -36 -5 42 -3 36 6 27 4 13 4 9 9 3 18 -9 18 -19 -2 -12 rrcurveto
          -250 -607 rmoveto
          -23 12 -8 27 3 31 rrcurveto
          77 11 62 76 50 hhcurveto
          26 17 -33 -36 9 hvcurveto
          -3 -9 -2 -9 -3 -9 -47 -44 -47 -41 -45 -42 rrcurveto
          437 743 rmoveto
          -1069 -106 callgsubr
          648 hlineto
          -78 -53 -75 -71 -44 -49 -1 -8 0 -8 3 -7 rrcurveto
          -86 -63 -104 -77 -45 38 callgsubr
          80 105 88 98 79 vhcurveto
          8 -7 8 -6 9 -5 44 6 47 15 38 10 3 -5 rcurveline
          -58 -38 -58 -65 -55 -68 -3 -34 36 -28 37 -14 72 16 116 78 92 87 8 -37 6 -35 2 -33 -5 -25 -6 -27 -8 -29 rrcurveto
          29 -14 -18 25 -36 hhcurveto
          -96 -87 -104 -96 -11 hvcurveto
          -8 -70 38 -44 77 -3 34 34 35 35 35 36 -19 -53 -20 -48 -17 -35 -1 -21 25 -13 30 3 33 98 69 186 16 128 -3 47 -8 49 -8 46 55 59 40 60 5 45 rrcurveto
          3 32 -32 37 -33 19 rrcurveto
          174 -104 callsubr
        </CharString>
        <CharString name="dvC_MA">
          327 495 153 callgsubr
          491 392 rmoveto
          -961 253 callsubr
          8 -100 154 callgsubr
          rlinecurve
          -49 -33 -51 -32 -52 -33 -2 -1 -2 -2 -2 -2 rrcurveto
          0 vlineto
          -38 -44 -57 -37 -32 38 callgsubr
          51 56 34 39 47 vhcurveto
          31 -40 47 -18 48 -4 -94 callsubr
        </CharString>
        <CharString name="dvC_NA">
          330 501 220 -37 callsubr
          -232 170 rmoveto
          92 callgsubr
          62 52 55 35 39 48 vhcurveto
          31 -38 46 -18 45 29 callgsubr
          -3 -3 -3 -3 -2 -3 rrcurveto
          -38 -44 -56 -36 -32 hhcurveto
          -36 94 callsubr
          rrcurveto
          721 215 rmoveto
          -964 -106 callgsubr
          964 -104 callsubr
        </CharString>
        <CharString name="dvC_R">
          -123 497 412 rmoveto
          -99 -57 -127 -99 -51 38 callgsubr
          66 83 60 76 71 vhcurveto
          14 -14 -53 -103 -137 -80 -121 292 callgsubr
          120 68 137 87 53 109 -7 87 rcurveline
          14 17 12 16 12 17 rrcurveto
          60 238 rmoveto
          -559 -106 callgsubr
          559 -104 callsubr
        </CharString>
        <CharString name="dvC_RA">
          70 738 4 callsubr
          -511 -106 callgsubr
          513 hlineto
          -38 -163 rlineto
          -98 -58 -125 -98 -51 38 callgsubr
          73 96 75 88 76 vhcurveto
          12 -10 -37 -105 -170 -109 -127 -53 -69 callgsubr
        </CharString>
        <CharString name="dvC_YA">
          382 809 413 189 callgsubr
          -823 -106 callgsubr
          480 -92 callgsubr
          -78 -179 -71 -62 -69 hvcurveto
          -49 -48 -71 -55 -43 38 callgsubr
          60 61 44 50 56 vhcurveto
          -45 24 66 -48 43 hhcurveto
          65 112 82 89 75 hvcurveto
          11 -9 -39 -72 -52 -218 -107 callgsubr
        </CharString>
        <CharString name="dvCandrabindu">
          42 774 120 callsubr
          111 57 119 callsubr
        </CharString>
        <CharString name="dvD">
          -58 101 -114 123 callgsubr
          464 733 230 callgsubr
          -76 -108 vvcurveto
          -79 97 -75 105 -17 vhcurveto
          51 63 56 74 29 36 -85 callsubr
        </CharString>
        <CharString name="dvDA">
          228 callgsubr
          -63 -88 -260 -76 -108 vvcurveto
          -79 97 -75 105 -17 vhcurveto
          51 63 56 74 29 36 -85 callsubr
        </CharString>
        <CharString name="dvDA_mU">
          228 callgsubr
          -53 -74 -270 -82 -123 vvcurveto
          -75 106 -79 96 -10 vhcurveto
          -90 callgsubr
        </CharString>
        <CharString name="dvDA_mUU">
          228 callgsubr
          -53 -74 -270 -82 -123 vvcurveto
          -75 106 -79 96 -10 vhcurveto
          -88 callgsubr
        </CharString>
        <CharString name="dvDA_mvR">
          228 callgsubr
          -63 -88 -260 -76 -108 vvcurveto
          170 callsubr
          -21 -68 -23 -59 -38 -101 rrcurveto
          -71 -33 -71 -65 -44 vvcurveto
          -32 41 -42 41 67 69 14 49 60 307 callsubr
          -32 -30 -59 -43 -75 11 -18 27 rcurveline
          31 50 37 25 70 26 42 133 14 58 43 callsubr
          -76 -93 -48 -53 -51 14 -46 41 -16 44 243 callsubr
          79 71 65 50 callsubr
          rrcurveto
          -13 26 -29 184 callgsubr
          221 -104 callsubr
        </CharString>
        <CharString name="dvDD">
          -101 86 -19 30 callsubr
          481 638 192 callgsubr
          192 35 callgsubr
          -25 -12 -8 -37 3 -36 69 -61 129 -11 72 -55 -83 callgsubr
        </CharString>
        <CharString name="dvDDA">
          -101 567 619 192 callgsubr
          192 35 callgsubr
          -25 -12 -8 -37 3 -36 69 -61 129 -11 72 -55 -83 callgsubr
        </CharString>
        <CharString name="dvDDH">
          -39 136 -19 30 callsubr
          201 252 -51 callgsubr
        </CharString>
        <CharString name="dvDDHA">
          -39 337 233 -51 callgsubr
        </CharString>
        <CharString name="dvDDH_DDHA">
          -100 309 314 129 callsubr
          -70 -390 129 callsubr
          328 695 192 callgsubr
          235 hlineto
          31 -20 17 -12 14 -25 147 callgsubr
          4 4 0 1 4 hvcurveto
          11 -9 7 -10 8 -13 147 callgsubr
          64 130 77 47 1 hvcurveto
          105 callsubr
          -5 13 -10 12 -12 10 62 25 66 49 1 34 rrcurveto
          105 callsubr
          -7 18 -14 14 -18 13 rrcurveto
          220 -104 callsubr
        </CharString>
        <CharString name="dvDDH_R">
          -39 224 -3 callgsubr
          204 456 rmoveto
          19 -7 19 -17 3 -16 -25 -48 -56 -37 -71 -15 -15 5 -15 7 -14 9 68 52 46 40 41 27 rrcurveto
          274 374 rmoveto
          -558 -106 callgsubr
          213 hlineto
          49 -33 29 -17 17 -33 -4 -9 rcurveline
          -46 -57 -174 -78 -68 -61 -15 -19 -8 -27 -1 -20 rrcurveto
          -70 23 90 -87 80 hhcurveto
          74 145 90 56 34 -55 53 -54 5 hvcurveto
          -87 -65 -19 -23 -79 -62 rrcurveto
          -26 24 -18 29 27 vvcurveto
          58 224 81 61 81 vhcurveto
          15 22 3 15 -6 17 -10 26 -28 22 -32 21 rrcurveto
          265 -104 callsubr
        </CharString>
        <CharString name="dvDDH_RA">
          -39 227 -68 -58 callsubr
          115 298 -51 callgsubr
        </CharString>
        <CharString name="dvDDH_VA">
          -100 309 314 129 callsubr
          -78 -323 106 callsubr
          329 599 192 callgsubr
          235 hlineto
          31 -20 17 -12 14 -25 147 callgsubr
          20 25 7 12 27 hvcurveto
          -22 -107 64 callgsubr
          -27 -108 255 callgsubr
          315 48 130 rlineto
          32 22 23 25 20 vvcurveto
          105 callsubr
          -7 18 -14 14 -18 13 rrcurveto
          220 -104 callsubr
        </CharString>
        <CharString name="dvDDH_YA">
          411 829 51 callgsubr
          -105 -7 -84 -17 -91 -36 -3 11 rcurveline
          -11 28 -31 23 -34 22 rrcurveto
          546 hlineto
          -538 -340 rmoveto
          21 -8 20 -17 3 -18 -26 -51 -60 -38 -75 -15 -16 5 -16 7 -15 10 54 42 66 53 44 30 rrcurveto
          742 386 -104 callgsubr
          -833 -106 callgsubr
          207 187 callsubr
          -48 -59 -183 -81 -71 -63 -16 -19 -8 -28 -1 -20 rrcurveto
          -72 24 93 -90 84 hhcurveto
          78 151 93 57 36 -57 53 -56 6 hvcurveto
          -77 -58 -56 -50 -61 -48 rrcurveto
          -28 25 -19 32 30 vvcurveto
          53 190 82 101 80 vhcurveto
          118 49 128 20 73 -8 rrcurveto
          12 -98 -260 -66 -77 vvcurveto
          -43 84 -65 56 55 101 69 75 69 vhcurveto
          9 -7 -39 -72 -45 -188 -107 callgsubr
        </CharString>
        <CharString name="dvDDHxA">
          -39 196 -19 rmoveto
          -79 callsubr
          141 252 -51 callgsubr
        </CharString>
        <CharString name="dvDD_DDA">
          -101 567 619 192 callgsubr
          233 hlineto
          31 -13 37 -15 18 -24 127 callgsubr
          46 5 56 8 54 13 27 -12 28 -14 15 -20 127 callgsubr
          102 10 149 31 66 41 165 callsubr
          -17 21 -23 17 -25 13 38 11 34 14 23 14 165 callsubr
          -12 16 -16 13 -18 11 290 callsubr
        </CharString>
        <CharString name="dvDD_DDHA">
          -100 239 -76 129 callsubr
          328 695 192 callgsubr
          233 hlineto
          31 -13 37 -15 18 -24 127 callgsubr
          43 4 51 8 50 11 26 -17 14 -12 13 -22 147 callgsubr
          64 130 77 47 1 hvcurveto
          105 callsubr
          -8 22 -20 16 -23 15 47 13 42 15 27 17 rrcurveto
          165 callsubr
          -12 16 -16 13 -18 11 290 callsubr
        </CharString>
        <CharString name="dvDD_R">
          -101 177 -3 callgsubr
          481 830 68 callsubr
        </CharString>
        <CharString name="dvDD_RA">
          -101 170 -68 -58 callsubr
          402 684 192 callgsubr
          192 35 callgsubr
          -25 -12 -8 -37 3 -36 69 -61 129 -11 72 -55 -83 callgsubr
        </CharString>
        <CharString name="dvDD_VA">
          -101 231 -9 106 callsubr
          329 599 192 callgsubr
          241 hlineto
          31 -13 36 -16 17 -24 -1 -5 rcurveline
          -55 -31 -85 -18 -76 -20 -24 -9 -8 -32 1 -29 62 -49 118 -6 65 -42 -2 -6 rcurveline
          -82 -48 -118 -14 -92 -7 -17 -14 9 -25 23 -16 64 7 85 15 69 22 -22 -124 rcurveline
          64 callgsubr
          -27 -108 255 callgsubr
          315 51 136 7 4 8 4 6 4 rlinecurve
          14 10 18 50 -15 21 -62 40 -108 11 -58 36 1 3 rcurveline
          58 25 95 13 63 36 20 16 9 26 -3 12 -12 17 -16 13 -18 12 rrcurveto
          194 -104 callsubr
        </CharString>
        <CharString name="dvDD_YA">
          371 789 51 callgsubr
          -99 -7 -81 -15 -86 -33 rrcurveto
          13 vlineto
          -19 28 -25 21 -27 17 rrcurveto
          524 hlineto
          204 -69 callsubr
          -812 -106 callgsubr
          192 35 callgsubr
          -25 -12 -8 -37 3 -36 69 -61 129 -11 72 -55 -1 -7 rcurveline
          -83 -64 -133 -24 -101 -9 -15 -17 8 -25 25 -21 108 13 160 44 63 52 15 13 16 60 -14 26 -68 51 -118 17 -66 46 1 6 rcurveline
          80 34 80 36 83 28 95 33 98 22 104 -3 rrcurveto
          12 -98 -260 -66 -77 vvcurveto
          -43 84 -65 56 55 101 69 75 69 vhcurveto
          9 -7 -39 -72 -45 -188 -107 callgsubr
        </CharString>
        <CharString name="dvDDxA">
          -101 145 -19 rmoveto
          -79 callsubr
          422 638 192 callgsubr
          192 35 callgsubr
          -25 -12 -8 -37 3 -36 69 -61 129 -11 72 -55 -83 callgsubr
        </CharString>
        <CharString name="dvDH">
          -154 185 callsubr
          -30 -297 rmoveto
          101 callsubr
          -142 -53 -125 -143 -28 -74 -36 callgsubr
          114 36 190 136 65 95 -40 33 rcurveline
          -65 -84 -163 -119 -104 -37 rrcurveto
          443 458 rmoveto
          -127 -106 callgsubr
          127 -104 callsubr
        </CharString>
        <CharString name="dvDHA">
          39 185 callsubr
          553 154 108 callgsubr
          -142 -53 -125 -143 -28 -74 139 callgsubr
        </CharString>
        <CharString name="dvDH_MA">
          279 517 282 callsubr
          -49 -33 -51 -32 -52 -33 -2 -1 -1 -2 -2 -1 -59 -45 -70 -51 -88 -33 -7 7 rcurveline
          10 callsubr
          128 49 callgsubr
          -339 231 -29 callsubr
          793 154 rmoveto
          -548 109 callgsubr
          71 26 74 49 62 48 30 -40 48 -19 48 -4 -94 callsubr
        </CharString>
        <CharString name="dvDH_NA">
          284 117 458 rmoveto
          49 70 92 76 68 32 9 -2 5 -7 2 -10 -1 -3 -2 -4 -2 -4 -3 -4 -3 -5 -2 -5 -36 -55 -83 -59 -56 -13 rrcurveto
          301 -245 118 callsubr
          -553 109 callgsubr
          72 27 75 49 62 48 31 -38 46 -19 46 29 callgsubr
          -4 -4 rcurveline
          0 vlineto
          -60 -46 -71 -52 -90 -34 -7 7 rcurveline
          10 callsubr
          558 -104 callsubr
        </CharString>
        <CharString name="dvDH_N_YA">
          639 1066 -101 callgsubr
          -979 -405 rmoveto
          10 callsubr
          377 -92 callgsubr
          -70 -146 -65 -74 -63 hvcurveto
          -117 24 -173 -26 -73 -51 -2 -2 -2 -2 -2 -3 -56 -42 -65 -45 -81 -30 rrcurveto
          307 47 76 callsubr
          23 10 8 rcurveline
          0 vlineto
          20 12 21 10 23 7 4 -23 0 -23 -5 -27 rrcurveto
          -330 243 -29 callsubr
          1153 287 callgsubr
          -715 109 callgsubr
          66 24 68 43 58 45 31 -38 46 -19 46 -4 172 callgsubr
          2 38 -4 39 -9 36 57 11 62 0 54 -6 rrcurveto
          -8 -11 -4 -10 -11 vvcurveto
          -49 89 -74 53 65 112 82 89 75 vhcurveto
          11 -9 -39 -72 -52 -218 -107 callgsubr
        </CharString>
        <CharString name="dvDH_R">
          -154 185 callsubr
          309 -64 rmoveto
          -65 -84 -163 -119 -104 89 callgsubr
          -142 -53 -125 -143 -28 -74 -36 callgsubr
          83 26 129 80 80 82 14 -14 rcurveline
          -54 -106 -138 -83 -121 -50 -26 callsubr
          113 65 141 86 52 110 -11 80 rcurveline
          16 19 12 19 8 18 rrcurveto
          76 242 241 callsubr
        </CharString>
        <CharString name="dvDH_RA">
          39 185 callsubr
          553 287 callgsubr
          -67 -106 callgsubr
          69 hlineto
          -40 -172 -66 -84 -162 -119 -104 -37 rlinecurve
          -7 7 276 callgsubr
          rlinecurve
          -42 callsubr
          -142 -53 -125 -143 -28 -74 -36 callgsubr
          92 29 141 94 85 85 10 -8 rcurveline
          -36 -62 -85 -89 -110 -71 -59 callsubr
        </CharString>
        <CharString name="dvDH_VA">
          288 692 172 callsubr
          802 154 84 callgsubr
          -142 -53 -125 -143 -28 -74 104 callgsubr
        </CharString>
        <CharString name="dvDH_YA">
          341 768 -101 callgsubr
          -681 -405 rmoveto
          10 callsubr
          79 -92 callgsubr
          -74 -162 -68 -69 -66 hvcurveto
          -72 -61 -93 -72 -97 -34 rrcurveto
          -14 297 -29 callsubr
          855 287 callgsubr
          -417 109 callgsubr
          78 25 85 57 75 60 rrcurveto
          -44 24 66 -48 42 hhcurveto
          65 112 82 89 75 hvcurveto
          11 -9 -39 -72 -52 -218 -107 callgsubr
        </CharString>
        <CharString name="dvD_BA">
          58 185 -70 283 callgsubr
          15 4 15 8 14 vhcurveto
          46 -29 56 -33 49 -28 -12 -13 -13 -14 -15 -15 rrcurveto
          -46 194 rmoveto
          228 callsubr
          -14 -17 -13 -15 -13 -15 298 callsubr
          rrcurveto
          542 495 rmoveto
          -651 -106 callgsubr
          344 -19 callgsubr
          -63 -88 -260 -76 -108 147 callsubr
          54 62 28 37 53 66 51 57 47 68 27 34 -85 callsubr
        </CharString>
        <CharString name="dvD_BHA">
          -42 377 211 rmoveto
          -9 -30 -22 -62 -24 -70 -50 -26 -52 -24 -53 -21 13 34 13 35 15 41 18 -6 18 -4 18 -3 51 63 30 40 29 36 rrcurveto
          -326 -391 rmoveto
          -17 11 -16 13 -12 24 29 11 30 11 30 12 -10 -26 -11 -24 -15 -28 rrcurveto
          109 275 rmoveto
          -9 -26 -8 -21 -8 -21 -73 -10 rcurveline
          -10 7 -6 7 -4 7 42 27 35 13 37 21 rrcurveto
          471 513 rmoveto
          -598 -106 callgsubr
          245 -19 callgsubr
          -59 -88 -260 -38 -116 vvcurveto
          -40 31 -39 44 -30 vhcurveto
          -35 -19 -33 -17 -31 -14 -7 -5 -13 -19 -1 -11 -3 -21 36 -39 36 -5 63 20 rcurveline
          4 -7 -13 -20 -7 -22 -46 -17 -45 -17 -45 -16 rlinecurve
          -19 -14 -9 -15 -1 -21 14 -39 43 -32 44 -16 27 1 15 5 16 16 17 54 15 43 14 42 53 21 52 23 49 23 -26 -72 -25 -74 -17 -53 121 callgsubr
          152 64 212 43 callsubr
          -52 -63 -45 -47 -56 18 -49 29 -31 46 42 92 180 37 71 65 50 callsubr
          -13 26 -29 184 callgsubr
          267 -104 callsubr
        </CharString>
        <CharString name="dvD_B_RA">
          58 252 5 rmoveto
          298 callsubr
          228 callsubr
          -14 -17 -13 -15 -13 -15 rrcurveto
          -67 -75 283 callgsubr
          15 4 15 8 14 vhcurveto
          46 -29 56 -33 49 -28 -12 -13 -13 -14 -15 -15 rrcurveto
          496 689 rmoveto
          -651 -106 callgsubr
          344 -19 callgsubr
          -63 -88 -260 -76 -108 147 callsubr
          51 59 28 36 47 60 rrcurveto
          0 vlineto
          1 1 6 8 rlineto
          0 vlineto
          47 65 46 62 34 53 5 -3 rcurveline
          -13 -43 -28 -75 207 callgsubr
          55 194 41 99 -22 36 -32 14 -29 -3 -22 -27 -73 -100 -52 -63 -50 14 -45 41 -16 43 243 callsubr
          79 -64 callsubr
        </CharString>
        <CharString name="dvD_DA">
          -57 612 619 rmoveto
          -578 -106 callgsubr
          225 hlineto
          40 -13 43 -13 23 -26 -4 -11 rcurveline
          -55 -25 -60 -11 -71 -5 -31 -17 -31 -36 -2 -38 -3 -47 31 -34 58 -22 -62 -23 -78 -55 -2 -49 -4 -63 69 -60 118 -19 54 63 28 26 31 272 callsubr
          -24 -68 -46 -101 -35 -74 rrcurveto
          -21 5 24 -8 30 hhcurveto
          41 106 26 86 49 102 -20 36 -31 14 -29 -3 -33 -43 -53 -52 -38 -42 -67 21 -32 23 -13 44 51 88 114 18 70 5 8 34 -6 21 -19 9 -31 -15 -26 -9 -24 -7 rrcurveto
          -58 25 -15 31 1 28 1 15 8 15 16 12 52 5 86 17 46 22 26 20 13 26 -5 27 -11 15 -17 13 -20 10 rrcurveto
          242 -104 callsubr
        </CharString>
        <CharString name="dvD_DHA">
          128 70 179 rmoveto
          42 74 78 72 65 39 14 -7 10 -12 2 -23 -38 -45 -87 -82 -86 -16 rrcurveto
          42 -283 rmoveto
          35 63 46 54 59 59 rrcurveto
          39 -10 -24 25 -28 hhcurveto
          -31 -16 -54 -27 -41 -15 -11 5 -16 9 -2 17 3 11 5 9 6 10 53 -12 rcurveline
          41 15 44 27 27 23 13 -58 53 -46 70 -23 -61 -66 -86 -67 -83 -42 rrcurveto
          631 729 rmoveto
          -720 -106 callgsubr
          413 -19 callgsubr
          -33 -46 -86 -42 -75 -46 rrcurveto
          47 -15 -34 21 -18 hhcurveto
          -83 -158 -180 -118 -48 hvcurveto
          -2 -39 51 -44 43 -8 54 16 39 20 26 15 4 -4 rcurveline
          -55 -53 -37 -44 -51 -78 3 -34 38 -26 41 -7 187 92 131 169 93 119 223 callsubr
          -41 -57 -53 -65 -48 -49 -51 14 -49 41 -16 44 243 callsubr
          79 -64 callsubr
        </CharString>
        <CharString name="dvD_GA">
          -58 76 -130 265 callsubr
          479 744 230 callgsubr
          -76 -108 vvcurveto
          -63 62 -61 75 -30 vhcurveto
          -3 -30 232 callgsubr
          25 49 28 80 26 75 58 62 56 74 29 36 308 callsubr
          -83 -227 -38 -120 14 callsubr
        </CharString>
        <CharString name="dvD_GHA">
          128 124 -89 rmoveto
          37 59 25 24 60 54 -9 39 -24 28 -28 2 -41 -21 -35 -17 -51 -19 -6 9 rcurveline
          39 48 53 33 58 41 21 -63 45 -41 79 -29 -51 -57 -71 -58 -93 -39 rrcurveto
          619 715 rmoveto
          -720 -106 callgsubr
          413 hlineto
          46 -30 36 -26 15 -31 -2 -7 rcurveline
          -46 -56 -217 -96 -50 -70 -69 -39 -85 -63 -70 -68 rrcurveto
          -31 25 -37 35 -15 vhcurveto
          48 15 50 29 32 14 5 -5 rcurveline
          -57 -47 -28 -26 -45 -62 3 -34 37 -30 41 -14 197 88 114 155 93 127 223 callsubr
          -19 -24 -66 -80 -61 -67 -50 15 -46 41 -25 53 52 80 183 78 71 56 50 callsubr
          -13 26 -29 184 callgsubr
          221 -104 callsubr
        </CharString>
        <CharString name="dvD_G_RA">
          -58 83 -91 265 callsubr
          472 705 216 callsubr
          -65 61 -55 81 -30 vhcurveto
          -1 -15 232 callgsubr
          24 46 26 73 25 72 56 62 55 68 29 272 callsubr
          -13 -43 -36 -114 207 callgsubr
          63 233 41 99 174 callgsubr
        </CharString>
        <CharString name="dvD_MA">
          36 202 135 rmoveto
          -21 3 -24 13 -17 30 44 30 36 29 33 29 -8 -45 -14 -48 -20 -35 rrcurveto
          493 478 rmoveto
          -710 -106 callgsubr
          207 hlineto
          14 -9 12 -10 7 -12 -1 -4 rcurveline
          -40 -32 -54 -22 -40 -30 rrcurveto
          -18 -14 -13 -15 -20 vvcurveto
          -38 52 -44 60 -19 vhcurveto
          36 26 32 26 19 18 7 -5 rcurveline
          1 -11 0 -14 -1 -14 -45 -41 -49 -39 -59 -40 -16 -11 126 callsubr
          26 -41 45 -26 47 -6 27 5 15 11 15 14 35 63 15 80 8 68 52 50 48 50 60 56 3 -2 -86 callgsubr
          -60 -55 -50 -52 -51 -49 rrcurveto
          1 vlineto
          -17 23 -25 15 -37 -6 -16 -17 -34 -28 -28 -20 rrcurveto
          -26 12 -16 17 21 vvcurveto
          7 4 8 9 7 vhcurveto
          30 24 63 33 33 25 17 16 6 15 -8 17 -4 6 -7 5 -7 5 rrcurveto
          432 -104 callsubr
        </CharString>
        <CharString name="dvD_NA">
          -58 94 -169 302 callsubr
          -21 5 -26 -6 -24 rrcurveto
          463 784 230 callgsubr
          -76 -108 vvcurveto
          170 callsubr
          -16 -50 -24 -70 -22 -62 -99 -48 -116 -44 -75 -15 -14 -11 -11 -21 1 -22 22 -49 39 -26 46 -6 29 4 18 7 15 27 6 41 -1 28 -12 30 45 16 46 18 52 22 4 -9 rcurveline
          -25 -27 -16 -46 -20 -58 -14 -44 rlinecurve
          -14 callgsubr
        </CharString>
        <CharString name="dvD_R">
          -58 131 -154 123 callgsubr
          434 773 216 callsubr
          -79 89 -63 107 -24 vhcurveto
          57 63 56 69 29 272 callsubr
          -10 -31 -16 -51 -19 -58 -91 -57 -103 -67 -91 -71 -2 -20 6 -15 39 -13 63 61 89 64 64 39 -15 -47 -15 -47 -14 -41 3 -21 25 -8 30 4 46 154 39 148 41 99 rrcurveto
          174 callgsubr
        </CharString>
        <CharString name="dvD_RA">
          228 callgsubr
          -63 -88 -260 -76 -108 vvcurveto
          -1 callsubr
        </CharString>
        <CharString name="dvD_VA">
          73 185 -70 283 callgsubr
          37 22 34 55 35 vhcurveto
          228 callsubr
          -37 -44 -28 -36 -42 -42 rrcurveto
          496 689 rmoveto
          -651 -106 callgsubr
          344 -19 callgsubr
          -63 -88 -260 -76 -108 147 callsubr
          54 62 28 37 53 66 51 57 47 68 27 34 -85 callsubr
        </CharString>
        <CharString name="dvD_YA">
          18 438 390 rmoveto
          -61 -88 -122 -94 -103 -34 -12 10 rcurveline
          42 44 75 63 59 35 17 35 -19 27 -29 17 rrcurveto
          -16 -55 -49 -7 -43 hhcurveto
          -6 12 64 26 86 33 46 43 rlinecurve
          9 18 6 29 -2 30 rrcurveto
          141 hlineto
          204 -69 callsubr
          -499 -106 callgsubr
          311 hlineto
          -22 -4 -15 -7 -18 vhcurveto
          -61 -61 -153 -16 -1 -50 rrcurveto
          -19 21 -24 23 -12 vhcurveto
          57 52 8 14 52 hvcurveto
          4 -9 rlineto
          -93 -59 -100 -77 -29 vvcurveto
          -1 -29 31 -21 34 -11 84 17 119 83 81 83 10 -11 rcurveline
          -34 -43 -53 -229 -107 callgsubr
        </CharString>
        <CharString name="dvE">
          -71 597 619 -7 callgsubr
        </CharString>
        <CharString name="dvEcandra">
          -71 399 654 rmoveto
          77 82 59 54 35 hvcurveto
          237 callgsubr
          98 callsubr
          198 -35 -7 callgsubr
        </CharString>
        <CharString name="dvEight">
          -19 233 66 rmoveto
          -82 31 -46 54 -12 70 68 114 118 140 151 125 -5 17 -9 11 -14 2 -146 -101 -170 -174 -65 -130 rrcurveto
          -105 12 114 -107 86 hhcurveto
          75 128 140 60 40 hvcurveto
          1 19 -13 9 -26 4 -56 -74 -54 -60 -95 -45 rrcurveto
          endchar
        </CharString>
        <CharString name="dvEyelash">
          -324 333 573 rmoveto
          31 callsubr
          -352 -106 callgsubr
          125 -334 rmoveto
          77 20 43 18 53 37 -13 27 rcurveline
          -46 -22 -58 -20 -35 -10 218 callgsubr
          rrcurveto
          endchar
        </CharString>
        <CharString name="dvEyelash_HA">
          97 715 619 rmoveto
          -721 -106 callgsubr
          499 104 callsubr
          -55 2 -55 -13 -44 -24 -44 -20 -54 -19 -33 -9 218 callgsubr
          28 7 24 7 21 8 rrcurveto
          -7 -14 -4 -15 -16 vvcurveto
          -81 callgsubr
        </CharString>
        <CharString name="dvEyelash_YA">
          199 626 413 189 callgsubr
          -680 -106 callgsubr
          337 -92 callgsubr
          -69 -142 -64 -75 -63 hvcurveto
          -46 -21 -57 -20 -35 -10 218 callgsubr
          48 12 34 12 32 16 rrcurveto
          -5 vlineto
          -49 89 -74 53 65 112 82 89 75 vhcurveto
          11 -9 -39 -72 -52 -218 -107 callgsubr
        </CharString>
        <CharString name="dvFive">
          -95 348 326 rmoveto
          11 -5 -20 -96 -46 -173 -57 -136 rlinecurve
          1 -20 19 -10 30 -1 60 139 56 209 29 124 -2 35 -35 24 -63 -11 -44 -70 -47 -82 -63 -89 rrcurveto
          -52 30 -24 27 53 vvcurveto
          121 168 138 139 81 vhcurveto
          1 16 -15 12 -21 3 rrcurveto
          -133 -55 -214 -174 -143 vvcurveto
          -82 55 -69 123 -23 vhcurveto
          60 99 64 101 20 27 rrcurveto
          endchar
        </CharString>
        <CharString name="dvFour">
          2 548 656 rmoveto
          -79 -56 -84 -65 -78 -77 -47 82 -64 65 -70 49 -21 -4 -15 -12 -13 -36 74 -52 65 -60 45 -78 -69 -74 -63 -84 -49 -95 8 -75 58 -58 83 -26 78 15 53 41 31 58 rrcurveto
          1 115 -22 98 -38 82 75 77 86 70 87 66 2 20 -4 17 -30 -3 rrcurveto
          -320 -609 rmoveto
          -43 32 -28 22 -10 56 37 74 48 67 55 63 29 -66 15 -78 -3 -94 -24 -40 -26 -19 -50 -17 rrcurveto
          endchar
        </CharString>
        <CharString name="dvG">
          -253 106 callgsubr
          309 392 rmoveto
          -404 -97 callgsubr
          156 -104 callsubr
        </CharString>
        <CharString name="dvGA">
          -61 119 220 208 callsubr
          -382 -97 callgsubr
          136 hlineto
          -129 -550 77 callsubr
        </CharString>
        <CharString name="dvGH">
          -181 529 619 rmoveto
          -495 -18 callsubr
          40 -14 vhcurveto
          105 28 184 140 65 95 -45 37 rcurveline
          -65 -84 -125 -109 -122 -47 -7 7 rcurveline
          15 callsubr
          199 hlineto
          -6 callsubr
          rrcurveto
          endchar
        </CharString>
        <CharString name="dvGHA">
          73 callgsubr
          82 22 132 91 84 84 8 -9 rcurveline
          -34 -43 -52 -223 -107 callgsubr
        </CharString>
        <CharString name="dvGH_MA">
          260 117 168 rmoveto
          15 callsubr
          173 128 callsubr
          -49 -33 -51 -32 -52 -33 -3 -2 -3 -3 -2 -2 -77 -65 -59 -35 -66 -26 rrcurveto
          304 59 -50 callgsubr
          491 392 rmoveto
          -894 -18 callsubr
          37 -12 vhcurveto
          82 38 59 31 57 51 31 -40 47 -18 48 -4 -94 callsubr
        </CharString>
        <CharString name="dvGH_NA">
          264 435 220 118 callsubr
          -898 -18 callsubr
          37 -12 vhcurveto
          83 38 59 32 58 51 30 -38 47 -18 45 29 callgsubr
          -3 -2 -2 -3 -2 -3 -78 -66 -61 -35 -66 -27 -7 7 rcurveline
          15 callsubr
          602 -104 callsubr
        </CharString>
        <CharString name="dvGH_R">
          -181 531 619 rmoveto
          -497 -18 callsubr
          40 -14 vhcurveto
          85 32 107 64 81 86 11 -11 rcurveline
          -53 -103 -137 -80 -121 -53 -26 callsubr
          132 68 119 94 55 105 -3 80 rcurveline
          11 15 11 16 10 16 -33 27 rcurveline
          -65 -84 -125 -109 -122 -47 -7 7 rcurveline
          15 callsubr
          201 -104 callsubr
        </CharString>
        <CharString name="dvGH_RA">
          73 callgsubr
          83 22 131 91 84 84 8 -8 rcurveline
          -60 -102 -140 -97 -133 -55 -76 callgsubr
        </CharString>
        <CharString name="dvGH_YA">
          319 746 -101 callgsubr
          -666 -405 rmoveto
          15 callsubr
          121 -92 callgsubr
          -75 -168 -69 -67 -68 hvcurveto
          -74 -66 -62 -51 -107 -46 rrcurveto
          863 458 -104 callgsubr
          -760 -18 callsubr
          40 -14 vhcurveto
          79 29 78 53 67 58 rrcurveto
          -44 25 64 -46 42 hhcurveto
          65 112 82 89 75 hvcurveto
          11 -9 -39 -72 -52 -218 -107 callgsubr
        </CharString>
        <CharString name="dvG_BA">
          151 555 316 -33 callsubr
          -276 69 -67 callgsubr
          691 -22 callsubr
          -593 -97 callgsubr
          347 253 callgsubr
          -115 -86 -56 callsubr
          47 55 47 54 47 55 9 -7 rcurveline
          -36 -63 -41 -173 -107 callgsubr
        </CharString>
        <CharString name="dvG_BHA">
          249 422 3 callgsubr
          -388 -295 -67 callgsubr
          309 392 rmoveto
          -404 -97 callgsubr
          126 hlineto
          -15 -11 -14 -9 -11 -7 rrcurveto
          -8 -8 -11 -21 -12 vvcurveto
          -21 47 -37 41 vhcurveto
          78 34 97 callgsubr
          -21 -22 -32 -28 -32 -26 rrcurveto
          432 7 rmoveto
          -197 -106 callgsubr
          197 -104 callsubr
        </CharString>
        <CharString name="dvG_BH_YA">
          594 1021 -101 callgsubr
          -627 -353 -30 callgsubr
          -388 -295 -67 callgsubr
          1134 29 callsubr
          -21 -22 -32 -28 -32 -26 -8 7 rcurveline
          -404 -97 callgsubr
          126 hlineto
          -15 -11 -14 -9 -11 -7 rrcurveto
          -8 -8 -11 -21 -12 vvcurveto
          -21 47 -37 41 vhcurveto
          9 callgsubr
        </CharString>
        <CharString name="dvG_DA">
          216 106 callgsubr
          711 392 rmoveto
          -806 -97 callgsubr
          251 -19 callgsubr
          -63 -88 -260 -76 -108 vvcurveto
          -79 97 -75 105 -17 vhcurveto
          51 63 56 74 29 36 -85 callsubr
        </CharString>
        <CharString name="dvG_DA_mU">
          216 106 callgsubr
          711 392 rmoveto
          -806 -97 callgsubr
          251 -19 callgsubr
          -53 -74 -270 -82 -123 vvcurveto
          -75 106 -79 96 -10 vhcurveto
          -90 callgsubr
        </CharString>
        <CharString name="dvG_DA_mUU">
          215 106 callgsubr
          710 392 rmoveto
          -805 -97 callgsubr
          250 -19 callgsubr
          -53 -74 -270 -82 -123 vvcurveto
          -75 106 -79 96 -10 vhcurveto
          -88 callgsubr
        </CharString>
        <CharString name="dvG_DHA">
          313 391 153 callsubr
          -309 258 callgsubr
          853 392 108 callgsubr
          -56 -21 -54 -35 -45 -39 2 4 2 5 1 4 -12 11 rcurveline
          -404 -97 callgsubr
          151 hlineto
          -58 -55 -42 -59 -15 -39 139 callgsubr
        </CharString>
        <CharString name="dvG_DH_VA">
          538 942 172 callsubr
          -285 258 callgsubr
          1078 392 84 callgsubr
          -47 -18 -45 -27 -40 -31 -6 5 rcurveline
          -404 -97 callgsubr
          127 hlineto
          -58 -55 -42 -59 -15 -39 104 callgsubr
        </CharString>
        <CharString name="dvG_DH_YA">
          596 1023 -101 callgsubr
          -681 -405 rmoveto
          10 callsubr
          79 -92 callgsubr
          -74 -162 -68 -69 -66 hvcurveto
          -72 -61 -93 -72 -97 -34 rrcurveto
          -14 297 -29 callsubr
          -290 258 callgsubr
          1136 -22 callsubr
          -417 hlineto
          -13 46 -29 28 -32 -3 -48 -18 -46 -28 -41 -32 -8 7 rcurveline
          -404 -97 callgsubr
          132 hlineto
          -58 -55 -42 -59 -15 -39 -36 callgsubr
          78 25 85 57 75 60 rrcurveto
          -44 24 66 -48 42 hhcurveto
          65 112 82 89 75 hvcurveto
          11 -9 -39 -72 -52 -218 -107 callgsubr
        </CharString>
        <CharString name="dvG_GA">
          213 393 67 callsubr
          -283 -7 -67 callgsubr
          752 392 rmoveto
          -97 -98 callgsubr
          -656 -97 callgsubr
          187 222 callsubr
          -27 -3 -26 -5 -25 rlinecurve
          -50 -35 -51 -34 -52 -64 callgsubr
          24 93 31 154 20 132 rrcurveto
          136 hlineto
          -129 -550 77 callsubr
        </CharString>
        <CharString name="dvG_GHA">
          286 709 400 rmoveto
          -65 -84 -124 -108 -122 -47 -7 7 rcurveline
          15 callsubr
          159 hlineto
          -631 -353 -67 callgsubr
          826 -22 callsubr
          -728 -97 callgsubr
          227 hlineto
          -75 -50 -74 -63 -42 -53 -2 -31 23 -37 34 -15 56 7 39 12 38 12 4 -5 rcurveline
          -60 -47 -52 -51 124 callsubr
          82 22 132 91 84 84 8 -9 rcurveline
          -34 -43 -52 -223 -107 callgsubr
        </CharString>
        <CharString name="dvG_JA">
          362 106 callgsubr
          902 -22 callsubr
          -804 -97 callgsubr
          558 hlineto
          -27 -115 -42 -48 -42 -31 -58 -5 rlinecurve
          -18 9 -21 12 -15 16 152 callgsubr
          25 -12 51 -3 53 32 44 37 rlinecurve
          6 -5 -41 -74 -67 -285 -107 callsubr
          rrcurveto
          endchar
        </CharString>
        <CharString name="dvG_LA">
          342 106 callgsubr
          882 -22 callsubr
          -784 -97 callgsubr
          538 0 callsubr
          rrcurveto
          -54 -28 -77 -102 -58 vvcurveto
          -75 43 -100 103 -74 vhcurveto
          -89 callgsubr
        </CharString>
        <CharString name="dvG_MA">
          223 391 153 callgsubr
          -281 -7 -67 callgsubr
          763 392 rmoveto
          -858 -97 callgsubr
          185 128 callsubr
          -49 -33 -51 -32 -52 -33 -16 -11 -7 -22 -1 -19 29 -53 54 -23 55 -5 -94 callsubr
        </CharString>
        <CharString name="dvG_NA">
          241 412 20 callgsubr
          -556 -264 -67 callgsubr
          781 392 rmoveto
          -876 -97 callgsubr
          628 -104 callsubr
        </CharString>
        <CharString name="dvG_NNA">
          340 553 573 rmoveto
          -48 callgsubr
          -417 -353 -67 callgsubr
          881 392 rmoveto
          -100 -98 callgsubr
          -782 -97 callgsubr
          191 155 callgsubr
        </CharString>
        <CharString name="dvG_N_YA">
          588 1015 -101 callgsubr
          -665 -365 60 callgsubr
          -277 5 -67 callgsubr
          1128 -22 callsubr
          -1030 -97 callgsubr
          439 -92 callgsubr
          -70 -146 -65 -74 -63 hvcurveto
          -117 24 -173 -26 -73 -51 142 callgsubr
          57 11 62 0 54 -6 rrcurveto
          -8 -11 -4 -10 -11 vvcurveto
          -49 89 -74 53 65 112 82 89 75 vhcurveto
          11 -9 -39 -72 -52 -218 -107 callgsubr
        </CharString>
        <CharString name="dvG_R">
          -253 339 180 callsubr
          -249 -4 -67 callgsubr
          309 392 rmoveto
          -404 -97 callgsubr
          156 -104 callsubr
        </CharString>
        <CharString name="dvG_RA">
          -62 119 220 208 callsubr
          -382 -97 callgsubr
          136 hlineto
          -78 -334 -85 -89 -109 205 callgsubr
          105 hlineto
          -6 callsubr
          rrcurveto
          endchar
        </CharString>
        <CharString name="dvG_R_YA">
          269 696 -101 callgsubr
          -614 -353 -67 callgsubr
          809 -22 callsubr
          -711 -97 callgsubr
          120 36 callsubr
          -16 9 -18 14 -17 vhcurveto
          -81 -79 -108 -70 -95 -38 -26 callsubr
          96 51 101 70 82 92 rrcurveto
          -24 29 35 -18 26 hhcurveto
          65 112 82 89 75 hvcurveto
          11 -9 -39 -72 -52 -218 -107 callgsubr
        </CharString>
        <CharString name="dvG_SA">
          360 793 440 rmoveto
          -72 -63 -149 -56 -39 -68 callgsubr
          190 hlineto
          -705 -353 -67 callgsubr
          900 -22 callsubr
          -802 -97 callgsubr
          148 hlineto
          -11 -10 -10 -10 -6 -10 1 -16 14 -13 21 -4 rrcurveto
          30 26 39 26 45 hhcurveto
          28 26 -41 -31 -80 -111 -72 -79 -11 hvcurveto
          -19 -3 -18 1 -13 6 -40 -3 -19 -33 -11 -37 -29 callgsubr
        </CharString>
        <CharString name="dvG_VA">
          163 567 316 -80 callsubr
          -459 -145 -67 callgsubr
          703 392 -38 callgsubr
          -606 -97 callgsubr
          361 hlineto
          -32 -150 -6 -3 rlineto
          44 -20 -27 40 -48 183 callsubr
          43 53 43 54 43 53 215 callgsubr
          -57 -40 -173 -107 callgsubr
        </CharString>
        <CharString name="dvG_YA">
          269 696 -101 callgsubr
          -614 -353 -67 callgsubr
          809 -22 callsubr
          -711 -97 callgsubr
          120 -44 callgsubr
        </CharString>
        <CharString name="dvGx">
          -253 68 79 rmoveto
          -79 callsubr
          51 141 -67 callgsubr
          309 392 rmoveto
          -404 -97 callgsubr
          156 -104 callsubr
        </CharString>
        <CharString name="dvGxA">
          -61 67 79 rmoveto
          -79 callsubr
          52 141 208 callsubr
          -382 -97 callgsubr
          136 hlineto
          -129 -550 77 callsubr
        </CharString>
        <CharString name="dvGx_R">
          -253 199 -1 rmoveto
          -79 callsubr
          140 251 83 callgsubr
          -249 -4 -67 callgsubr
          309 392 rmoveto
          -404 -97 callgsubr
          156 -104 callsubr
        </CharString>
        <CharString name="dvGx_RA">
          -62 199 -1 rmoveto
          -79 callsubr
          -80 221 208 callsubr
          -382 -97 callgsubr
          136 hlineto
          -78 -334 -85 -89 -109 205 callgsubr
          105 hlineto
          -6 callsubr
          rrcurveto
          endchar
        </CharString>
        <CharString name="dvH">
          -70 86 -19 30 callsubr
          463 638 rmoveto
          -470 -106 callgsubr
          248 104 callsubr
          -122 5 -122 -72 -89 vvcurveto
          -81 callgsubr
        </CharString>
        <CharString name="dvHA">
          -70 549 619 rmoveto
          -470 -106 callgsubr
          248 104 callsubr
          -122 5 -122 -72 -89 vvcurveto
          -81 callgsubr
        </CharString>
        <CharString name="dvHA_mU">
          -70 212 -30 rmoveto
          -28 -51 -21 -24 -38 hvcurveto
          -3 -23 21 -22 29 -10 34 25 19 11 36 5 7 -2 6 -3 5 -10 -13 -44 -56 -35 -52 -11 -70 36 -35 31 -26 73 -28 3 -21 -9 -22 -33 37 -68 89 -60 70 -12 rrcurveto
          85 7 116 74 41 vvcurveto
          31 -72 50 -39 vhcurveto
          337 649 rmoveto
          -470 -106 callgsubr
          248 104 callsubr
          -122 5 -122 -72 -89 vvcurveto
          -81 callgsubr
        </CharString>
        <CharString name="dvHA_mUU">
          -70 18 -112 rmoveto
          -26 46 -43 58 -21 vhcurveto
          28 11 11 15 -4 23 -36 13 -28 14 -16 19 6 16 6 8 16 7 98 -29 39 -50 64 -78 rrcurveto
          33 9 18 16 27 vvcurveto
          53 -55 -124 98 -66 hhcurveto
          -50 -44 -49 -33 hvcurveto
          531 731 rmoveto
          -470 -106 callgsubr
          248 104 callsubr
          -122 5 -122 -72 -89 vvcurveto
          -81 callgsubr
        </CharString>
        <CharString name="dvHA_mvR">
          -86 582 619 rmoveto
          -549 96 callsubr
          -4 -6 rcurveline
          -98 -35 -62 -60 -42 vvcurveto
          -21 41 -42 41 70 49 24 39 54 307 callsubr
          -48 -43 -34 -17 -63 -2 -17 17 rcurveline
          29 48 40 31 80 26 20 23 9 17 -4 17 -11 40 -89 65 -69 21 198 callgsubr
          174 -104 callsubr
        </CharString>
        <CharString name="dvH_LA">
          -18 650 619 102 callsubr
          rrcurveto
          97 8 116 108 118 hhcurveto
          45 58 -18 -43 6 hvcurveto
          -31 -41 -39 -38 -36 -25 2 8 2 10 1 7 -3 35 -15 32 -28 18 -10 4 -33 -2 -14 -5 rrcurveto
          -35 -17 -49 -66 -38 vvcurveto
          4 -46 16 -50 63 -49 22 3 18 20 -5 20 -46 30 -11 28 -10 40 3 38 26 37 33 16 17 -12 8 -16 3 -21 -2 -14 -6 -12 -8 -17 rrcurveto
          -18 27 -18 27 2 vhcurveto
          32 27 40 36 30 27 -12 -51 -25 -61 -30 -44 161 callsubr
        </CharString>
        <CharString name="dvH_MA">
          93 512 396 rmoveto
          -62 -46 -55 -36 -55 -34 rrcurveto
          10 -2 10 -1 11 vhcurveto
          -33 38 -50 26 -60 23 198 callgsubr
          161 hlineto
          -312 -474 rmoveto
          -18 4 -23 10 -17 24 35 23 32 20 30 19 -3 -29 -12 -32 -14 -33 rrcurveto
          507 514 -104 callgsubr
          -536 -106 callgsubr
          295 -28 callsubr
          34 -9 78 -33 18 266 callsubr
          -153 4 -109 -83 -102 vvcurveto
          -75 86 -110 116 -7 vhcurveto
          84 8 72 32 46 36 -3 28 -14 17 -21 1 -49 -35 -45 -28 -70 -9 -73 8 -57 83 -7 56 16 84 81 48 103 6 7 -8 5 -9 3 -9 -40 -25 -42 -24 -46 -28 rrcurveto
          -16 -12 -8 -25 1 -19 28 -38 44 -15 42 -7 22 6 14 6 18 16 28 66 13 44 3 46 52 33 51 32 62 42 4 -3 rcurveline
          -82 -316 -107 callgsubr
        </CharString>
        <CharString name="dvH_NA">
          -47 237 77 302 callsubr
          -20 5 -27 -6 -24 rrcurveto
          337 538 rmoveto
          -540 -106 callgsubr
          285 -28 callsubr
          26 -9 76 -33 34 266 callsubr
          -158 -9 -100 -112 -71 vvcurveto
          -77 101 -122 121 -14 vhcurveto
          80 14 108 60 26 27 -3 28 -14 17 -21 1 -33 -36 -72 -48 -71 -13 -107 33 -34 63 -16 67 rrcurveto
          83 8 113 71 95 hhcurveto
          35 26 -6 -27 4 hvcurveto
          -76 -32 -76 -26 -55 -11 -14 -11 -11 -21 1 -22 20 -43 39 -26 35 -12 40 4 17 7 18 27 6 41 -1 28 -12 30 21 7 22 9 23 8 -4 -24 -8 -32 -15 -31 rrcurveto
          -3 -15 20 -18 33 5 rrcurveto
          33 51 4 91 42 vvcurveto
          42 -66 14 -153 79 vhcurveto
          2 8 83 9 68 16 55 30 rlinecurve
          20 16 12 20 -1 26 -7 20 -13 16 -18 14 rrcurveto
          174 -104 callsubr
        </CharString>
        <CharString name="dvH_NNA">
          -18 292 251 rmoveto
          21 -53 3 -33 -2 -39 -11 -41 -42 -30 -41 -11 -25 14 -11 25 -2 30 9 41 43 57 52 40 rrcurveto
          364 368 102 callsubr
          7 82 84 90 98 26 -52 -42 -55 -70 -2 -36 rrcurveto
          -45 -4 43 -64 43 hhcurveto
          38 78 33 73 31 hvcurveto
          10 42 -5 45 -25 65 rrcurveto
          34 -9 29 -20 -34 vvcurveto
          -57 -32 -96 -43 -62 vhcurveto
          161 callsubr
        </CharString>
        <CharString name="dvH_R">
          -70 85 -66 123 callgsubr
          464 685 18 callsubr
        </CharString>
        <CharString name="dvH_RA">
          -70 549 619 18 callsubr
        </CharString>
        <CharString name="dvH_VA">
          -46 360 132 rmoveto
          -2 -8 -3 -8 -3 -9 -36 -39 -37 -30 -43 -40 rrcurveto
          -23 12 -9 23 26 vvcurveto
          60 49 78 53 23 21 -31 -34 10 vhcurveto
          214 487 rmoveto
          -542 -106 callgsubr
          296 -28 callsubr
          26 -9 76 -33 34 266 callsubr
          -188 -23 -79 -139 -71 vvcurveto
          -75 82 -123 129 -36 vhcurveto
          101 16 91 49 57 55 -3 28 -14 17 -21 1 -29 -41 -102 -70 -80 -5 -76 36 -52 68 -18 80 rrcurveto
          97 18 106 98 113 hhcurveto
          36 34 -13 -32 -13 -1 -12 -1 -13 hvcurveto
          29 -14 -20 25 -32 hhcurveto
          -86 -71 -97 -81 -52 28 -45 71 -12 hvcurveto
          23 29 27 25 26 27 -1 -2 rcurveline
          2 -14 20 -14 31 9 rrcurveto
          37 86 18 88 39 vvcurveto
          72 -83 20 -153 79 vhcurveto
          2 8 83 9 68 16 55 30 rlinecurve
          20 16 12 20 -1 26 -7 20 -13 16 -18 14 rrcurveto
          165 -104 callsubr
        </CharString>
        <CharString name="dvH_YA">
          105 501 284 rmoveto
          -76 -59 -140 -111 -48 hhcurveto
          -33 -20 27 14 37 155 7 8 97 hvcurveto
          -31 55 -80 43 -59 21 198 callgsubr
          174 hlineto
          204 -69 callsubr
          -547 96 callsubr
          rrcurveto
          -26 -45 -138 -10 -56 vvcurveto
          -40 62 -56 56 54 118 98 75 73 vhcurveto
          10 -8 -40 -72 -28 -117 -107 callgsubr
        </CharString>
        <CharString name="dvI">
          -96 572 619 -31 callsubr
        </CharString>
        <CharString name="dvII">
          -96 245 178 callsubr
          339 -227 -31 callsubr
        </CharString>
        <CharString name="dvII_Anusvara">
          -96 233 178 callsubr
          115 -88 148 callgsubr
          236 -139 -31 callsubr
        </CharString>
        <CharString name="dvJ">
          -105 591 573 rmoveto
          31 callsubr
          -574 293 callsubr
          -117 rmoveto
          -60 callsubr
          68 -4 69 57 52 49 rlinecurve
          -40 36 -42 -48 -42 -32 -59 -5 rlinecurve
          -18 9 -21 12 -15 16 205 callsubr
          endchar
        </CharString>
        <CharString name="dvJA">
          88 756 4 callsubr
          123 callsubr
          535 hlineto
          -27 -115 -42 -48 -42 -31 -58 -5 rlinecurve
          -18 9 -21 12 -15 16 152 callgsubr
          25 -12 51 -3 53 32 44 37 rlinecurve
          6 -5 -41 -74 -67 -285 -107 callsubr
          rrcurveto
          endchar
        </CharString>
        <CharString name="dvJH">
          -69 637 619 rmoveto
          -603 81 callgsubr
          26 -17 21 -37 15 vhcurveto
          70 30 102 54 83 57 -37 36 rcurveline
          85 callgsubr
          306 -104 callsubr
        </CharString>
        <CharString name="dvJHA">
          124 557 440 rmoveto
          85 callgsubr
          270 hlineto
          204 -69 callsubr
          -565 hlineto
          -13 -8 -8 -14 -4 -13 12 -11 rcurveline
          200 hlineto
          33 -21 46 -29 22 -34 -2 -4 rcurveline
          -47 -28 -134 -34 -39 -16 rrcurveto
          -22 -15 -13 -43 -29 vvcurveto
          67 -74 175 1 22 -52 1 callgsubr
        </CharString>
        <CharString name="dvJH_MA">
          390 137 353 rmoveto
          21 22 144 26 63 39 56 callgsubr
          302 128 callsubr
          -29 -19 -29 -19 -30 -19 -71 -41 -93 -9 -83 5 -39 5 -94 30 -12 25 rrcurveto
          422 -130 -50 callgsubr
          491 392 rmoveto
          -1024 82 callsubr
          -23 16 28 -1 28 3 27 6 rlinecurve
          -2 -5 -1 -6 -6 vvcurveto
          29 -53 54 -23 55 -5 -94 callsubr
        </CharString>
        <CharString name="dvJH_NA">
          368 539 220 118 callsubr
          -1002 82 callsubr
          -29 20 23 2 22 4 21 5 rlinecurve
          -2 -8 -2 -8 -1 -8 30 -50 53 -23 52 -5 -56 callgsubr
          -90 -69 -102 -65 -99 -61 -69 -36 -87 -18 -86 -4 -39 5 -94 30 -12 25 1 3 rcurveline
          21 22 144 26 63 39 56 callgsubr
          705 -104 callsubr
        </CharString>
        <CharString name="dvJH_R">
          -70 522 180 callsubr
          88 395 rmoveto
          -605 77 callgsubr
          70 30 102 54 83 57 -37 36 rcurveline
          203 callsubr
          308 -104 callsubr
        </CharString>
        <CharString name="dvJH_RA">
          124 557 440 rmoveto
          0 vlineto
          203 callsubr
          270 hlineto
          204 -69 callsubr
          -565 77 callgsubr
          60 26 83 43 75 47 7 -9 rcurveline
          -32 -39 -21 -92 -85 -89 -110 -71 -59 callsubr
        </CharString>
        <CharString name="dvJH_YA">
          389 816 -101 callgsubr
          -714 -218 rmoveto
          134 callgsubr
          190 -92 callgsubr
          -55 -90 -52 -74 -50 hvcurveto
          -70 -40 -89 -31 -68 -18 -36 5 -83 26 -26 24 rrcurveto
          921 274 -104 callgsubr
          -830 81 callgsubr
          29 -22 19 -26 11 vhcurveto
          20 5 22 7 23 8 rrcurveto
          -2 0 -2 -2 vvcurveto
          -49 89 -74 53 65 112 82 89 75 vhcurveto
          11 -9 -39 -72 -52 -218 -107 callgsubr
        </CharString>
        <CharString name="dvJ_BA">
          295 699 316 -33 callsubr
          424 468 -104 callgsubr
          -740 -106 callgsubr
          742 253 callgsubr
          -45 -40 -23 -36 -33 hvcurveto
          -37 -35 -32 -30 -61 -6 132 callsubr
          25 25 7 11 24 hvcurveto
          -14 -36 -7 -39 -36 135 callgsubr
          47 55 47 54 47 55 9 -7 rcurveline
          -36 -63 -41 -173 -107 callgsubr
        </CharString>
        <CharString name="dvJ_DA">
          282 950 619 rmoveto
          -920 -106 callgsubr
          613 -19 callgsubr
          -29 -41 -72 -38 -68 -40 -62 -30 -59 -5 -50 14 -40 callgsubr
          18 -3 24 -1 25 3 rlinecurve
          -27 -24 -17 -26 -28 vvcurveto
          -79 97 -75 105 -17 vhcurveto
          51 63 56 74 29 36 -85 callsubr
        </CharString>
        <CharString name="dvJ_DA_mU">
          335 958 619 rmoveto
          -928 -106 callgsubr
          621 -19 callgsubr
          -26 -37 -81 -39 -74 -45 -61 -28 -57 -4 -49 13 -40 callgsubr
          20 -3 26 -1 29 4 rlinecurve
          -27 -27 -17 -28 -31 vvcurveto
          -75 106 -79 96 -10 vhcurveto
          -90 callgsubr
        </CharString>
        <CharString name="dvJ_DA_mUU">
          336 959 619 rmoveto
          -929 -106 callgsubr
          622 -19 callgsubr
          -26 -36 -78 -38 -73 -45 -63 -30 -59 -5 -50 14 -40 callgsubr
          20 -4 27 0 29 4 rlinecurve
          -27 -26 -17 -29 -31 vvcurveto
          -75 106 -79 96 -10 vhcurveto
          -88 callgsubr
        </CharString>
        <CharString name="dvJ_DDA">
          313 981 619 rmoveto
          -951 -106 callgsubr
          610 35 callgsubr
          -3 -1 rcurveline
          -44 -15 -33 -7 -38 1 132 callsubr
          28 33 4 8 33 hvcurveto
          -1 -7 0 -8 1 -7 69 -61 129 -11 72 -55 -83 callgsubr
        </CharString>
        <CharString name="dvJ_JA">
          483 1148 4 callsubr
          -925 -106 callgsubr
          927 hlineto
          -27 -115 -42 -48 -42 -31 -58 -5 rlinecurve
          -18 9 -21 12 -15 16 205 callsubr
          -13 -8 -11 -8 -10 -10 -33 -31 -29 -20 -53 -5 -40 callgsubr
          rlineto
          24 23 6 8 21 hvcurveto
          -1 -6 -1 -6 -1 -5 rrcurveto
          -91 -9 54 -109 76 -75 callgsubr
        </CharString>
        <CharString name="dvJ_JHA">
          506 939 440 rmoveto
          85 callgsubr
          270 hlineto
          204 -69 callsubr
          -951 -106 callgsubr
          586 278 callsubr
          -5 -4 -5 -5 -4 -6 -21 -17 -37 -15 -27 -2 42 callsubr
          23 2 24 7 23 10 rlinecurve
          -4 vlineto
          67 -74 175 1 22 -52 1 callgsubr
        </CharString>
        <CharString name="dvJ_J_NYA">
          391 1059 4 callsubr
          -836 -106 callgsubr
          838 hlineto
          -15 -65 -38 -38 -33 -21 -48 -24 rlinecurve
          301 callgsubr
          -10 -5 -10 -8 -8 -9 -44 -37 -64 -12 -65 -2 39 callgsubr
          52 80 15 28 52 hvcurveto
          47 callgsubr
          40 19 41 31 30 27 6 -7 rcurveline
          -35 -47 -89 -379 -107 callgsubr
        </CharString>
        <CharString name="dvJ_J_VA">
          697 1100 316 66 callsubr
          -1142 -106 callgsubr
          1145 hlineto
          -32 -150 -6 callgsubr
          -50 -45 -25 -39 -34 hvcurveto
          -35 -33 -33 -27 -57 -6 -18 9 -21 12 -15 16 227 callgsubr
          rrcurveto
          72 callsubr
          -13 -8 -11 -8 -10 -10 -33 -31 -29 -20 -53 -5 39 callgsubr
          24 23 6 8 21 hvcurveto
          -1 -6 -1 -6 -1 -5 118 callgsubr
        </CharString>
        <CharString name="dvJ_J_YA">
          786 1213 413 189 callgsubr
          -1231 -106 callgsubr
          888 117 callsubr
          -7 -4 -7 -5 -7 -6 -30 -21 -27 -13 -41 -3 39 callgsubr
          16 15 3 4 14 hvcurveto
          -5 -15 -4 -13 -1 -12 rrcurveto
          -91 -9 54 -109 76 136 callgsubr
        </CharString>
        <CharString name="dvJ_KA">
          482 687 311 57 callsubr
          -730 -106 callgsubr
          732 -71 callsubr
          -40 -39 -25 -38 -32 hvcurveto
          -38 -39 -41 -24 -52 -4 -25 callgsubr
          26 -1 28 8 26 12 rlinecurve
          -13 -36 -8 -39 -37 135 callgsubr
          -87 callgsubr
        </CharString>
        <CharString name="dvJ_MA">
          387 555 153 callgsubr
          491 392 rmoveto
          -1025 -106 callgsubr
          600 128 callsubr
          -46 -30 -64 -36 -61 -8 122 callsubr
          21 0 22 2 rlinecurve
          -8 -11 -3 -15 -1 -13 29 -53 54 -23 55 -5 -94 callsubr
        </CharString>
        <CharString name="dvJ_NA">
          390 561 220 -37 callsubr
          25 152 rmoveto
          -1 -1 -28 -17 -63 -36 -61 -7 122 callsubr
          22 0 22 2 rlinecurve
          -7 -11 -4 -13 -2 -15 30 -50 53 -23 52 -5 -56 callgsubr
          -74 -58 -84 -54 -83 -52 rrcurveto
          463 240 rmoveto
          -1028 -106 callgsubr
          1028 -104 callsubr
        </CharString>
        <CharString name="dvJ_NY">
          -187 540 573 rmoveto
          31 callsubr
          -559 -106 callgsubr
          104 -395 rmoveto
          124 5 97 74 65 vvcurveto
          28 -20 18 -33 14 vhcurveto
          2 7 26 -9 30 -4 37 3 rlinecurve
          54 26 56 47 27 29 -29 28 rcurveline
          -39 -39 -33 -21 -48 -24 301 callgsubr
          -31 -16 -28 -38 36 -29 rrcurveto
          44 5 25 -21 -28 vvcurveto
          -44 -56 -44 -97 -15 vhcurveto
          -7 8 -10 13 -5 10 rrcurveto
          -28 -30 -21 -39 -7 hvcurveto
          38 -59 81 -87 86 -42 28 7 12 17 -7 23 -73 33 -54 45 -35 47 rrcurveto
          endchar
        </CharString>
        <CharString name="dvJ_NYA">
          6 674 4 callsubr
          -487 -106 callgsubr
          489 hlineto
          -15 -65 -38 -38 -33 -21 -48 -24 rlinecurve
          301 callgsubr
          -31 -16 -28 -38 36 -29 rrcurveto
          47 callgsubr
          40 19 41 31 30 27 6 -7 rcurveline
          -35 -47 -89 -379 -107 callgsubr
        </CharString>
        <CharString name="dvJ_NY_YA">
          310 416 473 rmoveto
          -24 -18 -25 -15 -31 -15 301 callgsubr
          -31 -16 -28 -38 36 -29 rrcurveto
          47 callgsubr
          33 16 34 23 27 23 rrcurveto
          295 -28 189 callgsubr
          -791 -106 callgsubr
          448 -44 callgsubr
        </CharString>
        <CharString name="dvJ_R">
          -100 531 459 rmoveto
          -42 -48 -67 -32 -59 -5 6 callgsubr
          41 -2 51 20 45 27 rlinecurve
          29 -26 -60 -145 -147 -106 -135 292 callgsubr
          149 76 141 106 55 195 -17 42 rcurveline
          10 8 10 8 8 8 rrcurveto
          83 196 rmoveto
          -620 -106 callgsubr
          620 -104 callsubr
        </CharString>
        <CharString name="dvJ_RA">
          93 761 4 callsubr
          -534 253 callsubr
          -27 -115 -42 -48 -67 -31 -58 -5 rlinecurve
          6 callgsubr
          52 -3 68 33 52 37 rlinecurve
          7 -6 -14 -25 -13 -24 -14 -25 rlinecurve
          -5 -23 -5 -23 -5 -23 285 callsubr
          -71 -104 -43 -76 callgsubr
        </CharString>
        <CharString name="dvJ_TA">
          402 1070 4 callsubr
          -847 -106 callgsubr
          849 hlineto
          -28 -114 -97 -53 -137 -39 -90 -13 rlinecurve
          -4 -2 -4 -2 -3 -2 rrcurveto
          -17 -33 -55 -7 -32 hhcurveto
          -18 9 -21 12 -15 16 152 callgsubr
          25 -12 23 -2 25 2 26 6 rlinecurve
          -4 -11 -3 -12 -2 -10 32 -101 61 -86 72 -60 rrcurveto
          27 6 16 15 16 vvcurveto
          -47 39 -66 94 -22 81 291 callgsubr
          146 47 88 49 6 -9 rcurveline
          -23 -28 -80 -344 -107 callgsubr
        </CharString>
        <CharString name="dvJ_TTA">
          329 976 619 rmoveto
          -946 -106 callgsubr
          606 143 callsubr
          -44 -44 -68 -37 -60 -35 -63 -31 -59 -5 -51 14 -40 callgsubr
          19 -3 25 -1 28 3 rlinecurve
          -21 -21 -13 -23 -27 -91 callsubr
        </CharString>
        <CharString name="dvJ_VA">
          304 708 316 66 callsubr
          -750 -106 callgsubr
          753 hlineto
          -32 -150 -6 callgsubr
          -50 -45 -25 -39 -34 hvcurveto
          -35 -33 -33 -27 -57 -6 -18 9 -21 12 -15 16 -27 2 -30 -35 -8 -38 18 -6 27 -13 -3 -22 -4 -41 -58 -68 -64 -17 -49 23 -18 56 7 62 4 36 25 43 36 30 rrcurveto
          -8 25 -16 12 -21 -4 -57 -34 -28 -63 -5 -41 118 callgsubr
        </CharString>
        <CharString name="dvJ_YA">
          424 851 413 189 callgsubr
          -869 -106 callgsubr
          526 117 callsubr
          -57 -34 -28 -63 -5 -41 rrcurveto
          -91 -9 54 -109 76 136 callgsubr
        </CharString>
        <CharString name="dvJx">
          -105 591 573 rmoveto
          31 callsubr
          -574 293 callsubr
          -117 rmoveto
          -60 callsubr
          68 -4 69 57 52 49 rlinecurve
          -40 36 -42 -48 -42 -32 -59 -5 rlinecurve
          -18 9 -21 12 -15 16 205 callsubr
          -62 -476 120 callsubr
          endchar
        </CharString>
        <CharString name="dvJxA">
          88 77 79 rmoveto
          -79 callsubr
          679 242 callsubr
          123 callsubr
          535 hlineto
          -27 -115 -42 -48 -42 -31 -58 -5 rlinecurve
          -18 9 -21 12 -15 16 152 callgsubr
          25 -12 51 -3 53 32 44 37 rlinecurve
          6 -5 -41 -74 -67 -285 -107 callsubr
          rrcurveto
          endchar
        </CharString>
</ttFont>
